<svg width="600" height="600" viewBox="0 0 600 600" fill="none" xmlns="http://www.w3.org/2000/svg">
<g clip-path="url(#clip0)">
<path d="M675 675H-75V-75H675V675Z" fill="url(#paint0_linear)"/>
<path d="M360.996 403.874H308.184V356.576H360.996V403.874ZM414.113 320.069H340.054V380.225H414.113V320.069ZM377.082 441.95H442.881V362.639H377.082V441.95ZM400.757 434.192H334.59V491.191H400.757V434.192ZM580.44 284.416H490.23V387.501H580.44V284.416ZM478.458 331.108H456.605V356.576H478.458V331.108ZM544.531 252.277H456.605V304.426H544.531V252.277ZM442.881 270.468H395.532V335.958H442.881V270.468ZM334.59 275.32H308.184V303.213H334.59V275.32ZM299.325 320.069H258.501V382.71H299.325V320.069ZM347.338 441.95H275.708V521.511H347.338V441.95ZM308.184 576.086H388.617V528.788H308.184V576.086ZM500.311 557.894H443.791V599.129H500.313V557.894H500.311ZM637.361 516.659H585.062V578.511H637.361V516.659ZM551.302 544.718H506.381V585.953H551.302V544.718ZM594.357 463.296H528.843V537.278H594.357V463.296ZM610.791 590.639H528.843V644H610.791V590.639ZM340.054 557.894H251.187V637.937H340.052V557.894H340.054ZM630.216 356.576H569.818V403.874H630.216V356.576ZM594.357 424.49H568.208V451.477H594.357V424.49ZM251.187 474.697H300.975V404.294H251.187V474.697ZM321.764 249.852L232 252.277V320.069H321.764V249.852ZM646 252.277H587.725V326.256H646V252.277ZM371.858 245H347.338V298.361H371.858V245ZM641.143 437.983H581.281V486.494H641.143V437.983Z" fill="url(#paint1_linear)" stroke="#FFC700" stroke-width="1.5"/>
<path d="M115.996 319.874H63.1843V272.576H115.996V319.874ZM169.113 236.069H95.0537V296.225H169.113V236.069ZM132.082 357.95H197.881V278.639H132.082V357.95ZM155.757 350.192H89.5904V407.191H155.757V350.192ZM335.44 200.416H245.23V303.501H335.44V200.416ZM233.458 247.108H211.605V272.576H233.458V247.108ZM299.531 168.277H211.605V220.426H299.531V168.277ZM197.881 186.468H150.532V251.958H197.881V186.468ZM89.5904 191.32H63.1843V219.213H89.5904V191.32ZM54.3246 236.069H13.5008V298.71H54.3246V236.069ZM102.338 357.95H30.7084V437.511H102.338V357.95ZM63.1843 492.086H143.617V444.788H63.1843V492.086ZM255.311 473.894H198.791V515.129H255.313V473.894H255.311ZM392.361 432.659H340.062V494.511H392.361V432.659ZM306.302 460.718H261.381V501.953H306.302V460.718ZM349.357 379.296H283.843V453.278H349.357V379.296ZM365.791 506.639H283.843V560H365.791V506.639ZM95.0537 473.894H6.18721V553.937H95.0519V473.894H95.0537ZM385.216 272.576H324.818V319.874H385.216V272.576ZM349.357 340.49H323.208V367.477H349.357V340.49ZM6.18721 390.697H55.9745V320.294H6.18721V390.697ZM76.7643 165.852L-13 168.277V236.069H76.7643V165.852ZM401 168.277H342.725V242.256H401V168.277ZM126.858 161H102.338V214.361H126.858V161ZM396.143 353.983H336.281V402.494H396.143V353.983Z" fill="url(#paint2_linear)" stroke="#FFC700" stroke-width="1.5"/>
<rect x="504" y="328.706" width="8.86149" height="25.1423" fill="white"/>
<rect x="521.754" y="328.857" width="8.83104" height="25.1423" fill="white"/>
<rect x="512.861" y="320" width="8.89195" height="8.85765" fill="white"/>
<rect x="539.415" y="328.857" width="8.89195" height="25.1423" fill="white"/>
<rect x="530.585" y="320" width="8.83105" height="8.85765" fill="white"/>
<rect x="548.308" y="320" width="8.86149" height="8.85765" fill="white"/>
<rect x="557.169" y="327.792" width="8.83104" height="8.85766" fill="white"/>
<rect x="548.308" y="336.65" width="8.86149" height="8.82721" fill="white"/>
<rect x="40" y="390.425" width="7.57515" height="21.4449" fill="white"/>
<rect x="55.1768" y="390.555" width="7.54912" height="21.4449" fill="white"/>
<rect x="47.5752" y="383" width="7.60118" height="7.55506" fill="white"/>
<rect x="70.2744" y="390.555" width="7.60118" height="21.4449" fill="white"/>
<rect x="62.7256" y="383" width="7.54912" height="7.55506" fill="white"/>
<rect x="77.876" y="383" width="7.57515" height="7.55506" fill="white"/>
<rect x="85.4512" y="389.646" width="7.54912" height="7.55506" fill="white"/>
<rect x="77.876" y="397.202" width="7.57515" height="7.52909" fill="white"/>
<path d="M301.254 327.488H298.704V324.938H301.254V327.488Z" fill="#2A232B"/>
<path d="M543.293 580.647C537.693 568.545 522.395 550.61 505.4 545.656C484.39 539.528 436.965 532.12 419.38 528.002C405.284 524.697 376.892 499.202 366.942 490.645C365.157 489.115 363.696 485.955 363.66 483.607C363.306 455.904 374.358 382.311 374.358 382.311H299.979H225.604C225.604 382.311 236.655 455.901 236.296 483.607C236.268 485.955 234.799 489.115 233.019 490.645C223.069 499.202 194.677 524.697 180.581 528.002C162.993 532.12 115.569 539.781 94.5617 545.908C77.5608 550.86 62.2685 568.542 56.6687 580.644C47.2133 601.065 44.9795 638.019 44.9795 669.894H299.979H554.979C554.979 638.022 552.743 601.067 543.293 580.647Z" fill="#F4BAA3"/>
<path d="M450.827 540.561C512.9 549.593 539.022 562.767 547.202 669.9H554.98C554.98 638.025 552.743 601.07 543.293 580.65C537.693 568.547 522.396 550.613 505.4 545.659C484.391 539.531 436.966 532.123 419.381 528.005C405.284 524.7 372.864 497.229 364.191 486.312C372.759 498.308 396.808 526.105 417.879 533.385C427.959 536.869 436.354 538.455 450.827 540.561ZM182.083 533.385C203.154 526.108 227.2 498.308 235.771 486.312C227.101 497.226 194.68 524.7 180.581 528.005C162.996 532.123 115.571 539.783 94.562 545.911C77.5663 550.863 62.2689 568.545 56.6691 580.647C47.2188 601.068 44.9824 638.022 44.9824 669.897H52.7599C60.8893 563.45 87.1212 549.581 149.135 540.559C163.606 538.455 172.003 536.869 182.083 533.385Z" fill="#FFD5C4"/>
<path d="M288.876 575.144C288.876 575.144 275.938 571.041 270.815 569.077C244.17 558.854 157.607 552.229 157.607 552.229C157.607 552.229 248.78 555.848 268.9 559.316C267.732 547.16 261.206 508.306 261.206 508.306C261.206 508.306 274.336 551.184 277.549 562.001C279.268 567.784 288.876 575.144 288.876 575.144ZM316.414 571.722C316.187 571.908 315.927 572.15 315.644 572.405C315.932 572.188 316.192 571.961 316.414 571.722ZM288.876 575.144C288.876 575.144 296.253 582.773 299.961 582.87C304.832 583 312.272 575.478 315.646 572.405C312.42 574.845 305.041 575.952 302.106 576.067C298.714 576.197 288.876 575.144 288.876 575.144ZM342.472 555.97C338.532 556.603 331.288 557.982 331.288 557.982L337.12 520.013C335.472 527.844 325.711 561.351 316.414 571.722C321.284 567.601 332.117 565.625 337.64 564.826C363.742 561.042 363.731 561.045 442.348 552.229C442.348 552.229 368.217 551.834 342.472 555.97Z" fill="#E59E82"/>
<path d="M543.293 580.647C537.693 568.545 522.395 550.61 505.4 545.656C484.39 539.528 436.965 532.12 419.38 528.002C405.284 524.697 376.892 499.202 366.942 490.645C365.157 489.115 363.696 485.955 363.66 483.607C363.306 455.904 374.358 382.311 374.358 382.311H299.979H225.604C225.604 382.311 236.655 455.901 236.296 483.607C236.268 485.955 234.799 489.115 233.019 490.645C223.069 499.202 194.677 524.697 180.581 528.002C162.993 532.12 115.569 539.781 94.5617 545.908C77.5608 550.86 62.2685 568.542 56.6687 580.644C47.2133 601.065 44.9795 638.019 44.9795 669.894H299.979H554.979C554.979 638.022 552.743 601.067 543.293 580.647Z" stroke="#C66C49" stroke-width="3.825"/>
<path d="M343.676 504.055C350.089 501.329 356.979 496.333 363.889 489.981C362.63 488.079 361.778 485.687 361.745 483.632C361.508 465.027 366.271 426.591 369.533 402.662C329.296 397.753 270.666 397.773 230.433 402.697C233.692 426.627 238.452 465.035 238.21 483.629C238.185 485.641 237.323 488.053 236.068 489.966C242.984 496.323 249.879 501.324 256.295 504.052C275.274 512.125 324.696 512.125 343.676 504.055Z" fill="url(#paint3_linear)"/>
<path d="M154.043 672.394L157.417 517.221C157.417 517.221 183.411 510.879 199.836 501.123C244.451 557.103 376.936 545.322 399.593 499.542C403.389 500.881 406.531 502.594 410.461 503.91C423.211 512.544 433.954 515.37 433.954 515.37L436.338 672.666C399.909 673.146 154.043 672.394 154.043 672.394Z" fill="#F5F4F5"/>
<path d="M437.715 524.361C426.913 522.527 418.307 520.033 413.612 515.324C399.987 540.887 345.367 557.087 327.282 559.461C379.695 543.458 401.711 531.888 410.407 504.425C415.481 510.501 427.038 513.475 441.805 515.997L437.715 524.361ZM179.288 515.885C182.995 515.089 184.847 512.738 188.526 511.822L184.63 507.062C176.689 512.758 161.754 515.489 144.085 518.343L144.564 527.875C154.652 525.86 164.498 523.315 173.708 519.401C192.79 541.038 222.587 551.681 252.911 556.088C214.87 546.946 193.058 531.516 179.288 515.885Z" fill="white"/>
<path d="M396.525 504.854C381.406 533.824 267.138 567.571 202.702 507.062C198.696 508.63 186.711 512.379 186.711 512.379C233.646 571.233 371.191 571.607 407.801 512.093C407.643 512.032 400.248 506.593 396.525 504.854Z" fill="#DFDDE2"/>
<path d="M399.45 499.207C373.728 546.573 239.876 553.277 199.94 500.801C185.354 504.769 171.332 513.235 157.213 515.354L154.043 672.393L436.335 672.666L434.155 513.581C425.564 511.779 417.578 506.602 410.557 503.652C406.676 502.022 403.382 500.556 399.45 499.207ZM198.974 502.384C234.427 561.254 374.457 549.445 401.492 502.637C404.772 503.909 405.61 504.412 409.413 505.653C381.408 559.734 242.882 576.969 186.224 508.578C186.622 508.476 194.978 503.766 198.974 502.384ZM183.411 510.878C229.217 579.846 380.424 569.161 411.848 507.597C416.364 511.144 423.399 515.218 432.085 517.121L436.318 667.775L154.856 667.815L159.712 519.153C166.811 515.586 178.209 512.954 183.411 510.878Z" fill="#B8B6C9"/>
<path d="M33.4302 671.906C26.8665 636.584 27.5856 550.547 56.4133 550.728C89.9101 537.185 131.049 521.648 165.558 511.685C183.174 493.208 199.82 475.636 232.338 457.334C233.33 463.962 237.116 479.114 232.366 487.355C228.911 493.353 217.619 501.574 208.003 508.694C202.829 515.63 197.989 522.397 191.176 531.871C204.354 588.738 215.658 618.01 216.923 667.334C216.923 667.334 213.22 669.091 381.324 668.347C386.972 611.382 394.056 582.766 407.79 530.397C407.79 530.397 396.805 517.611 389.413 507.778C384.175 502.686 368.095 488.572 366.871 485.718C363.874 478.729 365.473 469.939 367.151 456.732C394.673 469.159 410.501 487.386 433.66 511.055C453.369 516.458 512.353 536.471 541.895 549.856C552.006 549.575 557.713 554.953 561.968 563.794C575.751 592.341 572.49 633.401 567.527 672.906C518.845 672.985 172.191 678.547 33.4302 671.906Z" fill="#41494D"/>
<path d="M233.36 464.12C233.768 466.848 234.135 469.436 234.408 471.874C233.852 472.552 190.518 531.424 190.202 531.863C200.85 507.64 216.084 482.541 233.36 464.12ZM366.414 464.12C366.009 466.848 365.945 469.436 365.672 471.874C366.228 472.552 408.846 529.17 409.16 529.611C397.876 507.044 383.69 482.541 366.414 464.12ZM465.749 543.356C454.835 559.245 452.505 564.73 440.558 580.476C443.289 580.476 447.695 580.899 450.426 580.899C459.769 564.873 459.787 556.715 465.749 543.356ZM476.934 658.679C486.606 635.984 494.615 616.066 504.318 593.338L501.138 588.203C493.057 611.548 484.482 635.27 476.934 658.679ZM149.651 580.899C152.382 580.899 156.789 580.476 159.522 580.476C147.576 564.73 145.245 563.746 134.334 547.857C140.29 561.216 140.308 564.873 149.651 580.899ZM98.9396 588.203L95.7598 593.338C105.465 616.066 107.911 635.984 117.585 658.679C110.035 635.27 107.021 611.548 98.9396 588.203Z" fill="#2E383E"/>
<path d="M212.356 502.885C215.368 498.687 225.711 484.341 234.289 470.854C236.808 484.77 232.183 493.024 212.356 502.885ZM365.616 469.931C372.127 481.141 379.8 492.3 387.71 502.579C366.279 492.82 364.839 482.842 365.616 469.931Z" fill="#1E292E"/>
<path d="M367.09 457.179C367.111 457.023 367.134 456.878 367.149 456.735C413.286 482.232 440.018 520.536 471.054 549.088C469.911 550.927 467.922 552.13 466.752 553.946C434.252 529.216 418.807 491.825 367.09 457.179ZM227.906 458.869C189.569 479.812 135.489 543.93 130.195 548.805C131.338 550.651 131.957 550.276 133.128 552.09C165.63 527.362 174.501 502.885 227.906 458.869ZM541.895 549.858C539.345 547.821 479.048 524.259 433.291 511.687C519.221 553.25 549.537 558.977 564.542 573.706C563.565 571.158 561.573 549.31 541.895 549.858ZM165.997 511.228C131.511 521.209 87.3578 536.978 56.4111 550.73C42.7329 551.001 32.9307 570.952 30.832 591.745C49.8601 548.871 40.4583 577.694 165.997 511.228Z" fill="#575B5C"/>
<path d="M571.809 606.871C570.942 584.852 564.019 547.958 541.997 549.598C540.176 548.042 488.901 524.692 434.17 509.79C415.42 490.78 392.057 464.915 366.924 456.35C365.111 472.741 363.158 483.436 367.475 488.77C373.19 494.99 380.047 501.212 386.773 505.401C398.544 521.048 407.528 530.335 407.528 530.335C393.681 583.128 385.05 610.186 379.547 667.24H220.414C214.914 610.188 206.279 583.13 192.433 530.335C192.433 530.335 201.414 521.046 213.187 505.401C219.917 501.209 226.771 494.99 232.486 488.77C236.8 483.436 234.85 472.741 233.037 456.35C207.904 464.915 184.538 490.78 165.791 509.79C111.06 524.695 59.7846 548.042 57.9639 549.598C35.9395 547.958 29.0163 584.852 28.1518 606.871C27.1038 633.613 31.8111 670.463 32.1936 673.013H567.767C568.15 670.46 572.857 633.613 571.809 606.871ZM231.088 487.358C225.33 493.052 221.76 495.469 214.582 500.827C226.896 484.836 225.652 486.973 234.238 472.193C234.623 478.547 232.233 486.228 231.088 487.358ZM36.8907 667.984C34.1316 635.232 29.4549 605.739 37.9872 573.655C41.2537 561.346 44.3214 553.012 56.9974 551.957C59.7183 566.079 77.734 625.203 93.4573 665.516C77.581 603.826 79.9143 617.55 72.4989 592.963C70.0407 584.714 67.7712 576.424 64.9024 568.3C62.9058 562.654 60.6949 557.113 59.1343 551.335L162.238 513.429C161.527 514.15 129.356 547.685 128.581 548.629C133.291 556.333 148.512 567.045 156.236 578.612C124.524 581.606 109.04 586.703 97.5857 588.404C98.4298 590.747 120.691 653.054 123.025 658.927C119.253 638.738 110.744 607.169 101 589.539C104.596 589.082 147.097 583.184 160.652 580.672C156.889 573.395 140.143 559.158 131.177 548.494C183.824 502.181 196.003 478.619 232.139 458.086C232.521 461.934 233.269 465.764 233.541 469.61C193.264 529.619 188.537 529.705 188.537 529.705C200.228 575.121 215.393 621.057 215.393 667.591L36.8907 667.984ZM368.87 487.358C367.728 486.228 365.336 478.547 365.721 472.193C374.306 486.975 373.062 484.836 385.376 500.827C378.198 495.469 374.625 493.054 368.87 487.358ZM563.068 667.984L384.568 667.591C384.568 621.057 399.732 575.118 411.424 529.705C411.424 529.705 406.697 529.619 366.419 469.61C366.69 465.764 367.437 461.934 367.822 458.086C403.958 478.619 416.134 502.181 468.784 548.494C459.818 559.16 443.072 573.397 439.309 580.672C452.862 583.181 495.363 589.082 498.961 589.539C489.22 607.169 480.71 638.738 476.936 658.927C479.27 653.051 501.531 590.747 502.375 588.404C490.92 586.703 475.437 581.606 443.725 578.612C451.446 567.045 466.67 556.335 471.38 548.629C470.602 547.685 438.434 514.15 437.722 513.429C437.725 513.429 540.826 551.335 540.826 551.335C539.268 557.115 537.055 562.654 535.058 568.3C532.19 576.424 529.92 584.714 527.462 592.963C520.047 617.553 522.38 603.826 506.504 665.516C522.227 625.2 540.24 566.079 542.963 551.957C555.639 553.012 558.707 561.346 561.974 573.655C570.503 605.739 565.827 635.235 563.068 667.984Z" fill="#111A1F"/>
<path d="M161.44 286.29C157.654 280.012 145.307 262.833 135.861 265.243C128.181 267.211 128.28 277.919 127.686 284.253C126.819 293.545 126.503 309.733 129.025 316.301C131.45 322.607 139.123 334.794 143.886 339.443C149.749 345.142 159.11 363.305 160.262 365.19C162.075 368.168 165.712 372.432 171.291 372.095C179.122 371.624 185.887 364.223 186.502 360.659C189.819 341.304 171.296 302.626 161.44 286.29Z" fill="#F4BAA3" stroke="#C66C49" stroke-width="3.825"/>
<path d="M157.689 324.533C157.324 323.097 157.707 320.674 158.082 318.339C158.421 316.209 158.74 314.197 158.546 312.775C157.809 307.445 153.663 297.322 150.957 291.834C147.838 285.52 142.8 277.567 136.476 275.517C133.864 274.667 132.143 275.682 131.149 276.71C130.414 277.465 130.248 278.355 130.488 278.462C130.73 278.566 131.271 277.829 132.061 277.138C132.709 276.572 130.766 277.036 132.061 277.138C131.539 279.79 129.856 293.208 131.016 303.003C131.929 310.709 133.693 316.464 134.237 317.326C134.316 318.234 134.448 319.124 134.645 319.986C137.2 331.231 153.816 345.937 157.681 350.127C158.395 350.9 159.145 351.359 159.329 351.17C159.512 350.981 159.071 350.219 158.362 349.441C154.542 345.279 138.036 330.619 135.568 319.772C132.949 308.261 145.543 291.194 147.55 287.583C148.573 289.279 149.442 290.906 150.11 292.262C150.638 293.326 151.217 294.573 151.819 295.922C150.638 297.804 138.768 311.545 141.787 322.546C142.904 326.603 151.533 331.833 154.871 333.264C156.707 334.054 157.396 335.232 158.196 336.594C159.125 338.185 158.281 342.278 161.333 343.579C161.955 343.844 162.516 343.951 163.013 343.951C163.875 343.951 164.528 343.619 165.01 343.227C165.061 343.918 165.058 344.805 165.033 345.626C165.002 346.692 165.153 347.179 165.41 347.2C165.673 347.223 165.946 346.756 165.979 345.703C166.022 344.402 166.015 342.793 165.783 342.021C165.097 339.754 163.008 337.191 160.792 334.48C158.615 331.815 158.255 326.756 157.689 324.533ZM134.15 314.565C128.163 296.911 137.422 280.831 138.765 278.408C141.346 279.426 145.299 284 146.979 286.658C145.755 288.782 134.4 302.689 134.15 314.565ZM161.698 342.696C158.933 341.518 159.897 337.637 159.005 336.107C158.194 334.725 157.357 333.297 155.233 332.384C154.774 332.185 154.267 331.884 153.747 331.537C146.908 316.046 154.494 309.276 156.396 307.891C156.98 309.783 157.414 311.52 157.61 312.915C157.783 314.19 157.459 316.225 157.148 318.188C156.758 320.623 156.358 323.145 156.774 324.777C157.396 327.208 157.822 332.351 160.066 335.1C162.057 337.538 164.102 340.052 164.801 342.102C164.5 342.51 163.554 343.489 161.698 342.696Z" fill="#C66C49"/>
<path d="M437.848 286.29C441.637 280.012 453.984 262.833 463.427 265.243C471.107 267.211 471.008 277.919 471.605 284.253C472.472 293.545 472.785 309.733 470.266 316.301C467.841 322.607 460.165 334.794 455.405 339.443C449.542 345.142 440.179 363.305 439.028 365.19C437.215 368.168 433.579 372.432 427.997 372.095C420.169 371.624 413.404 364.223 412.786 360.659C409.471 341.304 427.997 302.626 437.848 286.29Z" fill="#F4BAA3" stroke="#C66C49" stroke-width="3.825"/>
<path d="M438.501 334.483C436.285 337.193 434.196 339.756 433.51 342.023C433.276 342.798 433.271 344.407 433.311 345.705C433.347 346.758 433.62 347.225 433.885 347.202C434.145 347.182 434.293 346.695 434.263 345.629C434.237 344.808 434.232 343.92 434.283 343.229C434.765 343.622 435.418 343.953 436.28 343.953C436.777 343.953 437.34 343.846 437.963 343.581C441.01 342.278 440.168 338.185 441.097 336.597C441.897 335.235 442.586 334.054 444.424 333.266C447.762 331.836 456.391 326.608 457.508 322.549C460.528 311.548 448.657 297.803 447.477 295.924C448.073 294.575 448.657 293.328 449.18 292.265C449.853 290.908 450.72 289.279 451.745 287.586C453.752 291.196 466.344 308.261 463.728 319.774C461.257 330.622 444.753 345.282 440.933 349.443C440.222 350.221 439.778 350.984 439.962 351.172C440.151 351.361 440.898 350.902 441.609 350.129C445.475 345.94 462.088 331.234 464.643 319.988C464.842 319.127 464.977 318.237 465.056 317.329C465.594 316.469 467.362 310.714 468.274 303.005C469.435 293.211 467.752 279.793 467.229 277.141C468.524 277.039 466.581 276.575 467.229 277.141C468.022 277.832 468.563 278.569 468.802 278.464C469.042 278.357 468.876 277.47 468.144 276.712C467.147 275.685 465.426 274.67 462.815 275.519C456.491 277.569 451.45 285.523 448.331 291.836C445.625 297.324 441.482 307.448 440.745 312.777C440.551 314.2 440.87 316.212 441.209 318.341C441.581 320.677 441.966 323.099 441.601 324.535C441.035 326.756 440.678 331.815 438.501 334.483ZM452.311 286.657C453.994 284 457.944 279.428 460.525 278.408C461.869 280.831 471.128 296.911 465.143 314.565C464.893 302.689 453.538 288.782 452.311 286.657ZM434.492 342.097C435.188 340.047 437.236 337.532 439.227 335.095C441.469 332.346 441.897 327.202 442.519 324.772C442.933 323.14 442.535 320.618 442.147 318.183C441.834 316.22 441.51 314.185 441.683 312.91C441.877 311.515 442.31 309.778 442.894 307.886C444.797 309.271 452.383 316.044 445.544 331.532C445.026 331.879 444.519 332.18 444.055 332.379C441.933 333.292 441.097 334.72 440.283 336.102C439.391 337.632 440.357 341.516 437.593 342.691C435.736 343.489 434.79 342.51 434.492 342.097Z" fill="#C66C49"/>
<path d="M414.056 395.512C402.456 420.723 369.253 467.682 343.674 478.555C324.697 486.626 275.273 486.626 256.293 478.555C230.719 467.679 197.515 420.721 185.91 395.512C172.421 366.21 149.91 271.523 149.879 271.385C146.564 258.646 144.789 245.276 144.769 231.491C144.639 144.668 214.016 74.1939 299.742 74.0588C385.476 73.9236 455.07 144.171 455.198 230.993C455.221 244.784 453.492 258.158 450.22 270.908C450.177 271.044 427.594 366.097 414.056 395.512Z" fill="#F4BAA3"/>
<path d="M325.867 76.272C394.702 92.4568 445.965 154.957 445.85 229.588C445.827 243.376 444.055 256.746 440.74 269.485C440.709 269.623 417.387 364.391 404.03 393.612C392.767 418.242 362.608 463.153 338.069 474.755C329.988 478.578 308.9 479.485 299.985 479.485C291.075 479.485 269.984 478.578 261.906 474.755C237.367 463.153 207.206 418.242 195.945 393.612C182.586 364.391 159.263 269.623 159.235 269.485C155.92 256.748 154.145 243.376 154.125 229.588C154.008 154.957 205.265 92.4568 274.105 76.272C200.606 88.7695 144.652 153.517 144.772 231.49C144.792 245.276 146.567 258.645 149.882 271.385C149.912 271.523 172.273 366.278 185.913 395.511C197.648 420.659 231.145 466.7 256.296 478.555C265.657 482.971 289.67 484.608 299.988 484.608C310.297 484.608 334.321 482.969 343.677 478.555C368.825 466.7 402.327 420.659 414.059 395.511C427.702 366.278 450.063 271.523 450.091 271.385C453.406 258.645 455.18 245.276 455.201 231.49C455.321 153.517 399.366 88.7695 325.867 76.272Z" fill="#ECAC92"/>
<path d="M414.056 395.512C402.456 420.723 369.253 467.682 343.674 478.555C324.697 486.626 275.273 486.626 256.293 478.555C230.719 467.679 197.515 420.721 185.91 395.512C172.421 366.21 149.91 271.523 149.879 271.385C146.564 258.646 144.789 245.276 144.769 231.491C144.639 144.668 214.016 74.1939 299.742 74.0588C385.476 73.9236 455.07 144.171 455.198 230.993C455.221 244.784 453.492 258.158 450.22 270.908C450.177 271.044 427.594 366.097 414.056 395.512Z" stroke="#C66C49" stroke-width="3.825"/>
<path d="M290.358 426.267L311.516 425.739C309.065 437.138 292.034 435.501 290.358 426.267Z" fill="url(#paint4_linear)"/>
<path d="M290.654 426.989C289.708 426.861 289.851 425.512 290.858 425.607C290.968 425.622 301.844 426.999 310.947 425.058C311.932 424.867 312.222 426.219 311.279 426.42C304.146 427.945 294.918 427.588 290.654 426.989ZM300.191 417.885C296.359 417.885 292.643 416.557 288.91 415.907C284.728 415.175 280.561 415.802 276.377 416.172C272.103 416.552 262.778 416.139 260.146 414.473C258.672 413.538 258.948 411.36 260.608 410.778C262.173 410.217 264.614 411.38 266.195 411.663C273.518 412.977 277.374 411.577 283.795 411.362C293.615 411.067 294.658 415.19 306.908 412.714C320.079 410.052 326.01 412.066 335.46 409.22C336.756 408.828 338.296 407.792 339.655 408.491C341.223 409.302 341.147 411.513 339.53 412.224C330.845 416.054 321.236 414.507 311.595 416.116C307.816 416.743 304.05 417.885 300.191 417.885Z" fill="#C66C49"/>
<path d="M202.447 281.647C201.157 275.82 215.684 271.515 234.86 273.866C254.031 276.22 267.342 287.953 265.593 293.869C264.624 297.148 238.463 302.143 229.247 301.129C219.904 300.096 205.563 295.715 202.447 281.647Z" fill="url(#paint5_radial)"/>
<path d="M249.617 286.05C249.617 294.499 242.765 301.35 234.317 301.35C225.868 301.35 219.017 294.499 219.017 286.05C219.017 277.6 225.868 270.75 234.317 270.75C242.765 270.748 249.617 277.6 249.617 286.05Z" fill="#4E60A3"/>
<path opacity="0.7" d="M232.603 270.919C232.545 270.927 232.483 270.934 232.422 270.942C232.496 271.286 232.567 271.633 232.639 271.977C232.624 271.628 232.616 271.271 232.603 270.919ZM232.636 271.975C232.815 277.003 233.108 281.484 233.955 283.103C234.401 281.328 233.641 276.906 232.636 271.975ZM233.957 283.105C233.848 283.531 233.682 283.822 233.427 283.919C233.172 284.016 232.851 283.904 232.488 283.656C232.593 284.082 232.583 284.414 232.397 284.62C232.213 284.827 231.884 284.878 231.445 284.819C231.734 285.15 231.882 285.454 231.818 285.719C231.749 285.984 231.476 286.183 231.071 286.336C231.476 286.497 231.749 286.696 231.813 286.961C231.876 287.226 231.729 287.53 231.443 287.859C231.876 287.805 232.211 287.861 232.389 288.068C232.57 288.274 232.58 288.608 232.478 289.034C232.838 288.787 233.154 288.68 233.409 288.779C233.667 288.876 233.832 289.167 233.934 289.595C234.141 289.208 234.37 288.96 234.648 288.932C234.913 288.896 235.199 289.083 235.487 289.412C235.49 288.973 235.582 288.649 235.811 288.494C236.035 288.338 236.37 288.369 236.778 288.527C236.579 288.139 236.51 287.81 236.637 287.565C236.765 287.323 237.078 287.193 237.514 287.142C237.155 286.89 236.936 286.632 236.941 286.357C236.941 286.081 237.155 285.824 237.52 285.576C237.086 285.523 236.778 285.393 236.647 285.15C236.523 284.908 236.591 284.577 236.795 284.189C236.382 284.342 236.051 284.373 235.826 284.217C235.599 284.062 235.508 283.738 235.508 283.299C235.222 283.626 234.936 283.807 234.666 283.771C234.391 283.735 234.159 283.496 233.957 283.105ZM235.505 283.297C236.727 281.932 238.109 277.664 239.509 272.831C237.331 277.363 235.508 281.466 235.505 283.297ZM239.506 272.831C239.659 272.52 239.815 272.204 239.96 271.888C239.906 271.87 239.853 271.845 239.799 271.822C239.702 272.161 239.605 272.5 239.506 272.831ZM236.795 284.189C238.509 283.547 241.719 280.407 245.203 276.781C241.171 279.78 237.647 282.567 236.795 284.189ZM245.203 276.781C245.458 276.59 245.72 276.399 245.98 276.208C245.945 276.162 245.904 276.123 245.873 276.083C245.652 276.312 245.43 276.549 245.203 276.781ZM237.514 285.576C239.333 285.801 243.634 284.513 248.408 282.922C243.441 283.707 239.029 284.536 237.514 285.576ZM248.408 282.924C248.689 282.884 248.982 282.838 249.267 282.792C249.257 282.743 249.244 282.695 249.232 282.646C248.959 282.738 248.678 282.833 248.408 282.924ZM237.512 287.139C239.016 288.19 243.423 289.044 248.38 289.85C243.624 288.236 239.333 286.923 237.512 287.139ZM248.383 289.85C248.625 289.934 248.87 290.021 249.109 290.1C249.122 290.057 249.132 290.016 249.14 289.973C248.893 289.934 248.635 289.893 248.383 289.85ZM236.778 288.524C237.627 290.148 241.133 292.956 245.147 295.98C241.681 292.334 238.494 289.177 236.778 288.524ZM245.149 295.975C245.3 296.133 245.455 296.297 245.606 296.457C245.631 296.427 245.654 296.404 245.682 296.376C245.504 296.243 245.32 296.108 245.149 295.975ZM235.49 289.409C235.482 291.242 237.282 295.353 239.435 299.897C238.06 295.06 236.706 290.781 235.49 289.409ZM239.435 299.9C239.488 300.091 239.544 300.287 239.595 300.484C239.634 300.468 239.659 300.458 239.695 300.448C239.611 300.264 239.521 300.076 239.435 299.9ZM233.937 289.593C233.08 291.217 232.761 295.687 232.555 300.713C233.585 295.792 234.373 291.372 233.937 289.593ZM232.555 300.713C232.511 300.904 232.476 301.098 232.435 301.295C232.471 301.302 232.499 301.302 232.534 301.307C232.539 301.111 232.55 300.907 232.555 300.713ZM232.481 289.032C230.961 290.069 228.602 293.887 226.085 298.237C229.283 294.361 232.037 290.811 232.481 289.032ZM226.085 298.237C225.95 298.398 225.81 298.569 225.672 298.729C225.705 298.75 225.734 298.765 225.769 298.79C225.871 298.607 225.981 298.421 226.085 298.237ZM231.448 287.861C229.622 288.073 225.759 290.355 221.508 293.035C226.144 291.092 230.224 289.233 231.448 287.861ZM221.506 293.04C221.286 293.132 221.062 293.224 220.835 293.321C220.85 293.354 220.873 293.39 220.894 293.423C221.1 293.298 221.304 293.168 221.506 293.04ZM231.073 286.339C229.362 285.683 224.879 285.91 219.866 286.311C224.874 286.739 229.357 286.986 231.073 286.339ZM219.866 286.311C219.593 286.285 219.313 286.26 219.042 286.237C219.042 286.285 219.037 286.334 219.042 286.38C219.32 286.354 219.598 286.331 219.866 286.311ZM231.448 284.824C230.242 283.45 226.172 281.568 221.552 279.594C225.782 282.297 229.632 284.602 231.448 284.824ZM221.552 279.594C221.286 279.423 221.019 279.252 220.748 279.081C220.725 279.13 220.7 279.178 220.674 279.222C220.97 279.347 221.266 279.469 221.552 279.594ZM232.491 283.656C232.06 281.876 229.326 278.316 226.154 274.418C228.643 278.783 230.981 282.611 232.491 283.656ZM226.154 274.418C225.983 274.124 225.818 273.826 225.647 273.528C225.598 273.561 225.547 273.594 225.504 273.627C225.718 273.89 225.943 274.155 226.154 274.418Z" fill="url(#paint6_radial)"/>
<path opacity="0.4" d="M236.576 270.97C236.515 270.962 236.456 270.952 236.397 270.944C236.379 271.296 236.356 271.651 236.336 272C236.413 271.658 236.497 271.312 236.576 270.97ZM236.334 271.997C235.206 276.899 234.327 281.302 234.73 283.09C235.62 281.489 236.028 277.021 236.334 271.997ZM234.727 283.09C234.513 283.472 234.278 283.71 234.005 283.738C233.735 283.763 233.455 283.574 233.172 283.24C233.161 283.676 233.064 283.998 232.832 284.148C232.603 284.299 232.269 284.263 231.863 284.095C232.057 284.49 232.121 284.821 231.988 285.059C231.853 285.298 231.54 285.421 231.109 285.461C231.458 285.719 231.67 285.982 231.662 286.257C231.657 286.53 231.435 286.785 231.073 287.027C231.504 287.088 231.812 287.229 231.932 287.471C232.055 287.716 231.978 288.045 231.769 288.427C232.18 288.282 232.514 288.261 232.735 288.422C232.957 288.583 233.041 288.907 233.031 289.348C233.33 289.029 233.615 288.848 233.891 288.891C234.158 288.927 234.385 289.179 234.579 289.575C234.694 289.149 234.867 288.863 235.13 288.771C235.387 288.68 235.704 288.797 236.056 289.054C235.964 288.629 235.982 288.292 236.168 288.091C236.354 287.889 236.691 287.846 237.127 287.907C236.844 287.57 236.698 287.267 236.775 287.002C236.846 286.736 237.121 286.543 237.537 286.397C237.129 286.234 236.866 286.028 236.803 285.76C236.744 285.492 236.897 285.191 237.195 284.87C236.757 284.911 236.428 284.855 236.252 284.645C236.073 284.436 236.068 284.1 236.181 283.679C235.818 283.919 235.497 284.021 235.245 283.916C234.982 283.812 234.824 283.518 234.727 283.09ZM236.175 283.679C237.708 282.674 240.146 278.908 242.749 274.606C239.473 278.418 236.652 281.907 236.175 283.679ZM242.749 274.604C242.976 274.343 243.208 274.078 243.433 273.811C243.384 273.777 243.341 273.739 243.292 273.703C243.111 274.007 242.93 274.31 242.749 274.604ZM237.19 284.872C239.014 284.694 242.928 282.491 247.23 279.892C242.556 281.746 238.432 283.526 237.19 284.872ZM247.227 279.89C247.525 279.772 247.826 279.655 248.13 279.538C248.104 279.484 248.076 279.436 248.058 279.387C247.783 279.556 247.508 279.727 247.227 279.89ZM237.527 286.4C239.225 287.088 243.713 286.956 248.734 286.657C243.734 286.127 239.258 285.785 237.527 286.4ZM248.734 286.655C249.02 286.688 249.31 286.719 249.599 286.749C249.599 286.698 249.601 286.65 249.604 286.601C249.313 286.619 249.02 286.637 248.734 286.655ZM237.121 287.909C238.3 289.315 242.339 291.278 246.919 293.338C242.739 290.546 238.935 288.17 237.121 287.909ZM246.916 293.338C247.128 293.484 247.342 293.629 247.554 293.767C247.576 293.729 247.597 293.69 247.617 293.652C247.388 293.553 247.148 293.446 246.916 293.338ZM236.05 289.057C236.448 290.845 239.11 294.463 242.206 298.426C239.802 294.004 237.54 290.128 236.05 289.057ZM242.206 298.418C242.313 298.609 242.418 298.808 242.525 299.002C242.556 298.979 242.586 298.961 242.619 298.941C242.482 298.767 242.341 298.589 242.206 298.418ZM234.579 289.577C234.1 291.344 234.773 295.781 235.676 300.728C235.597 295.7 235.398 291.217 234.579 289.577ZM235.673 300.728C235.676 300.927 235.681 301.131 235.681 301.335C235.716 301.33 235.75 301.325 235.785 301.325C235.75 301.129 235.711 300.925 235.673 300.728ZM233.031 289.35C231.782 290.697 230.318 294.932 228.819 299.734C231.086 295.248 232.993 291.184 233.031 289.35ZM228.816 299.734C228.727 299.907 228.638 300.086 228.551 300.264C228.582 300.28 228.61 300.287 228.643 300.302C228.699 300.116 228.76 299.92 228.816 299.734ZM231.766 288.432C230.032 289.042 226.763 292.12 223.206 295.669C227.304 292.752 230.879 290.036 231.766 288.432ZM223.209 295.669C223.038 295.789 222.859 295.919 222.686 296.039C222.711 296.067 222.737 296.09 222.76 296.12C222.905 295.97 223.058 295.822 223.209 295.669ZM231.073 287.032C229.255 286.767 224.935 287.971 220.131 289.46C225.116 288.782 229.535 288.042 231.073 287.032ZM220.131 289.465C219.896 289.498 219.654 289.526 219.409 289.564C219.417 289.603 219.43 289.641 219.442 289.677C219.674 289.61 219.904 289.534 220.131 289.465ZM231.106 285.469C229.622 284.39 225.233 283.45 220.289 282.539C225.017 284.25 229.28 285.65 231.106 285.469ZM220.289 282.539C220.031 282.445 219.766 282.348 219.511 282.254C219.498 282.302 219.483 282.348 219.473 282.391C219.751 282.44 220.024 282.491 220.289 282.539ZM231.863 284.1C231.052 282.46 227.61 279.589 223.655 276.485C227.041 280.196 230.165 283.419 231.863 284.1ZM223.652 276.488C223.441 276.256 223.227 276.021 223.012 275.787C222.977 275.828 222.938 275.866 222.905 275.904C223.158 276.098 223.41 276.292 223.652 276.488ZM233.172 283.243C233.215 281.412 231.499 277.266 229.438 272.681C230.713 277.541 231.983 281.843 233.172 283.243ZM229.438 272.681C229.352 272.355 229.267 272.02 229.181 271.689C229.127 271.707 229.071 271.727 229.02 271.748C229.158 272.059 229.301 272.372 229.438 272.681Z" fill="url(#paint7_radial)"/>
<path d="M240.319 286.051C240.319 289.366 237.634 292.051 234.319 292.051C231.007 292.051 228.316 289.366 228.316 286.051C228.316 282.738 231.007 280.048 234.319 280.048C237.634 280.048 240.319 282.736 240.319 286.051Z" fill="#4E60A3"/>
<path opacity="0.9" d="M240.319 286.051C240.319 289.366 237.634 292.051 234.319 292.051C231.007 292.051 228.316 289.366 228.316 286.051C228.316 282.738 231.007 280.048 234.319 280.048C237.634 280.048 240.319 282.736 240.319 286.051Z" fill="black"/>
<path opacity="0.5" d="M225.945 293.058C227.09 292.288 228.646 292.599 229.413 293.741C230.181 294.886 229.877 296.442 228.73 297.209C227.582 297.982 226.029 297.676 225.262 296.528C224.494 295.383 224.8 293.825 225.945 293.058Z" fill="url(#paint8_linear)"/>
<path opacity="0.5" d="M239.059 285.214C238.419 286.168 236.588 286.058 234.964 284.969C233.337 283.88 232.541 282.22 233.179 281.269V281.267C233.816 280.313 235.65 280.423 237.272 281.514C238.901 282.6 239.697 284.258 239.059 285.214Z" fill="url(#paint9_linear)"/>
<path opacity="0.75" d="M246.342 282.666C244.894 284.893 241.151 285.025 237.991 282.965C234.829 280.904 233.442 277.431 234.893 275.205C236.341 272.981 240.085 272.849 243.244 274.907C246.404 276.97 247.791 280.445 246.342 282.666Z" fill="url(#paint10_linear)"/>
<path d="M180.879 282.863C182.942 310.655 210.553 342.999 233.169 339.565C259.939 339.835 286.372 319.501 286.372 282.687C286.372 245.873 273.401 215.041 232.499 215.041C203.174 215.038 180.879 246.049 180.879 282.863ZM202.447 281.646C201.156 275.82 215.684 271.515 234.86 273.866C254.031 276.22 267.342 287.953 265.592 293.869C264.623 297.148 238.463 302.143 229.247 301.128C219.904 300.096 205.563 295.715 202.447 281.646Z" fill="#F4BAA3"/>
<path d="M229.248 301.129C238.463 302.143 264.624 297.148 265.593 293.869C267.345 287.953 254.031 276.22 234.86 273.866C218.387 271.847 205.375 274.744 202.842 279.293C205.132 262.973 222.477 250.231 243.609 250.136C266.332 250.042 284.787 264.61 284.848 282.687C284.901 300.761 266.526 315.485 243.806 315.587C221.077 315.681 202.626 301.113 202.564 283.039C202.564 282.771 202.605 282.508 202.613 282.241C206.004 295.825 220.04 300.111 229.248 301.129Z" fill="url(#paint11_radial)"/>
<path d="M202.447 281.647C201.157 275.82 215.684 271.515 234.86 273.866C254.031 276.22 267.342 287.953 265.593 293.869C264.624 297.148 238.463 302.143 229.247 301.129C219.904 300.096 205.563 295.715 202.447 281.647Z" fill="url(#paint12_radial)"/>
<path d="M203.457 268.626C214.187 263.582 227.3 263.118 238.744 266.063C244.874 267.494 251.405 269.34 256.755 272.79C261.714 275.684 265.743 279.165 269.51 283.475C266.088 279.137 262.439 275.524 257.721 272.586C251.917 268.975 245.56 266.736 238.943 265.15C227.249 262.279 214.152 262.932 203.457 268.626Z" fill="#C66C49"/>
<path d="M205.04 270.164C207.284 269.266 215.406 267.614 218.953 267.445C223.255 267.236 231.889 267.764 236.127 268.527C244.731 270.077 259.717 274.858 265.906 286.846C267.808 290.531 266.095 293.109 265.592 293.667C266.357 287.481 253.256 276.465 234.86 274.277C215.684 271.997 201.157 276.172 202.447 281.82C205.563 295.457 219.904 299.703 229.247 300.703C239.7 301.822 259.041 296.778 261.597 296.232C256.499 298.805 242.41 301.575 236.691 302.105C234.794 302.284 230.979 302.37 229.076 302.322C213.907 301.919 203.146 294.226 199.168 283.809C196.612 277.113 199.407 272.413 205.04 270.164Z" fill="black"/>
<path d="M396.494 281.647C397.784 275.82 383.257 271.515 364.081 273.866C344.91 276.22 331.599 287.953 333.349 293.869C334.318 297.148 360.478 302.143 369.694 301.129C379.037 300.096 393.378 295.715 396.494 281.647Z" fill="url(#paint13_radial)"/>
<path d="M380.942 286.05C380.942 294.499 374.09 301.35 365.644 301.35C357.196 301.35 350.342 294.499 350.342 286.05C350.342 277.6 357.196 270.75 365.644 270.75C374.09 270.748 380.942 277.6 380.942 286.05Z" fill="#4E60A3"/>
<path opacity="0.7" d="M363.928 270.919C363.87 270.927 363.808 270.934 363.747 270.942C363.821 271.286 363.895 271.633 363.964 271.977C363.949 271.628 363.941 271.271 363.928 270.919ZM363.961 271.975C364.137 277.003 364.433 281.484 365.282 283.103C365.726 281.328 364.966 276.906 363.961 271.975ZM365.28 283.105C365.173 283.531 365.004 283.822 364.752 283.919C364.494 284.016 364.176 283.904 363.816 283.656C363.918 284.082 363.908 284.414 363.724 284.62C363.541 284.827 363.212 284.878 362.776 284.819C363.061 285.15 363.212 285.454 363.148 285.719C363.077 285.984 362.806 286.183 362.401 286.336C362.804 286.497 363.077 286.696 363.14 286.961C363.204 287.226 363.059 287.53 362.771 287.859C363.204 287.805 363.536 287.861 363.714 288.068C363.895 288.274 363.905 288.608 363.803 289.034C364.163 288.787 364.482 288.68 364.734 288.779C364.994 288.876 365.157 289.167 365.259 289.595C365.463 289.208 365.698 288.96 365.971 288.932C366.239 288.896 366.524 289.083 366.81 289.412C366.815 288.973 366.904 288.649 367.136 288.494C367.358 288.338 367.695 288.369 368.103 288.527C367.904 288.139 367.837 287.81 367.96 287.565C368.09 287.323 368.404 287.193 368.84 287.142C368.48 286.89 368.258 286.632 368.266 286.357C368.263 286.081 368.48 285.824 368.845 285.576C368.409 285.523 368.103 285.393 367.973 285.15C367.845 284.908 367.917 284.577 368.118 284.189C367.707 284.342 367.376 284.373 367.149 284.217C366.922 284.062 366.833 283.738 366.83 283.299C366.547 283.626 366.259 283.807 365.989 283.771C365.716 283.735 365.484 283.496 365.28 283.105ZM366.83 283.297C368.052 281.932 369.434 277.664 370.831 272.831C368.656 277.363 366.835 281.466 366.83 283.297ZM370.831 272.831C370.984 272.52 371.14 272.204 371.288 271.888C371.234 271.87 371.181 271.845 371.127 271.822C371.028 272.161 370.931 272.5 370.831 272.831ZM368.121 284.189C369.837 283.547 373.047 280.407 376.53 276.781C372.496 279.78 368.975 282.567 368.121 284.189ZM376.53 276.781C376.785 276.59 377.045 276.399 377.308 276.208C377.27 276.162 377.232 276.123 377.201 276.083C376.977 276.312 376.755 276.549 376.53 276.781ZM368.842 285.576C370.66 285.801 374.96 284.513 379.733 282.922C374.766 283.707 370.354 284.536 368.842 285.576ZM379.733 282.924C380.014 282.884 380.307 282.838 380.593 282.792C380.58 282.743 380.57 282.695 380.557 282.646C380.284 282.738 380.003 282.833 379.733 282.924ZM368.837 287.139C370.344 288.19 374.748 289.044 379.708 289.85C374.949 288.236 370.658 286.923 368.837 287.139ZM379.708 289.85C379.95 289.934 380.192 290.021 380.434 290.1C380.447 290.057 380.457 290.016 380.468 289.973C380.218 289.934 379.958 289.893 379.708 289.85ZM368.103 288.524C368.949 290.148 372.458 292.956 376.472 295.98C373.009 292.334 369.819 289.177 368.103 288.524ZM376.474 295.975C376.625 296.133 376.778 296.297 376.928 296.457C376.954 296.427 376.979 296.404 377.007 296.376C376.829 296.243 376.645 296.108 376.474 295.975ZM366.817 289.409C366.81 291.242 368.608 295.353 370.762 299.897C369.385 295.06 368.031 290.781 366.817 289.409ZM370.762 299.9C370.816 300.091 370.872 300.287 370.923 300.484C370.961 300.468 370.989 300.458 371.022 300.448C370.936 300.264 370.846 300.076 370.762 299.9ZM365.262 289.593C364.405 291.217 364.086 295.687 363.88 300.713C364.91 295.792 365.698 291.372 365.262 289.593ZM363.88 300.713C363.836 300.904 363.801 301.098 363.76 301.295C363.796 301.302 363.821 301.302 363.859 301.307C363.865 301.111 363.875 300.907 363.88 300.713ZM363.803 289.032C362.284 290.069 359.925 293.887 357.408 298.237C360.608 294.361 363.36 290.811 363.803 289.032ZM357.408 298.237C357.275 298.398 357.135 298.569 356.997 298.729C357.031 298.75 357.059 298.765 357.092 298.79C357.196 298.607 357.306 298.421 357.408 298.237ZM362.771 287.861C360.945 288.073 357.084 290.355 352.833 293.035C357.469 291.092 361.549 289.233 362.771 287.861ZM352.833 293.04C352.611 293.132 352.387 293.224 352.163 293.321C352.178 293.354 352.198 293.39 352.221 293.423C352.425 293.298 352.629 293.168 352.833 293.04ZM362.401 286.339C360.687 285.683 356.204 285.91 351.191 286.311C356.202 286.739 360.682 286.986 362.401 286.339ZM351.191 286.311C350.921 286.285 350.638 286.26 350.37 286.237C350.367 286.285 350.362 286.334 350.367 286.38C350.645 286.354 350.923 286.331 351.191 286.311ZM362.776 284.824C361.567 283.45 357.5 281.568 352.877 279.594C357.107 282.297 360.958 284.602 362.776 284.824ZM352.877 279.594C352.611 279.423 352.341 279.252 352.073 279.081C352.05 279.13 352.025 279.178 352.002 279.222C352.295 279.347 352.594 279.469 352.877 279.594ZM363.816 283.656C363.385 281.876 360.652 278.316 357.479 274.418C359.968 278.783 362.306 282.611 363.816 283.656ZM357.479 274.418C357.309 274.124 357.14 273.826 356.974 273.528C356.926 273.561 356.875 273.594 356.829 273.627C357.046 273.89 357.268 274.155 357.479 274.418Z" fill="url(#paint14_radial)"/>
<path opacity="0.4" d="M367.901 270.97C367.84 270.962 367.782 270.952 367.723 270.944C367.702 271.296 367.682 271.651 367.662 272C367.736 271.658 367.82 271.312 367.901 270.97ZM367.659 271.997C366.529 276.899 365.652 281.302 366.053 283.09C366.945 281.489 367.353 277.021 367.659 271.997ZM366.053 283.09C365.838 283.472 365.601 283.71 365.331 283.738C365.061 283.763 364.78 283.574 364.497 283.24C364.487 283.676 364.39 283.998 364.158 284.148C363.928 284.299 363.594 284.263 363.189 284.095C363.38 284.49 363.446 284.821 363.314 285.059C363.176 285.298 362.865 285.421 362.432 285.461C362.783 285.719 362.993 285.982 362.985 286.257C362.98 286.53 362.758 286.785 362.398 287.027C362.832 287.088 363.135 287.229 363.258 287.471C363.38 287.716 363.304 288.045 363.095 288.427C363.508 288.282 363.842 288.261 364.064 288.422C364.285 288.583 364.37 288.907 364.357 289.348C364.655 289.029 364.941 288.848 365.216 288.891C365.484 288.927 365.711 289.179 365.905 289.575C366.022 289.149 366.193 288.863 366.455 288.771C366.713 288.68 367.032 288.797 367.381 289.054C367.292 288.629 367.31 288.292 367.496 288.091C367.679 287.889 368.016 287.846 368.452 287.907C368.172 287.57 368.024 287.267 368.1 287.002C368.169 286.736 368.447 286.543 368.863 286.397C368.457 286.234 368.192 286.028 368.128 285.76C368.072 285.492 368.225 285.191 368.521 284.87C368.082 284.911 367.751 284.855 367.578 284.645C367.399 284.436 367.394 284.1 367.509 283.679C367.144 283.919 366.823 284.021 366.57 283.916C366.31 283.812 366.147 283.518 366.053 283.09ZM367.501 283.679C369.034 282.674 371.471 278.908 374.075 274.606C370.798 278.418 367.978 281.907 367.501 283.679ZM374.075 274.604C374.302 274.343 374.534 274.078 374.761 273.811C374.71 273.777 374.667 273.739 374.618 273.703C374.437 274.007 374.256 274.31 374.075 274.604ZM368.516 284.872C370.339 284.694 374.251 282.491 378.555 279.892C373.881 281.746 369.758 283.526 368.516 284.872ZM378.553 279.89C378.848 279.772 379.149 279.655 379.455 279.538C379.43 279.484 379.402 279.436 379.384 279.387C379.109 279.556 378.833 279.727 378.553 279.89ZM368.853 286.4C370.551 287.088 375.039 286.956 380.062 286.657C375.057 286.127 370.584 285.785 368.853 286.4ZM380.06 286.655C380.343 286.688 380.636 286.719 380.924 286.749C380.927 286.698 380.927 286.65 380.929 286.601C380.641 286.619 380.345 286.637 380.06 286.655ZM368.447 287.909C369.628 289.315 373.664 291.278 378.244 293.338C374.065 290.546 370.26 288.17 368.447 287.909ZM378.242 293.338C378.451 293.484 378.667 293.629 378.879 293.767C378.902 293.729 378.925 293.69 378.94 293.652C378.713 293.553 378.474 293.446 378.242 293.338ZM367.379 289.057C367.774 290.845 370.436 294.463 373.532 298.426C371.127 294.004 368.868 290.128 367.379 289.057ZM373.534 298.418C373.639 298.609 373.743 298.808 373.85 299.002C373.881 298.979 373.909 298.961 373.945 298.941C373.807 298.767 373.664 298.589 373.534 298.418ZM365.905 289.577C365.425 291.344 366.098 295.781 367.001 300.728C366.922 295.7 366.723 291.217 365.905 289.577ZM366.999 300.728C367.001 300.927 367.006 301.131 367.006 301.335C367.045 301.33 367.073 301.325 367.108 301.325C367.075 301.129 367.037 300.925 366.999 300.728ZM364.354 289.35C363.107 290.697 361.641 294.932 360.142 299.734C362.411 295.248 364.316 291.184 364.354 289.35ZM360.142 299.734C360.052 299.907 359.966 300.086 359.876 300.264C359.907 300.28 359.933 300.287 359.966 300.302C360.024 300.116 360.086 299.92 360.142 299.734ZM363.092 288.432C361.358 289.042 358.091 292.12 354.534 295.669C358.63 292.752 362.205 290.036 363.092 288.432ZM354.534 295.669C354.363 295.789 354.182 295.919 354.012 296.039C354.037 296.067 354.063 296.09 354.085 296.12C354.231 295.97 354.386 295.822 354.534 295.669ZM362.398 287.032C360.58 286.767 356.263 287.971 351.459 289.46C356.442 288.782 360.863 288.042 362.398 287.032ZM351.459 289.465C351.222 289.498 350.98 289.526 350.737 289.564C350.748 289.603 350.758 289.641 350.77 289.677C351 289.61 351.229 289.534 351.459 289.465ZM362.432 285.469C360.947 284.39 356.559 283.45 351.615 282.539C356.342 284.25 360.606 285.65 362.432 285.469ZM351.615 282.539C351.357 282.445 351.092 282.348 350.837 282.254C350.821 282.302 350.809 282.348 350.799 282.391C351.074 282.44 351.349 282.491 351.615 282.539ZM363.189 284.1C362.378 282.46 358.933 279.589 354.978 276.485C358.367 280.196 361.491 283.419 363.189 284.1ZM354.978 276.488C354.766 276.256 354.552 276.021 354.338 275.787C354.3 275.828 354.267 275.866 354.228 275.904C354.481 276.098 354.738 276.292 354.978 276.488ZM364.497 283.243C364.54 281.412 362.824 277.266 360.764 272.681C362.041 277.541 363.309 281.843 364.497 283.243ZM360.764 272.681C360.677 272.355 360.593 272.02 360.504 271.689C360.45 271.707 360.394 271.727 360.343 271.748C360.483 272.059 360.626 272.372 360.764 272.681Z" fill="url(#paint15_radial)"/>
<path d="M371.644 286.051C371.644 289.366 368.957 292.051 365.644 292.051C362.329 292.051 359.642 289.366 359.642 286.051C359.642 282.738 362.332 280.048 365.644 280.048C368.962 280.048 371.644 282.736 371.644 286.051Z" fill="#4E60A3"/>
<path opacity="0.9" d="M371.644 286.051C371.644 289.366 368.957 292.051 365.644 292.051C362.329 292.051 359.642 289.366 359.642 286.051C359.642 282.738 362.332 280.048 365.644 280.048C368.962 280.048 371.644 282.736 371.644 286.051Z" fill="black"/>
<path opacity="0.5" d="M357.272 293.058C358.415 292.288 359.973 292.599 360.738 293.741C361.508 294.886 361.204 296.442 360.054 297.209C358.907 297.982 357.354 297.676 356.589 296.528C355.819 295.383 356.125 293.825 357.272 293.058Z" fill="url(#paint16_linear)"/>
<path opacity="0.5" d="M370.383 285.214C369.743 286.168 367.912 286.058 366.29 284.969C364.663 283.88 363.867 282.22 364.505 281.269L364.508 281.267C365.145 280.313 366.978 280.423 368.6 281.514C370.227 282.6 371.023 284.258 370.383 285.214Z" fill="url(#paint17_linear)"/>
<path opacity="0.75" d="M377.67 282.666C376.219 284.893 372.478 285.025 369.316 282.965C366.156 280.904 364.767 277.431 366.218 275.205C367.666 272.981 371.407 272.849 374.569 274.907C377.728 276.97 379.116 280.445 377.67 282.666Z" fill="url(#paint18_linear)"/>
<path d="M366.44 215.038C325.538 215.038 312.566 245.87 312.566 282.684C312.566 319.499 339 339.835 365.77 339.562C388.386 342.997 415.997 310.653 418.06 282.86C418.062 246.049 395.765 215.038 366.44 215.038ZM369.694 301.129C360.478 302.144 334.318 297.148 333.349 293.869C331.597 287.953 344.911 276.22 364.081 273.867C383.257 271.515 397.785 275.822 396.495 281.647C393.378 295.715 379.037 300.096 369.694 301.129Z" fill="#F4BAA3"/>
<path d="M369.694 301.129C360.478 302.143 334.318 297.148 333.349 293.869C331.597 287.953 344.911 276.22 364.081 273.866C380.554 271.847 393.567 274.746 396.099 279.293C393.809 262.973 376.464 250.231 355.332 250.136C332.609 250.042 314.155 264.61 314.094 282.687C314.04 300.761 332.416 315.485 355.136 315.587C377.864 315.681 396.316 301.113 396.377 283.039C396.377 282.771 396.336 282.508 396.329 282.241C392.935 295.825 378.9 300.111 369.694 301.129Z" fill="url(#paint19_radial)"/>
<path d="M396.494 281.647C397.784 275.82 383.257 271.515 364.081 273.866C344.91 276.22 331.599 287.953 333.349 293.869C334.318 297.148 360.478 302.143 369.694 301.129C379.037 300.096 393.378 295.715 396.494 281.647Z" fill="url(#paint20_radial)"/>
<path d="M395.482 268.626C384.752 263.583 371.64 263.118 360.195 266.064C354.065 267.494 347.535 269.34 342.185 272.791C337.225 275.685 333.196 279.166 329.43 283.475C332.852 279.138 336.501 275.524 341.218 272.587C347.022 268.976 353.379 266.737 359.997 265.151C371.693 262.28 384.79 262.932 395.482 268.626Z" fill="#C66C49"/>
<path d="M393.901 270.164C391.657 269.266 383.535 267.614 379.988 267.445C375.687 267.236 367.052 267.764 362.814 268.527C354.21 270.077 339.224 274.858 333.035 286.846C331.133 290.531 332.847 293.109 333.349 293.667C332.584 287.481 345.686 276.465 364.081 274.277C383.257 271.997 397.785 276.172 396.495 281.82C393.378 295.457 379.037 299.703 369.694 300.703C359.242 301.822 339.9 296.778 337.345 296.232C342.442 298.805 356.531 301.575 362.251 302.105C364.148 302.284 367.963 302.37 369.865 302.322C385.035 301.919 395.796 294.226 399.774 283.809C402.329 277.113 399.534 272.413 393.901 270.164Z" fill="black"/>
<path d="M404.529 361.847C404.619 419.533 357.885 466.381 300.137 466.46C242.4 466.555 195.516 419.864 195.427 362.165C195.338 304.484 242.071 257.452 299.816 257.36C357.556 257.271 404.445 304.153 404.529 361.847Z" fill="url(#paint21_radial)"/>
<path d="M395.604 208.911C395.604 261.724 352.792 304.536 299.982 304.536C247.169 304.536 204.354 261.724 204.354 208.911C204.354 156.098 247.169 113.286 299.982 113.286C352.792 113.286 395.604 156.098 395.604 208.911Z" fill="url(#paint22_radial)"/>
<path d="M182.68 260.395C208.062 234.961 225.42 245.312 260.682 252.072C262.836 252.485 276.798 255.996 274.222 260.918C272.99 263.274 269.03 262.993 266.819 262.953C231.915 262.3 214.942 237.465 182.68 260.395Z" fill="#2A232B"/>
<path d="M417.279 260.395C391.899 234.961 374.539 245.312 339.277 252.072C337.12 252.485 323.161 255.996 325.734 260.918C326.966 263.274 330.926 262.993 333.137 262.953C368.041 262.3 385.017 237.465 417.279 260.395Z" fill="#2A232B"/>
<path d="M277.323 365.735C275.084 370.998 292.454 376.68 299.046 377.029C306.186 377.404 326.194 369.634 322.802 364.299C319.235 358.702 305.862 363.57 300.092 363.57C294.349 363.567 280.322 358.712 277.323 365.735Z" fill="#E59E82"/>
<path d="M304.715 369.71C304.128 367.775 309.499 365.671 311.49 365.391C314.298 364.983 320.058 367.436 319.543 369.45C319.074 371.23 314.066 368.091 312.25 368.356C310.378 368.629 305.271 371.523 304.715 369.71ZM287.163 369.08C289.632 369.08 293.293 370.669 293.967 369.269C294.77 367.599 288.512 365.544 286.674 365.771C285.154 365.949 279.705 369.124 280.454 370.46C281.153 371.687 283.909 369.08 287.163 369.08Z" fill="#C66C49"/>
<path opacity="0.2" d="M300.206 356.81C301.754 356.81 304.648 354.923 304.776 351.124C305.288 335.803 302.338 290.35 300.206 290.51C298.217 290.661 294.425 335.485 295.239 351.124C295.44 354.954 298.459 356.81 300.206 356.81Z" fill="#FFE7DD"/>
<path d="M301.458 532.202C288.938 532.176 283.838 525.317 276.774 515.831C272.669 510.297 268.002 504.024 260.862 497.496C259.281 496.017 253.977 491.019 252.626 488.342C236.612 485.996 233.73 481.355 227.381 471.231C224.703 466.947 221.388 461.643 216.212 455.141C209.531 446.981 203.946 440.631 198.999 435.021C175.08 407.813 170.082 402.152 156.312 317.364C154.986 309.485 153.507 299.412 153.176 296.607C153.507 296.48 153.839 296.327 154.145 296.148C157.434 296.607 161.897 297.143 169.241 297.653C171.383 311.117 175.335 319.073 179.16 326.774C181.787 332.052 184.515 337.509 186.53 344.624C192.165 363.774 202.773 373.439 213.024 382.797C224.499 393.252 236.331 404.064 240.972 428.213L240.998 428.366L241.151 428.417C251.3 431.247 255.431 437.877 261.041 448.511L261.245 448.919L261.474 448.536C262.775 446.343 263.54 444.762 264.126 443.513C266.141 439.229 266.396 438.693 281.976 430.074C286.107 427.754 288.173 426.198 290.289 424.388L291.182 424.77C293.069 425.484 295.338 425.867 297.812 425.867C300.642 425.867 303.473 425.331 305.258 424.49C307.655 427.856 310.332 428.876 313.698 430.202C318.441 432.038 324.332 434.333 332.645 444.252L332.772 444.405L332.951 444.303C339.861 440.631 344.222 435.174 348.837 429.411C353.631 423.419 358.604 417.222 367.019 411.893C373.139 397.715 381.35 389.223 389.28 380.987C399.149 370.761 409.349 360.179 414.882 338.937C416.259 333.735 423.144 316.395 427.25 306.042C428.78 302.166 429.927 299.285 430.284 298.316C436.761 298.29 442.448 297.296 447.701 296.25C444.768 306.986 444.666 317.007 444.539 327.641C444.386 342.456 444.207 357.756 436.379 376.805C416.82 427.601 406.34 436.628 395.247 446.216C389.229 451.418 383.007 456.773 375.23 469.395C368.523 481.278 363.296 483.854 350.954 485.537L350.801 485.562L350.75 485.715C347.613 496.451 336.623 504.177 324.995 512.363C317.472 517.641 309.695 523.124 303.881 529.626C303.753 529.754 303.524 530.034 303.243 530.34C302.733 530.952 301.866 531.947 301.458 532.202Z" fill="#2A232B"/>
<path d="M403.816 419.39C388.516 444.89 368.83 448.613 358.63 476.663C358.63 466.463 356.08 461.363 353.53 451.163C336.623 514.581 320.38 494.513 305.08 517.463C307.63 509.813 302.53 502.163 302.53 494.513C302.53 502.163 297.43 509.813 297.43 517.463C297.43 504.713 289.78 497.063 284.68 486.863C287.23 499.613 292.33 507.263 292.33 520.013C275.015 490.663 257.573 486.302 243.88 461.363C243.88 466.463 243.88 474.113 243.88 479.213C208.154 408.553 181.532 422.323 154.222 305.788C154.783 309.485 155.446 313.693 156.058 317.416C172.684 419.671 176.917 407.354 216.059 455.294C233.374 477.046 229.702 485.257 252.422 488.444C253.697 491.02 258.593 495.737 260.71 497.675C280.472 515.78 281.696 532.457 301.535 532.457C302.147 532.151 303.652 530.264 304.136 529.779C318.799 513.383 345.829 503.693 351.056 485.792C363.194 484.109 368.677 481.61 375.511 469.523C397.135 434.384 406.162 456.11 436.66 376.907C445.457 355.513 444.616 335.393 444.896 316.829C435.461 361.607 420.875 389.912 403.816 419.39Z" fill="#1B141C"/>
<path d="M430.131 298.086C429.264 300.636 416.616 331.593 414.678 338.886C404.733 376.958 380.559 379.89 366.917 411.689C350.163 422.271 346.721 436.704 332.849 444.074C318.518 426.912 311.046 432.369 305.36 424.158C302.351 425.714 295.823 426.275 291.335 424.515H291.309C290.952 424.362 290.621 424.235 290.264 424.082C288.249 425.841 286.184 427.397 281.874 429.845C261.729 440.988 267.11 438.642 261.27 448.409C256.043 438.515 251.81 431.145 241.227 428.187C232.481 382.44 198.719 385.143 186.785 344.573C181.863 327.105 173.066 320.348 169.47 297.423C169.47 297.423 168.833 297.066 168.859 299.718C170.644 315.095 181.991 350.769 193.262 367.319C208.613 390.09 230.721 394.298 239.85 429.207C255.711 434.205 257.777 446.904 260.48 451.265C258.669 458.787 260.123 469.625 267.059 476.561C267.059 476.561 265.809 474.852 265.529 474.266C262.673 469.599 261.525 463.683 261.78 458.277C262.749 440.3 272.414 438.438 282.869 431.528C284.118 430.712 290.06 426.428 290.621 425.229C294.93 427.524 300.77 427.167 305.156 425.586C305.207 425.637 305.258 425.714 305.283 425.79C312.525 434.333 318.467 430.38 330.987 445.145C336.623 451.035 334.557 455.6 334.557 467.457C335.985 461.031 337.847 450.857 334.353 446.063C347.358 440.019 357.533 418.242 368.931 411.969C383.696 382.415 408.15 378.156 417.917 339.728C422.634 321.776 426.765 318.384 431.355 298.877C431.483 297.78 430.131 298.086 430.131 298.086ZM447.14 296.301C438.801 315.707 444.513 341.564 431.024 374.816C399.557 456.492 389.994 429.692 370.92 469.701C367.197 478.422 360.746 481.89 351.668 483.854C353.784 475.158 353.325 476.076 353.453 468.86C349.602 502.265 327.137 502.622 306.584 523.098C303.83 526.133 300.54 530.417 300.54 530.417C285.903 530.417 277.259 508.614 267.059 499.766C257.445 491.427 250.688 488.469 248.877 475.872C248.877 478.422 248.775 481.941 251.427 486.812C232.761 483.14 235.056 472.634 220.113 451.851C199.688 424.005 181.685 414.086 173.397 376.575C170.746 364.565 154.222 299.514 154.069 295.919C154.043 295.919 154.043 295.944 154.018 295.944C153.661 296.148 153.278 296.301 152.896 296.454C153.176 299.004 154.706 309.383 156.058 317.415C172.684 419.67 176.916 407.354 216.059 455.294C233.373 477.045 229.701 485.256 252.422 488.444C253.697 491.019 258.593 495.737 260.709 497.675C280.472 515.78 281.696 532.457 301.535 532.457C302.147 532.151 303.651 530.264 304.136 529.779C318.798 513.383 345.828 503.693 351.056 485.792C363.194 484.109 368.676 481.61 375.51 469.523C397.134 434.384 406.161 456.11 436.659 376.907C450.2 343.986 440.867 321.75 448.083 295.944L447.14 296.301Z" fill="black"/>
<path d="M355.671 409.062C318.747 404.6 327.953 403.121 311.378 402.458C308.751 402.356 306.609 400.571 306.023 398.097C305.538 395.981 304.467 390.396 305.232 384.123C311.99 384.939 342.003 391.365 349.016 396.057C354.753 399.984 354.906 404.625 355.671 409.062ZM250.943 396.057C258.134 391.238 289.422 384.684 294.395 384.174V384.149C294.522 384.123 294.624 384.123 294.701 384.123C295.466 390.396 294.42 395.981 293.91 398.097C292.482 404.166 285.98 401.795 279.426 403.223C248.418 409.674 256.4 407.609 244.262 409.062C245.052 404.625 245.205 399.984 250.943 396.057Z" fill="#2A232B"/>
<path d="M294.93 383.843C295.619 389.172 295.032 394.476 294.165 398.148C293.553 400.724 291.309 402.585 288.683 402.687C285.47 402.815 281.772 402.968 279.503 403.452C248.291 409.955 256.629 407.787 243.981 409.343C244.007 409.266 244.007 409.164 244.032 409.088C245.256 407.915 246.429 407.303 246.429 407.303C263.208 395.318 291.233 405.849 294.548 383.868C294.701 383.868 294.854 383.843 294.93 383.843ZM305.028 383.843C304.34 389.172 304.926 394.476 305.793 398.148C306.405 400.724 308.649 402.585 311.276 402.687C314.489 402.815 318.186 402.968 320.456 403.452C351.668 409.955 343.329 407.787 355.977 409.343C355.952 409.266 355.952 409.164 355.926 409.088C354.702 407.915 353.529 407.303 353.529 407.303C336.75 395.318 308.726 405.849 305.411 383.868C305.258 383.868 305.105 383.843 305.028 383.843ZM258.848 396.593C256.196 396.695 255.507 397.052 253.85 398.174C253.722 398.301 251.274 400.52 251.453 400.52C250.662 401.412 249.081 403.682 248.316 404.702C252.473 401.234 253.416 397.893 258.848 396.593ZM268.079 397.383C279.146 393.507 283.455 389.453 291.36 386.546C284.169 390.983 278.1 396.057 268.079 397.383ZM259.791 398.99C265.452 395.19 270.042 393.201 274.454 391.34C271.904 392.946 267.059 396.159 259.791 398.99ZM280.191 396.108C282.741 394.017 285.776 393.737 288.479 391.646C285.699 394.502 283.506 394.349 280.191 396.108ZM341.111 396.593C343.763 396.695 344.451 397.052 346.109 398.174C346.236 398.301 348.684 400.52 348.506 400.52C349.296 401.412 350.877 403.682 351.642 404.702C347.486 401.234 346.542 397.893 341.111 396.593ZM308.598 386.546C316.478 389.453 320.787 393.507 331.88 397.383C321.858 396.057 315.789 390.983 308.598 386.546ZM325.505 391.34C329.916 393.201 334.506 395.19 340.167 398.99C332.9 396.159 328.055 392.946 325.505 391.34ZM311.48 391.646C314.183 393.737 317.217 394.017 319.767 396.108C316.452 394.349 314.259 394.502 311.48 391.646Z" fill="#1B141C"/>
<path d="M349.169 395.853C341.672 390.83 309.873 384.353 305.819 383.97V383.945C305.615 383.919 305.181 383.868 305.028 383.868C304.34 389.198 304.926 394.502 305.793 398.174C306.405 400.749 308.649 402.611 311.276 402.713C314.489 402.84 318.186 402.993 320.456 403.478C351.668 409.98 343.329 407.813 355.977 409.368C355.136 404.778 355.161 399.933 349.169 395.853ZM320.813 401.82C318.492 401.412 315.407 401.489 312.143 401.616C310.23 401.693 308.522 400.418 308.037 398.582C307.4 396.236 306.66 392.921 305.921 384.761C311.276 385.832 320.66 389.3 326.576 390.855C347.715 395.981 350.571 396.771 354.6 408.272C354.498 408.221 320.915 401.82 320.813 401.82ZM243.981 409.343C256.629 407.813 248.291 409.955 279.503 403.452C281.772 402.968 285.47 402.815 288.683 402.687C291.335 402.585 293.579 400.724 294.165 398.148C295.007 394.476 295.619 389.172 294.93 383.843C294.777 383.843 294.344 383.919 294.14 383.919V383.945C290.085 384.353 258.287 390.83 250.79 395.828C244.797 399.933 244.823 404.778 243.981 409.343ZM245.358 408.272C249.387 396.771 252.243 395.981 273.383 390.855C279.299 389.3 288.683 385.832 294.038 384.761C293.298 392.921 292.559 396.236 291.921 398.582C291.411 400.418 289.728 401.667 287.816 401.616C284.552 401.514 281.466 401.438 279.146 401.82C279.044 401.82 245.46 408.221 245.358 408.272Z" fill="black"/>
<path d="M435.086 322.653C423.45 290.944 436.914 242.313 414.163 206.335C403.8 189.092 394.791 177.242 396.441 157.181L395.502 156.865C393.304 160.312 390.418 164.056 388.503 166.453C389.591 163.671 391.366 159.41 392.973 156.194L392.126 155.638C385.534 163.474 379.873 167.493 372.086 169.663C380.501 163.747 389.806 153.453 393.878 147.746L393.187 147.022C364.324 165.593 331.569 165.846 302.672 166.073C276.593 166.267 260.396 165.678 241.592 154.748C228.024 159.246 217.339 158.673 205.596 150.579C168.841 221.844 185.171 186.169 163.197 318.277C150.437 301.269 146.73 290.452 143.71 274.246C142.912 269.077 142.132 261.104 142.616 255.848L142.456 255.682C131.103 230.769 125.746 216.583 128.444 167.167C130.445 146.665 134.903 131.273 147.757 115.152C146.061 106.393 145.898 97.562 147.051 89.1164C140.319 76.8075 135.686 64.1391 133.88 59.6129C143.285 66.8115 144.062 67.2272 151.909 69.7032C153.704 64.7639 156.32 59.8577 157.995 57.2975C158.753 63.0044 159.355 66.86 161.063 72.4062C161.645 72.5465 164.411 73.2962 165.296 73.5333C164.789 70.1571 164.325 68.5914 164.396 65.5646C165.852 68.8847 167.081 69.6548 171.306 74.8109C175.983 75.7926 174.861 75.6473 176.264 75.6473C169.458 64.9806 164.865 55.5406 163.7 41.1841C173.015 46.4906 186.048 49.5226 199.657 49.5226C231.632 49.5226 264.348 25.522 309.738 25.522C349.072 25.522 383.104 47.3449 398.18 72.1946C398.165 65.7839 397.892 60.4799 400.205 53.8907C400.205 53.8907 400.472 63.3384 400.472 70.7003L401.482 70.7946C403.063 62.3771 406.398 55.2014 411.906 48.4235C407.016 61.5764 408.877 54.5537 403.405 70.6136L404.292 71.0904C407.941 66.401 410.93 63.086 419.641 58.6924C413.347 64.9985 408.535 68.6118 405.56 73.0718L406.327 73.7322C410.04 70.3662 413.903 69.0912 417.833 72.1691C411.506 69.869 407.77 73.9005 403.43 78.9903C420.309 81.7724 429.466 91.5108 441.333 104.529C468.649 136.026 475.843 166.777 461.027 210.369C467.236 223.789 466.28 254.038 452.421 278.418C452.416 292.724 442.629 310.375 435.086 322.653Z" fill="#2A232B"/>
<path d="M203.842 148.659C204.758 149.511 205.673 150.362 206.581 151.219C206.252 151.002 205.923 150.801 205.591 150.574C168.836 221.839 185.166 186.164 163.193 318.272C150.432 301.264 146.725 290.447 143.705 274.241C142.907 269.072 142.127 261.099 142.612 255.843L142.451 255.677C131.098 230.764 125.741 216.578 128.439 167.162C130.44 146.66 134.898 131.268 147.752 115.147C146.085 106.533 145.916 97.8528 147.005 89.5347C148.528 91.7634 150.124 93.9334 151.756 96.0754C152.855 102.767 153.786 109.292 152.08 114.563C127.755 189.732 141.88 224.213 157.18 277.763C150.896 237.139 138.968 185.491 171.508 155.363C157.608 188.758 161.446 203.9 164.83 226.763C167.168 196.372 178.077 168.103 203.842 148.659ZM441.331 104.516C440.372 103.465 439.439 102.445 438.511 101.438C437.537 102.088 436.537 102.685 435.555 103.317C473.693 181.503 437.07 173.996 445.799 208.91C455.996 234.41 442.78 249.713 442.78 275.213C442.78 236.963 441.043 210.343 419.931 180.417C412.802 170.311 410.8 135.988 405.996 119.028C346.831 155.363 259.185 162.964 167.165 89.5296C210.515 104.83 298.87 92.9721 329.2 73.4238C294.627 79.6994 222.452 80.0742 189.996 66.7148C267.771 60.6713 266.83 35.7068 333.13 31.0148C301.255 19.1139 231.629 49.5125 199.658 49.5125C186.051 49.5125 173.018 46.4831 163.7 41.174C164.865 55.5305 169.458 64.9731 176.264 75.6372C174.859 75.6372 175.983 75.7826 171.307 74.8008C167.079 69.6447 165.85 68.8721 164.396 65.5545C164.322 68.5814 164.789 70.1471 165.296 73.5233C164.411 73.2861 161.642 72.5364 161.063 72.3962C159.355 66.8499 158.753 62.9943 157.996 57.2874C156.323 59.8476 153.704 64.7538 151.909 69.6932C144.06 67.2171 143.285 66.8015 133.88 59.6028C135.686 64.1291 140.319 76.8 147.051 89.1063C147.033 89.2466 147.028 89.3894 147.01 89.5296C163.088 113.079 185.691 131.531 206.586 151.219C217.944 158.675 228.409 159.114 241.595 154.743C260.398 165.673 276.599 166.262 302.675 166.068C331.572 165.843 364.326 165.588 393.19 147.017L393.881 147.741C389.808 153.448 380.503 163.742 372.088 169.658C379.879 167.486 385.537 163.467 392.129 155.633L392.975 156.189C391.369 159.407 389.594 163.666 388.505 166.448C390.42 164.051 393.307 160.307 395.505 156.86L396.443 157.176C394.796 177.239 403.803 189.087 414.166 206.33C436.917 242.308 423.456 290.941 435.089 322.648C442.632 310.37 452.418 292.721 452.418 278.4C466.278 254.02 467.234 223.772 461.025 210.351C475.84 166.764 468.647 136.014 441.331 104.516ZM443.2 169.921C442.359 145.635 426.286 114.81 426.286 114.81C418.774 101.54 412.06 95.2085 400.796 92.6381C432.483 94.2165 444.927 141.544 443.557 166.269C443.427 168.564 443.2 169.921 443.2 169.921ZM371.142 67.3701C379.514 74.1608 381.513 76.0988 389.747 87.5381C347.282 11.3212 263.948 68.9996 237.596 67.1381C264.384 72.6741 324.952 33.4985 371.142 67.3701ZM392.72 100.5C341.82 142.697 264.099 124.822 200.53 104.898C263.838 133.894 344.439 149.585 392.72 100.5ZM192.546 146.4C175.871 155.133 168.025 177.127 167.301 191.662C170.414 179.119 179.757 156.105 192.546 146.4ZM171.508 134.287C147.643 148.82 143.014 182.153 145.371 210.15C147.88 184.288 152.541 150.543 171.508 134.287ZM343.493 102.68C340.927 103.228 324.982 105.414 316.279 105.727C309.494 106.122 283.035 106.564 259.182 105.605C283.802 110.881 298.59 111.862 316.547 110.82C337.217 110.072 355.715 105.98 371.043 93.4898C360.244 99.4338 355.641 100.28 343.493 102.68ZM429.032 170.37C429.032 170.37 428.38 169.245 427.533 167.56C425.21 163.666 422.573 153.073 412.391 119.783C419.954 181.48 432.325 170.227 437.868 202.104C437.871 190.64 437.07 184.762 429.032 170.37Z" fill="#1B141C"/>
<path d="M447.504 244.947C448.432 236.67 448.058 240.464 448.16 235.742C448.94 219.82 439.423 206.47 445.217 187.325C449.945 173.42 452.676 171.24 450.605 147.032C450.302 143.539 449.396 134.859 447.795 131.737C449.978 135.534 451.421 142.562 452.194 146.869C456.496 171.204 452.877 174.899 448.315 188.35C442.221 208.673 453.917 217.639 447.504 244.947ZM405.995 119.028C408.844 196.472 424.549 178.484 438.424 225.496C429.004 170.044 420.291 216.017 405.995 119.028ZM168.32 158.512C144.886 187.998 147.252 209.255 153.02 252.862C152.5 208.722 147.12 191.968 168.32 158.512ZM151.498 116.384C138.049 157.997 135.104 176.778 141.561 221.661C140.365 176.663 140.65 166.731 151.498 116.384ZM202.957 149.348C178.4 166.991 165.581 199.267 164.829 226.763C168.608 200.485 182.71 167.341 202.957 149.348ZM373.559 133.928C342.829 145.242 292.809 148.272 256.29 137.299C227.829 128.999 183.391 101.107 159.487 83.568C181.157 100.819 219.338 126.426 245.998 136.547C273.699 146.897 317.11 150.743 350.755 142.272C374.337 136.345 386.559 130.746 405.995 119.031C397.343 123.774 384.598 130.48 373.559 133.928ZM307.152 41.6486C338.178 35.8218 374.75 55.8215 393.998 79.465C373.86 50.6042 340.863 36.2451 321.165 35.9034C288.833 35.3424 255.387 63.0431 189.995 65.4375C251.483 68.1456 281.04 45.8765 307.152 41.6486ZM331.52 74.3625C287.433 90.0271 253.388 93.7756 207.062 96.2415C254.908 99.1867 289.114 94.5457 331.52 74.3625ZM377.846 83.2952C350.658 96.114 338.754 98.2152 282.637 101.632C317.819 103.053 350.686 101.224 377.846 83.2952ZM287.862 122.272C315.004 125.426 362.548 122.004 386.345 97.3125C357.607 121.522 304.442 120.655 262.976 119.008C278.847 121.484 275.984 121.071 287.862 122.272ZM404.195 98.5875C423.649 105.75 428.392 139.88 436.07 167.437C432.635 143.011 426.768 103.886 404.195 98.5875Z" fill="#3A353A"/>
<path d="M441.706 104.172C430.618 92.0109 420.663 81.2983 404.399 78.6208C409.739 72.3402 413.493 70.0044 420.337 73.9033C416.282 69.1323 411.624 68.227 405.98 73.3423C409.221 68.4846 414.824 64.5193 422.045 56.9458C411.256 62.0076 408.013 65.4628 403.889 70.7668C409.716 53.6742 407.204 62.7904 413.375 45.9043C406.926 53.1361 402.803 61.0003 400.985 70.6903C400.985 55.6377 400.513 57.5833 400.806 51.0043C397.27 58.8813 397.673 65.8198 397.673 70.3588C391.978 60.9697 383.612 53.0188 374.592 46.5163C310.705 -0.12059 246.993 42.8035 212.464 47.9953C198.467 50.3592 177.493 48.8572 163.121 40.2433C164.136 54.9415 168.688 64.7029 175.336 75.1273C175.333 75.1273 171.587 74.3368 171.587 74.3368C166.439 68.1301 165.941 68.329 164.039 63.2953C163.552 67.791 164.297 70.2823 164.677 72.8323C163.407 72.5008 162.236 72.1489 161.464 71.9653C159.569 65.8096 159.021 61.1278 158.327 55.9258C156.761 57.9276 153.426 64.0348 151.595 69.0583C143.948 66.6409 143.399 66.2559 132.649 58.0168C133.924 60.5668 138.537 74.4924 146.521 89.2033C145.322 98.215 145.684 107.206 147.209 115.009C134.395 131.105 129.946 146.492 127.931 167.131C125.277 215.732 130.142 229.889 142.033 255.922C142.058 255.948 142.058 255.999 142.084 256.024C141.632 261.05 142.387 269.034 143.206 274.333C146.212 290.48 149.899 301.6 163.376 319.341C163.427 319.392 163.453 319.468 163.504 319.519C172.161 267.581 171.268 266.308 173.117 253.5C182.226 187.934 181.83 197.726 205.783 151.321C215.506 158.023 226.272 160.379 241.534 155.299C252.606 161.735 263.912 166.647 295.237 166.647C326.273 166.259 361.985 167.697 393.462 147.445C388.694 154.131 377.862 165.688 369.339 170.854C378.211 168.977 384.576 165.405 392.519 155.962C390.079 160.846 387.207 168.238 386.985 169.12C387.368 168.661 392.468 162.567 395.936 157.135C394.271 177.395 403.316 189.258 413.735 206.605C436.573 242.721 422.688 292.084 434.976 323.803C442.856 311.063 452.928 292.984 452.928 278.541C466.214 255.371 468.116 224.708 461.573 210.328C474.876 170.469 472.189 139.318 441.706 104.172ZM164.292 64.9273C165.536 68.4693 165.809 68.3928 170.641 74.1328C168.244 73.6356 166.65 73.2862 165.21 72.9598C164.651 70.267 164.292 67.7068 164.292 64.9273ZM157.891 58.1443C158.131 62.0509 159.062 67.1764 160.416 71.6848C153.11 69.8055 155.826 70.3996 153.276 69.6448C155.374 63.3361 156.165 61.7398 157.891 58.1443ZM162.277 313.705C151.526 294.312 148.703 287.718 145.728 268.086C145.437 265.826 144.524 259.298 144.478 256.177C129 220.783 123.18 153.575 147.564 116.59C147.564 116.565 147.564 116.565 147.564 116.565C147.564 116.565 148.581 114.974 150.42 112.689C149.739 109.262 149.066 102.03 149.298 94.1248C151.185 97.4908 153.327 100.551 155.239 103.483C155.239 103.476 156.744 105.475 156.744 105.523C168.349 120.288 179.066 132.563 204.99 150.786C173.867 201.209 175.797 184.178 162.277 313.705ZM462.259 194.138C461.351 200.151 459.395 208.375 458.334 211.963C465.423 229.986 457.679 264.026 450.529 279.232C447.403 297.319 444.039 300.96 435.203 318.986C428.887 290.936 441.79 241.163 417.965 204.032C402.515 178.42 395.89 175.064 399.529 143.419C399.529 143.419 399.684 141.698 399.733 141.251C367.532 160.94 331.964 163.166 285.059 162.161C271.501 162.161 253.184 160.458 241.761 153.389C218.604 159.976 210.013 149.725 190.735 134.672C169.919 116.983 155.777 101.538 138.333 65.1339C148.132 73.0848 167.752 77.0908 180.127 79.1589C171.781 68.0332 166.87 57.8689 164.649 43.4589C173.523 49.3749 194.79 55.1965 213.532 53.1234C248.044 49.8823 296.366 14.4476 355.745 41.3169C383.296 53.4727 397.275 70.5807 400.549 79.5669C400.574 79.5669 400.6 79.5924 400.651 79.5924C400.804 79.6434 400.957 79.6689 401.133 79.6944C401.176 79.7403 401.979 79.9239 402.051 79.9239C419.84 85.8526 421.03 86.9593 438.261 107.056C447.946 118.936 471.258 142.654 462.259 194.138Z" fill="black"/>
</g>
<defs>
<linearGradient id="paint0_linear" x1="300" y1="-75" x2="300" y2="675" gradientUnits="userSpaceOnUse">
<stop stop-color="#151371"/>
<stop offset="0.453125" stop-color="#FF00B8"/>
<stop offset="0.96875" stop-color="#FFC700"/>
</linearGradient>
<linearGradient id="paint1_linear" x1="439" y1="245" x2="439" y2="644" gradientUnits="userSpaceOnUse">
<stop stop-color="#FF00B8"/>
<stop offset="1" stop-color="#F0DB0A" stop-opacity="0"/>
</linearGradient>
<linearGradient id="paint2_linear" x1="194" y1="161" x2="194" y2="560" gradientUnits="userSpaceOnUse">
<stop stop-color="#FF00B8"/>
<stop offset="1" stop-color="#F0DB0A" stop-opacity="0"/>
</linearGradient>
<linearGradient id="paint3_linear" x1="299.979" y1="509.813" x2="299.979" y2="398.888" gradientUnits="userSpaceOnUse">
<stop stop-color="#E59E82" stop-opacity="0.8"/>
<stop offset="0.7" stop-color="#C66C49"/>
</linearGradient>
<linearGradient id="paint4_linear" x1="299.98" y1="433.313" x2="299.98" y2="425.663" gradientUnits="userSpaceOnUse">
<stop offset="0.1" stop-color="#ECAC92"/>
<stop offset="1" stop-color="#E59E82"/>
</linearGradient>
<radialGradient id="paint5_radial" cx="0" cy="0" r="1" gradientUnits="userSpaceOnUse" gradientTransform="translate(231.751 286.601) rotate(174.019) scale(38.5462)">
<stop stop-color="white"/>
<stop offset="0.315" stop-color="#FCFDFD"/>
<stop offset="0.504" stop-color="#F4F7F8"/>
<stop offset="0.66" stop-color="#E5ECEF"/>
<stop offset="0.76" stop-color="#D8E2E7"/>
</radialGradient>
<radialGradient id="paint6_radial" cx="0" cy="0" r="1" gradientUnits="userSpaceOnUse" gradientTransform="translate(234.125 286.101) rotate(-14.4847) scale(15.1072 15.1105)">
<stop stop-color="white"/>
<stop offset="1" stop-color="white" stop-opacity="0"/>
</radialGradient>
<radialGradient id="paint7_radial" cx="0" cy="0" r="1" gradientUnits="userSpaceOnUse" gradientTransform="translate(234.126 286.118) rotate(0.512025) scale(15.0985 15.0988)">
<stop stop-color="white"/>
<stop offset="1" stop-color="white" stop-opacity="0"/>
</radialGradient>
<linearGradient id="paint8_linear" x1="225.825" y1="296.934" x2="228.212" y2="294.088" gradientUnits="userSpaceOnUse">
<stop stop-color="white"/>
<stop offset="1" stop-color="white" stop-opacity="0"/>
</linearGradient>
<linearGradient id="paint9_linear" x1="237.407" y1="281.705" x2="235.497" y2="283.982" gradientUnits="userSpaceOnUse">
<stop stop-color="white"/>
<stop offset="1" stop-color="white" stop-opacity="0"/>
</linearGradient>
<linearGradient id="paint10_linear" x1="243.588" y1="275.396" x2="239.187" y2="280.642" gradientUnits="userSpaceOnUse">
<stop stop-color="white"/>
<stop offset="1" stop-color="white" stop-opacity="0"/>
</linearGradient>
<radialGradient id="paint11_radial" cx="0" cy="0" r="1" gradientUnits="userSpaceOnUse" gradientTransform="translate(243.909 281.579) rotate(1.19182) scale(40.8083 32.645)">
<stop stop-color="#E59E82"/>
<stop offset="0.7" stop-color="#E59E82" stop-opacity="0.3"/>
<stop offset="1" stop-color="#F4BAA3" stop-opacity="0"/>
</radialGradient>
<radialGradient id="paint12_radial" cx="0" cy="0" r="1" gradientUnits="userSpaceOnUse" gradientTransform="translate(222.376 353.929) scale(77.8158)">
<stop offset="0.95" stop-opacity="0"/>
<stop offset="1" stop-opacity="0.2"/>
</radialGradient>
<radialGradient id="paint13_radial" cx="0" cy="0" r="1" gradientUnits="userSpaceOnUse" gradientTransform="translate(367.192 286.6) rotate(5.98141) scale(38.5436)">
<stop stop-color="white"/>
<stop offset="0.316" stop-color="#FCFDFD"/>
<stop offset="0.505" stop-color="#F4F7F8"/>
<stop offset="0.661" stop-color="#E5ECEF"/>
<stop offset="0.76" stop-color="#D8E2E7"/>
</radialGradient>
<radialGradient id="paint14_radial" cx="0" cy="0" r="1" gradientUnits="userSpaceOnUse" gradientTransform="translate(365.448 286.101) rotate(-14.4847) scale(15.1075 15.1108)">
<stop stop-color="white"/>
<stop offset="1" stop-color="white" stop-opacity="0"/>
</radialGradient>
<radialGradient id="paint15_radial" cx="0" cy="0" r="1" gradientUnits="userSpaceOnUse" gradientTransform="translate(365.45 286.118) rotate(0.512025) scale(15.099 15.0993)">
<stop stop-color="white"/>
<stop offset="1" stop-color="white" stop-opacity="0"/>
</radialGradient>
<linearGradient id="paint16_linear" x1="357.15" y1="296.934" x2="359.537" y2="294.088" gradientUnits="userSpaceOnUse">
<stop stop-color="white"/>
<stop offset="1" stop-color="white" stop-opacity="0"/>
</linearGradient>
<linearGradient id="paint17_linear" x1="368.733" y1="281.705" x2="366.823" y2="283.982" gradientUnits="userSpaceOnUse">
<stop stop-color="white"/>
<stop offset="1" stop-color="white" stop-opacity="0"/>
</linearGradient>
<linearGradient id="paint18_linear" x1="374.913" y1="275.396" x2="370.512" y2="280.642" gradientUnits="userSpaceOnUse">
<stop stop-color="white"/>
<stop offset="1" stop-color="white" stop-opacity="0"/>
</linearGradient>
<radialGradient id="paint19_radial" cx="0" cy="0" r="1" gradientUnits="userSpaceOnUse" gradientTransform="translate(355.031 281.579) rotate(178.808) scale(40.8083 32.645)">
<stop stop-color="#E59E82"/>
<stop offset="0.7" stop-color="#E59E82" stop-opacity="0.3"/>
<stop offset="1" stop-color="#F4BAA3" stop-opacity="0"/>
</radialGradient>
<radialGradient id="paint20_radial" cx="0" cy="0" r="1" gradientUnits="userSpaceOnUse" gradientTransform="translate(376.567 353.929) rotate(180) scale(77.8158)">
<stop offset="0.95" stop-opacity="0"/>
<stop offset="1" stop-opacity="0.2"/>
</radialGradient>
<radialGradient id="paint21_radial" cx="0" cy="0" r="1" gradientUnits="userSpaceOnUse" gradientTransform="translate(299.979 361.913) scale(104.55)">
<stop stop-color="#FFD5C4" stop-opacity="0.5"/>
<stop offset="0.9" stop-color="#F4BAA3" stop-opacity="0"/>
</radialGradient>
<radialGradient id="paint22_radial" cx="0" cy="0" r="1" gradientUnits="userSpaceOnUse" gradientTransform="translate(299.979 208.913) scale(94.3499)">
<stop stop-color="#FFD5C4" stop-opacity="0.5"/>
<stop offset="0.9" stop-color="#F4BAA3" stop-opacity="0"/>
</radialGradient>
<clipPath id="clip0">
<rect width="600" height="600" fill="white"/>
</clipPath>
</defs>
</svg>
