<svg width="600" height="600" viewBox="0 0 600 600" fill="none" xmlns="http://www.w3.org/2000/svg">
<g clip-path="url(#clip0)">
<path d="M675 675H-75V-75H675V675Z" fill="url(#paint0_linear)"/>
<path d="M360.996 403.874H308.184V356.576H360.996V403.874ZM414.113 320.069H340.054V380.225H414.113V320.069ZM377.082 441.95H442.881V362.639H377.082V441.95ZM400.757 434.192H334.59V491.191H400.757V434.192ZM580.44 284.416H490.23V387.501H580.44V284.416ZM478.458 331.108H456.605V356.576H478.458V331.108ZM544.531 252.277H456.605V304.426H544.531V252.277ZM442.881 270.468H395.532V335.958H442.881V270.468ZM334.59 275.32H308.184V303.213H334.59V275.32ZM299.325 320.069H258.501V382.71H299.325V320.069ZM347.338 441.95H275.708V521.511H347.338V441.95ZM308.184 576.086H388.617V528.788H308.184V576.086ZM500.311 557.894H443.791V599.129H500.313V557.894H500.311ZM637.361 516.659H585.062V578.511H637.361V516.659ZM551.302 544.718H506.381V585.953H551.302V544.718ZM594.357 463.296H528.843V537.278H594.357V463.296ZM610.791 590.639H528.843V644H610.791V590.639ZM340.054 557.894H251.187V637.937H340.052V557.894H340.054ZM630.216 356.576H569.818V403.874H630.216V356.576ZM594.357 424.49H568.208V451.477H594.357V424.49ZM251.187 474.697H300.975V404.294H251.187V474.697ZM321.764 249.852L232 252.277V320.069H321.764V249.852ZM646 252.277H587.725V326.256H646V252.277ZM371.858 245H347.338V298.361H371.858V245ZM641.143 437.983H581.281V486.494H641.143V437.983Z" fill="url(#paint1_linear)" stroke="#FFC700" stroke-width="1.5"/>
<path d="M115.996 319.874H63.1843V272.576H115.996V319.874ZM169.113 236.069H95.0537V296.225H169.113V236.069ZM132.082 357.95H197.881V278.639H132.082V357.95ZM155.757 350.192H89.5904V407.191H155.757V350.192ZM335.44 200.416H245.23V303.501H335.44V200.416ZM233.458 247.108H211.605V272.576H233.458V247.108ZM299.531 168.277H211.605V220.426H299.531V168.277ZM197.881 186.468H150.532V251.958H197.881V186.468ZM89.5904 191.32H63.1843V219.213H89.5904V191.32ZM54.3246 236.069H13.5008V298.71H54.3246V236.069ZM102.338 357.95H30.7084V437.511H102.338V357.95ZM63.1843 492.086H143.617V444.788H63.1843V492.086ZM255.311 473.894H198.791V515.129H255.313V473.894H255.311ZM392.361 432.659H340.062V494.511H392.361V432.659ZM306.302 460.718H261.381V501.953H306.302V460.718ZM349.357 379.296H283.843V453.278H349.357V379.296ZM365.791 506.639H283.843V560H365.791V506.639ZM95.0537 473.894H6.18721V553.937H95.0519V473.894H95.0537ZM385.216 272.576H324.818V319.874H385.216V272.576ZM349.357 340.49H323.208V367.477H349.357V340.49ZM6.18721 390.697H55.9745V320.294H6.18721V390.697ZM76.7643 165.852L-13 168.277V236.069H76.7643V165.852ZM401 168.277H342.725V242.256H401V168.277ZM126.858 161H102.338V214.361H126.858V161ZM396.143 353.983H336.281V402.494H396.143V353.983Z" fill="url(#paint2_linear)" stroke="#FFC700" stroke-width="1.5"/>
<rect x="504" y="328.705" width="8.86149" height="25.1423" fill="white"/>
<rect x="521.754" y="328.857" width="8.83104" height="25.1423" fill="white"/>
<rect x="512.861" y="320" width="8.89195" height="8.85765" fill="white"/>
<rect x="539.415" y="328.857" width="8.89195" height="25.1423" fill="white"/>
<rect x="530.585" y="320" width="8.83105" height="8.85765" fill="white"/>
<rect x="548.308" y="320" width="8.86149" height="8.85765" fill="white"/>
<rect x="557.169" y="327.792" width="8.83104" height="8.85766" fill="white"/>
<rect x="548.308" y="336.65" width="8.86149" height="8.82721" fill="white"/>
<rect x="40" y="390.425" width="7.57515" height="21.4449" fill="white"/>
<rect x="55.1768" y="390.555" width="7.54912" height="21.4449" fill="white"/>
<rect x="47.5752" y="383" width="7.60118" height="7.55506" fill="white"/>
<rect x="70.2744" y="390.555" width="7.60118" height="21.4449" fill="white"/>
<rect x="62.7256" y="383" width="7.54912" height="7.55506" fill="white"/>
<rect x="77.876" y="383" width="7.57515" height="7.55506" fill="white"/>
<rect x="85.4512" y="389.646" width="7.54912" height="7.55506" fill="white"/>
<rect x="77.876" y="397.201" width="7.57515" height="7.52909" fill="white"/>
<path d="M292.262 313.508H289.712V310.958H292.262V313.508Z" fill="#2A232B"/>
<path d="M534.3 566.666C528.701 554.564 513.403 536.63 496.407 531.675C475.398 525.548 427.973 518.14 410.388 514.022C396.292 510.717 367.9 485.222 357.95 476.664C356.165 475.134 354.704 471.975 354.668 469.626C354.314 441.923 365.366 368.33 365.366 368.33H290.987H216.611C216.611 368.33 227.663 441.921 227.303 469.626C227.275 471.975 225.807 475.134 224.027 476.664C214.077 485.222 185.685 510.717 171.589 514.022C154.001 518.14 106.576 525.8 85.5695 531.928C68.5686 536.88 53.2763 554.562 47.6765 566.664C38.2211 587.084 35.9873 624.039 35.9873 655.914H290.987H545.987C545.987 624.041 543.751 587.087 534.3 566.666Z" fill="#F0C7B1"/>
<path d="M441.835 526.581C503.907 535.613 530.029 548.786 538.21 655.919H545.987C545.987 624.044 543.751 587.09 534.301 566.669C528.701 554.567 513.404 536.633 496.408 531.678C475.398 525.551 427.973 518.143 410.389 514.025C396.292 510.72 363.872 483.249 355.199 472.332C363.767 484.327 387.816 512.125 408.887 519.405C418.967 522.888 427.361 524.474 441.835 526.581ZM173.091 519.405C194.162 512.127 218.208 484.327 226.779 472.332C218.109 483.246 185.688 510.72 171.589 514.025C154.004 518.143 106.579 525.803 85.5699 531.931C68.5741 536.883 53.2767 554.564 47.6769 566.667C38.2266 587.087 35.9902 624.042 35.9902 655.917H43.7677C51.8971 549.469 78.129 535.6 140.142 526.578C154.614 524.474 163.011 522.888 173.091 519.405Z" fill="#FFE4D6"/>
<path d="M279.884 561.163C279.884 561.163 266.945 557.06 261.822 555.097C235.177 544.874 148.615 538.249 148.615 538.249C148.615 538.249 239.788 541.867 259.907 545.335C258.739 533.18 252.214 494.325 252.214 494.325C252.214 494.325 265.344 537.203 268.557 548.021C270.276 553.804 279.884 561.163 279.884 561.163ZM307.421 557.741C307.195 557.927 306.934 558.17 306.651 558.425C306.94 558.208 307.2 557.981 307.421 557.741ZM279.884 561.163C279.884 561.163 287.261 568.793 290.969 568.89C295.839 569.02 303.28 561.497 306.654 558.425C303.428 560.865 296.048 561.972 293.113 562.086C289.722 562.216 279.884 561.163 279.884 561.163ZM333.48 541.99C329.54 542.622 322.296 544.002 322.296 544.002L328.127 506.032C326.48 513.863 316.719 547.37 307.421 557.741C312.292 553.62 323.124 551.644 328.648 550.846C354.749 547.062 354.739 547.064 433.356 538.249C433.356 538.249 359.225 537.854 333.48 541.99Z" fill="#E1AC8F"/>
<path d="M534.3 566.666C528.701 554.564 513.403 536.63 496.407 531.675C475.398 525.548 427.973 518.14 410.388 514.022C396.292 510.717 367.9 485.222 357.95 476.664C356.165 475.134 354.704 471.975 354.668 469.626C354.314 441.923 365.366 368.33 365.366 368.33H290.987H216.611C216.611 368.33 227.663 441.921 227.303 469.626C227.275 471.975 225.807 475.134 224.027 476.664C214.077 485.222 185.685 510.717 171.589 514.022C154.001 518.14 106.576 525.8 85.5695 531.928C68.5686 536.88 53.2763 554.562 47.6765 566.664C38.2211 587.084 35.9873 624.039 35.9873 655.914H290.987H545.987C545.987 624.041 543.751 587.087 534.3 566.666Z" stroke="#C27B55" stroke-width="3.825"/>
<path d="M300.435 491.214C313.929 487.241 334.375 473.334 353.044 458.442C353.941 441.52 356.698 417.93 359.153 399.068C321.013 392.807 261.07 392.927 222.846 399.274C225.268 417.889 227.971 441.043 228.894 457.858C246.885 472.689 266.606 486.856 281.641 491.23C283.704 491.831 298.372 491.824 300.435 491.214Z" fill="url(#paint3_linear)"/>
<path d="M364.572 664.076H216.323V520.81C273.061 532.792 310.367 531.869 364.575 520.81V664.076H364.572Z" fill="#F3F1F3"/>
<path d="M309.958 663.39C302.882 663.39 282.605 663.921 267.853 662.804L267.827 662.368C265.741 614.79 270.706 584.034 279.397 562.184L279.519 561.87L279.282 561.633C276.974 559.328 273.098 556.698 268.995 553.919C264.887 551.132 260.644 548.255 257.938 545.642C259.532 543.775 261.496 541.934 263.926 540.029C264.551 539.71 266.889 537.879 279.16 527.353C279.705 526.884 280.039 526.598 280.083 526.563C282.169 526.109 285.535 525.815 289.615 525.815C295.181 525.815 301.679 526.379 306.22 527.251C310.201 530.969 315.02 540.84 316.823 545.535C314.334 551.377 311.397 553.514 307.345 556.459C305.371 557.894 303.132 559.521 300.582 561.844L300.37 562.036L300.424 562.319C310.69 614.109 310.693 626.206 310.693 637.906C310.695 643.059 310.695 654.759 311.557 663.367C311.175 663.385 310.632 663.39 309.958 663.39Z" fill="#131111"/>
<path d="M317.379 545.545C315.456 540.457 310.468 530.423 306.465 526.779C299.131 525.344 286.108 524.63 279.766 526.167C279.491 526.392 263.834 539.894 263.676 539.58C261.366 541.386 259.117 543.415 257.25 545.675C262.506 550.968 274.22 557.292 278.925 561.995C269.617 585.404 265.334 617.049 267.323 662.414C267.348 662.694 267.348 663 267.373 663.281C284.601 664.607 309.576 664.125 312.126 663.849C309.168 635.016 315.793 637.189 300.931 562.224C308.755 555.097 313.592 554.584 317.379 545.545ZM303.991 594.097C303.938 593.969 303.889 593.842 303.861 593.765C308.961 620.668 307.38 641.277 311.233 662.544C299.157 661.733 280.598 662.411 268.467 662.411C269.408 644.056 271.497 581.617 280.554 561.074C280.988 560.957 281.419 560.86 281.852 560.755L279.221 649.332L286.226 559.914C286.277 559.909 286.328 559.901 286.379 559.893L290.971 643.036L292.035 559.564C292.101 559.567 292.165 559.562 292.231 559.564L302.938 652.27L297.073 560.12C297.874 560.281 298.677 560.48 299.475 560.715C299.552 560.715 299.654 560.74 299.73 560.791C299.996 563.346 302.117 582.216 303.991 594.097ZM301.745 558.884C294.671 555.694 285.519 556.267 278.466 559.496C274.179 554.873 268.062 551.649 259.265 545.749C260.667 544.527 262.477 543.02 264.9 541.133C265.104 541.133 273.774 534.067 273.927 533.917C276.273 531.775 278.364 529.352 280.353 527.236C287.824 526.93 298.789 527.287 305.394 527.593C309.219 532.376 312.868 539.567 315.619 545.29C310.619 552.611 305.672 555.872 301.745 558.884Z" fill="black"/>
<path d="M235.386 600.579C205.975 498.398 219.258 525.147 211.419 485.013C216.59 472.74 221.512 458.391 224.276 455.438L224.48 455.219C230.325 516.437 247.323 489.991 285.129 525.91C263.518 540.327 243.485 577.756 235.386 600.579ZM370.529 485.015C366.836 475.575 360.132 461.742 357.23 458.671C360.862 511.4 318.608 500.876 295.138 525.481C317.609 540.05 338.929 578.164 346.577 600.592C380.033 489.631 362.004 538.349 370.529 485.015Z" fill="#F3F1F4"/>
<path d="M356.78 457.498C356.78 470.597 355.709 480.861 353.561 483.862C347.332 498.675 320.149 508.988 311.767 513.213C305.405 516.342 299.165 520.376 294.351 525.58C304.074 531.894 308.898 534.207 327.322 562.402C338.149 580.53 343.996 594.145 346.603 602.284C380.716 489.24 362.469 538.591 371.057 484.959C367.013 474.54 359.33 459.839 356.78 457.498ZM366.082 507.294C361.092 553.393 357.18 544.231 346.345 594.456C339.419 572.414 318.104 536.028 296.799 525.374C306.838 517.834 309.628 517.39 321.607 511.912C358.317 495.541 359.819 480.331 357.659 460.221C360.737 463.85 365.628 475.932 369.624 484.5C367.433 492.522 366.439 503.977 366.082 507.294ZM237.945 495.567C226.704 486.262 229.887 474.754 224.713 454.219C222.413 456.769 216.69 471.13 210.892 484.959C212.312 492.089 212.628 503.801 212.83 507.501C214.255 538.616 217.292 540.052 235.346 602.259C243.075 579.551 264.819 540.115 286.958 525.736C269.284 509.605 247.038 503.48 237.945 495.567ZM251.868 560.615C246.204 569.963 240.349 579.689 235.624 594.479C224.297 542.793 220.327 551.221 215.913 507.371C215.097 499.795 214.339 492.002 212.343 484.523C216.519 475.374 222.494 458.306 224.407 456.486C227.89 474.535 224.575 490.814 238.863 499.823C245.546 504.913 267.178 513.389 283.539 526.241C273.616 532.131 268.277 535.602 251.868 560.615Z" fill="#CFC8D7"/>
<path d="M342.801 592.283L339.718 585.515C339.718 585.515 363.045 513.669 367.112 493.142C369.438 514.444 342.801 592.283 342.801 592.283ZM237.129 589.47L240.791 581.16C240.791 581.16 218.929 513.669 214.862 493.142C212.537 514.444 237.129 589.47 237.129 589.47Z" fill="#E1E0E1"/>
<path d="M354.194 556.025C372.21 502.898 361.222 498.52 370.272 480.879C370.613 480.213 373.831 483.546 374.181 485.061C377.511 499.489 510.221 529.273 514.415 532.486C518.128 535.184 528.823 540.485 528.823 540.485C541.412 563.613 548.616 567.765 552.155 629.694C552.487 637.556 552 659.787 552 665.754L333.824 664.03C334.347 644.163 336.884 608.414 354.194 556.025ZM227.78 556.025C209.764 502.898 220.752 498.52 211.702 480.879C211.361 480.213 208.143 483.546 207.793 485.061C204.463 499.489 71.7534 529.273 67.5587 532.486C63.8459 535.184 53.1512 540.485 53.1512 540.485C40.5618 563.613 33.3581 567.765 29.8187 629.694C29.4872 637.556 29.9742 659.787 29.9742 665.754L248.15 664.03C247.627 644.163 245.09 608.414 227.78 556.025Z" fill="#386E77"/>
<path d="M368.27 541.732C356.662 583.519 340.804 621.078 333.829 664.03C331.56 664.012 337.631 606.158 354.194 556.028C372.209 502.901 361.221 498.522 370.271 480.882C370.468 480.499 368.693 485.92 369.703 487.083C369.33 506.787 374.181 522.026 368.27 541.732ZM213.704 541.732C225.312 583.519 241.17 621.078 248.144 664.03C250.414 664.012 244.342 606.158 227.78 556.028C209.764 502.901 220.752 498.522 211.702 480.882C211.506 480.499 213.281 485.92 212.271 487.083C212.643 506.787 207.793 522.026 213.704 541.732Z" fill="#265E68"/>
<path d="M424.698 531.611C424.698 531.611 418.874 538.141 402.676 549.264C416.225 534.258 422.467 528.229 422.467 528.229L424.698 531.611ZM430.244 561.892L426.348 558.406C414.776 593.548 407.042 610.903 393.637 651.782C412.874 615.251 417.464 602.281 430.244 561.892ZM159.506 528.229C159.506 528.229 165.746 534.258 179.297 549.264C163.099 538.141 157.275 531.611 157.275 531.611L159.506 528.229ZM188.336 651.782C174.931 610.903 167.197 593.548 155.625 558.406L151.729 561.892C164.509 602.281 169.099 615.251 188.336 651.782Z" fill="#184F58"/>
<path d="M493.48 616.537C493.48 586.967 501.41 569.742 517.998 544.775C519.548 545.723 520.372 546.159 521.428 547.006C503.789 568.892 500.286 589.313 493.48 616.537ZM396.333 645.525C411.921 602.932 416.886 586.294 427.205 557.836C424.273 556.941 405.094 550.224 402.167 549.303C403.212 551.853 410.105 553.949 422.113 561.311C422.113 561.314 409.136 600.592 396.333 645.525ZM417.296 527.904C417.296 527.904 408.749 538.461 400.303 549.14C408.942 542.332 414.96 534.748 422.465 528.23C412.28 519.642 395.662 506.494 384.926 497.403C393.403 506.512 417.296 527.904 417.296 527.904ZM551.273 665.749L552.002 665.754C552.002 659.787 552.487 637.556 552.158 629.695C548.616 567.765 541.412 563.614 528.825 540.486C528.825 540.486 518.131 535.184 514.418 532.486C511.016 529.883 415.493 507.185 380.568 491.992C421.396 519.968 498.587 530.311 521.43 547.006C532.477 555.082 547.351 624.192 551.273 665.749ZM60.5003 546.927C61.8824 545.95 62.0787 545.993 63.4787 545.068C80.0664 570.035 88.4916 586.967 88.4916 616.534C81.6882 589.313 76.9911 568.043 60.5003 546.927ZM159.861 561.314C171.869 553.952 178.762 551.856 179.807 549.306C176.88 550.224 157.701 556.943 154.769 557.838C165.091 586.296 170.053 602.935 185.641 645.528C172.838 600.592 159.861 561.314 159.861 561.314ZM197.045 497.403C186.31 506.491 169.691 519.642 159.507 528.23C167.011 534.751 173.032 542.332 181.669 549.14C173.22 538.461 164.675 527.904 164.675 527.904C164.675 527.904 188.571 506.512 197.045 497.403ZM60.5462 547.006C83.3891 530.311 160.58 519.966 201.408 491.992C166.483 507.185 70.9604 529.88 67.5587 532.486C63.8459 535.184 53.1512 540.486 53.1512 540.486C40.5618 563.614 33.3581 567.765 29.8187 629.695C29.4872 637.556 29.9742 659.787 29.9742 665.754L30.7035 665.749C34.6229 624.192 49.497 555.082 60.5462 547.006Z" fill="#4D7E86"/>
<path d="M373.214 481.486C373.089 480.739 372.084 479.869 371.332 479.811C370.577 479.752 370.231 480.979 369.886 481.652C360.836 499.293 370.942 502.901 352.926 556.028C335.617 608.417 333.587 644.926 333.069 664.793L552.005 665.754C552.005 659.787 553.252 637.556 552.92 629.694C549.378 567.765 541.922 563.106 529.333 539.975C529.333 539.975 518.128 534.419 514.415 531.723C501.948 522.181 512.911 531.782 458.239 516.424C413.42 503.329 411 499.652 394.746 495.131C391.462 494.19 384.401 493.035 377.024 487.861C376.348 487.389 373.456 482.939 373.214 481.486ZM334.27 662.373C343.779 602.285 349.787 586.561 363.075 541.824C372.056 513.509 367.094 497.434 371.373 484.347C371.597 483.664 372.564 483.628 372.829 484.304C379.036 500.149 396.386 503.827 420.856 527.774C406.033 542.597 402.218 546.593 400.303 549.143C402.506 550.259 414.537 554.826 425.548 559.088C424.923 561.043 391.339 656.038 390.944 657.313C416.444 602.29 419.739 585.375 427.205 557.838C425.135 556.277 407.081 549.647 404.026 548.556C414.924 537.275 418.076 534.796 423.227 528.23C427.363 528.23 382.749 494.269 380.566 491.992C381.744 492.92 387.583 495.539 388.241 495.794C425.68 508.967 396.057 503.008 478.001 526.397C485.835 528.388 496.756 530.392 504.853 531.188C505.409 531.239 518.61 538.142 526.145 541.312C507.813 560.373 496.063 585.001 493.48 616.536C501.688 584.238 506.105 567.347 526.987 543.048C546.418 582.374 544.212 576.695 550.523 664.708C497.963 662.635 417.362 662.161 334.27 662.373ZM204.952 487.864C197.573 493.035 190.514 494.19 187.23 495.134C170.976 499.652 168.556 503.332 123.737 516.426C69.0655 531.785 80.0254 522.184 67.561 531.726C63.8482 534.424 52.6435 539.978 52.6435 539.978C40.0542 563.106 32.598 567.765 29.0561 629.697C28.7246 637.559 29.9715 659.79 29.9715 665.757L248.907 664.795C248.389 644.928 246.359 608.42 229.05 556.03C211.034 502.903 221.137 499.295 212.09 481.654C211.743 480.981 211.399 479.755 210.644 479.813C209.892 479.872 208.887 480.741 208.762 481.489C208.517 482.939 205.626 487.389 204.952 487.864ZM31.4505 664.708C37.7643 576.695 35.556 582.374 54.987 543.048C75.8664 567.347 80.2855 584.238 88.494 616.536C85.9108 585.001 74.163 560.373 55.8285 541.312C63.3637 538.142 76.5651 531.239 77.121 531.188C85.2172 530.392 96.1389 528.388 103.972 526.397C185.917 503.008 156.296 508.967 193.732 495.794C194.39 495.536 200.23 492.92 201.408 491.992C199.225 494.269 154.608 528.23 158.746 528.23C163.9 534.796 167.049 537.275 177.948 548.556C174.893 549.647 156.839 556.275 154.768 557.838C162.235 585.375 165.529 602.29 191.029 657.313C190.634 656.038 157.051 561.043 156.426 559.088C167.437 554.824 179.468 550.257 181.671 549.143C179.756 546.593 175.941 542.597 161.118 527.774C185.588 503.827 202.938 500.149 209.145 484.304C209.41 483.625 210.376 483.664 210.601 484.347C214.88 497.434 209.915 513.509 218.898 541.824C232.186 586.561 238.194 602.285 247.703 662.373C164.611 662.161 84.0111 662.635 31.4505 664.708Z" fill="#0C4049"/>
<path d="M155.839 269.471C152.33 263.216 141.462 247.847 130.39 251.614C123.38 253.998 121.993 261.796 120.866 268.681C119.366 277.838 122.067 295.951 124.408 302.494C126.654 308.785 133.417 320.93 137.831 325.559C143.262 331.232 150.007 349.335 151.076 351.214C152.759 354.177 154.992 358.637 161.587 358.079C168.862 357.456 173.276 353.361 176.519 352.67C184.532 350.972 164.971 285.753 155.839 269.471Z" fill="#F0C7B1" stroke="#C27B55" stroke-width="3.825"/>
<path d="M148.689 307.397C148.353 305.916 148.707 303.419 149.051 301.012C149.368 298.816 149.663 296.741 149.482 295.272C148.801 289.779 144.961 279.337 142.452 273.681C139.565 267.168 134.896 258.968 129.034 256.854C126.611 255.979 125.018 257.024 124.092 258.088C123.414 258.866 123.263 259.784 123.485 259.891C123.704 259.998 124.212 259.243 124.944 258.526C125.543 257.942 126.42 257.44 127.624 257.545C127.139 260.281 124.648 275.096 125.726 285.199C126.576 293.143 129.789 299.076 130.291 299.966C130.365 300.902 130.487 301.818 130.668 302.708C133.037 314.303 143.344 327.486 146.932 331.801C147.593 332.599 148.286 333.068 148.457 332.879C148.625 332.685 148.217 331.892 147.557 331.094C144.018 326.813 133.81 313.675 131.52 302.488C129.092 290.616 137.431 273.021 139.292 269.295C140.239 271.042 141.044 272.722 141.664 274.122C142.148 275.221 142.689 276.509 143.242 277.894C142.148 279.837 134.486 294.01 137.281 305.349C138.316 309.534 142.98 314.925 146.07 316.399C147.771 317.215 148.414 318.431 149.153 319.839C150.01 321.471 150.984 323.319 153.815 324.663C154.388 324.939 154.909 325.048 155.37 325.048C156.168 325.048 156.775 324.704 157.219 324.301C157.265 325.015 157.262 325.933 157.242 326.775C157.211 327.874 157.349 328.771 157.591 328.792C157.831 328.812 158.091 327.945 158.119 326.854C158.16 325.512 158.152 323.852 157.936 323.059C157.303 320.721 155.365 318.079 153.312 315.287C151.3 312.528 149.215 309.69 148.689 307.397ZM130.209 297.118C124.658 278.914 131.882 263.203 133.127 260.704C135.294 262.8 137.207 265.598 138.762 268.341C137.63 270.529 130.441 284.873 130.209 297.118ZM154.156 323.745C151.596 322.534 150.742 320.902 149.908 319.326C149.161 317.901 148.383 316.429 146.417 315.488C145.989 315.282 145.52 314.971 145.035 314.614C138.696 298.643 145.729 291.661 147.491 290.231C148.029 292.184 148.432 293.974 148.61 295.41C148.771 296.728 148.478 298.824 148.184 300.851C147.822 303.363 147.455 305.961 147.835 307.644C148.411 310.149 150.561 313.079 152.639 315.912C154.483 318.426 156.377 321.019 157.028 323.133C156.752 323.551 155.88 324.564 154.156 323.745Z" fill="#C27B55"/>
<path d="M425.463 269.471C428.975 263.216 439.843 247.847 450.912 251.614C457.925 253.998 459.31 261.796 460.439 268.681C461.939 277.838 459.238 295.951 456.897 302.494C454.651 308.785 447.888 320.93 443.469 325.559C438.04 331.232 431.293 349.335 430.227 351.214C428.549 354.177 426.313 358.637 419.718 358.079C412.441 357.456 408.029 353.361 404.783 352.67C396.771 350.972 416.334 285.753 425.463 269.471Z" fill="#F0C7B1" stroke="#C27B55" stroke-width="3.825"/>
<path d="M427.991 315.282C425.938 318.077 424.002 320.716 423.367 323.054C423.148 323.847 423.143 325.507 423.184 326.849C423.214 327.94 423.472 328.807 423.712 328.787C423.951 328.766 424.089 327.869 424.061 326.77C424.041 325.926 424.041 325.01 424.087 324.296C424.53 324.699 425.137 325.043 425.935 325.043C426.399 325.043 426.917 324.934 427.488 324.658C430.316 323.317 431.293 321.466 432.15 319.834C432.887 318.426 433.534 317.212 435.233 316.394C438.326 314.92 442.987 309.529 444.022 305.345C446.817 294.005 439.157 279.832 438.061 277.889C438.614 276.502 439.157 275.214 439.639 274.117C440.261 272.717 441.064 271.037 442.011 269.29C443.872 273.013 452.211 290.611 449.785 302.484C447.501 313.67 437.29 326.808 433.749 331.089C433.091 331.888 432.683 332.681 432.851 332.874C433.019 333.063 433.713 332.596 434.376 331.796C437.961 327.481 448.271 314.298 450.642 302.703C450.821 301.81 450.941 300.897 451.015 299.962C451.517 299.072 454.735 293.138 455.582 285.195C456.658 275.094 454.166 260.276 453.684 257.54C454.891 257.433 455.76 257.938 456.364 258.522C457.096 259.238 457.604 259.993 457.823 259.886C458.042 259.779 457.892 258.861 457.216 258.083C456.291 257.02 454.697 255.974 452.274 256.849C446.412 258.965 441.74 267.163 438.856 273.676C436.347 279.332 432.507 289.774 431.823 295.267C431.64 296.736 431.938 298.812 432.257 301.007C432.601 303.417 432.953 305.913 432.616 307.392C432.094 309.69 430.008 312.528 427.991 315.282ZM442.543 268.339C444.102 265.598 446.014 262.798 448.182 260.702C449.426 263.201 456.647 278.911 451.101 297.116C450.864 284.873 443.678 270.529 442.543 268.339ZM424.275 323.133C424.923 321.019 426.82 318.426 428.664 315.912C430.745 313.079 432.892 310.149 433.471 307.645C433.848 305.962 433.481 303.363 433.121 300.852C432.828 298.824 432.535 296.728 432.698 295.41C432.871 293.974 433.277 292.182 433.815 290.231C435.577 291.661 442.61 298.643 436.276 314.614C435.789 314.971 435.319 315.284 434.891 315.488C432.925 316.429 432.152 317.901 431.4 319.326C430.569 320.902 429.712 322.534 427.152 323.745C425.425 324.564 424.553 323.552 424.275 323.133Z" fill="#C27B55"/>
<path d="M388.587 401.312C369.309 421.105 324.141 458.738 300.434 465.717C298.371 466.324 283.703 466.332 281.64 465.732C255.115 458.019 214.004 419.827 193.551 401.258C191.771 399.641 188.767 395.801 187.627 393.685C170.096 361.121 140.574 253.567 140.549 253.447C137.234 240.924 135.459 227.779 135.439 214.223C135.306 128.862 204.681 59.5761 290.407 59.4435C376.141 59.311 445.735 128.378 445.865 213.736C445.888 227.292 444.159 240.442 440.888 252.978C440.849 253.098 410.979 360.387 394.241 393.361C393.139 395.533 390.288 399.562 388.587 401.312Z" fill="#F0C7B1"/>
<path d="M349.44 70.9385C398.899 95.1533 433.363 148.938 433.447 211.522C433.47 225.078 431.879 238.229 428.867 250.764C428.834 250.884 401.353 358.173 385.953 391.149C384.938 393.322 382.317 397.351 380.754 399.098C363.018 418.891 321.461 456.524 299.651 463.506C297.754 464.113 284.259 464.118 282.359 463.521C257.956 455.807 220.134 417.616 201.315 399.044C199.678 397.43 196.914 393.59 195.866 391.473C179.737 358.91 152.577 251.356 152.554 251.234C149.504 238.711 147.872 225.565 147.852 212.009C147.765 149.285 182.231 95.2757 231.801 70.9742C175.185 94.0925 135.339 149.524 135.439 214.223C135.459 227.779 137.234 240.924 140.549 253.447C140.574 253.567 170.096 361.123 187.627 393.684C188.767 395.801 191.771 399.641 193.551 401.258C214.004 419.827 255.118 458.018 281.64 465.732C283.703 466.331 298.373 466.323 300.434 465.716C324.141 458.737 369.312 421.104 388.587 401.311C390.288 399.562 393.136 395.533 394.241 393.36C410.979 360.384 440.849 253.098 440.888 252.978C444.159 240.442 445.888 227.294 445.865 213.736C445.768 149.183 405.927 93.9726 349.44 70.9385Z" fill="#E8B9A0"/>
<path d="M388.587 401.312C369.309 421.105 324.141 458.738 300.434 465.717C298.371 466.324 283.703 466.332 281.64 465.732C255.115 458.019 214.004 419.827 193.551 401.258C191.771 399.641 188.767 395.801 187.627 393.685C170.096 361.121 140.574 253.567 140.549 253.447C137.234 240.924 135.459 227.779 135.439 214.223C135.306 128.862 204.681 59.5761 290.407 59.4435C376.141 59.311 445.735 128.378 445.865 213.736C445.888 227.292 444.159 240.442 440.888 252.978C440.849 253.098 410.979 360.387 394.241 393.361C393.139 395.533 390.288 399.562 388.587 401.312Z" stroke="#C27B55" stroke-width="3.825"/>
<path d="M273.192 408.969C291.56 413.967 307.995 408.704 307.995 408.704C302.347 418.478 277.466 416.961 273.192 408.969Z" fill="url(#paint4_linear)"/>
<path d="M278.316 392.56C282.194 392.657 286.05 394.616 290.097 395.24C292.912 395.676 301.669 392.866 304.55 392.734C312.114 392.382 326.34 394.34 333.284 394.718C333.664 394.741 333.284 394.718 333.284 394.718C308.77 418.769 264.467 414.692 248.626 394.692C246.076 394.779 274.725 392.468 278.316 392.56Z" fill="#DA7C87"/>
<path d="M290.543 400.539C280.679 400.524 247.708 393.983 247.708 393.983C247.476 394.215 247.965 395.299 248.294 395.605C249.092 396.329 251.538 396.694 253.198 397C302.821 406.336 291.703 400.998 309.92 400.318C312.238 400.231 331.641 396.901 333.457 395.587C340.92 390.123 309.191 400.562 290.543 400.539Z" fill="#AC2E3D"/>
<path d="M260.134 400.677C311.577 405.953 282.354 403.65 322.316 399.152C294.951 414.554 270.688 408.013 260.134 400.677ZM321.805 395.406C307.209 392.262 294.643 396.401 291.244 396.643C281.773 397.334 288.25 391.24 262.003 395.666C313.987 400.838 269.49 399.917 321.805 395.406Z" fill="#E28C96"/>
<path d="M307.729 402.75C298.46 402.959 295.459 405.057 288.199 404.726C282.507 404.425 279.96 403.061 274.679 402.686C273.475 402.607 272.221 402.574 270.986 402.551C278.093 406.746 292.705 409.719 307.729 402.75Z" fill="#E99CA5"/>
<path d="M193.454 267.666C192.163 261.839 206.691 257.535 225.867 259.886C245.038 262.24 258.349 273.972 256.599 279.888C255.63 283.167 229.47 288.163 220.254 287.148C210.911 286.115 196.57 281.734 193.454 267.666Z" fill="url(#paint5_radial)"/>
<path d="M240.623 272.071C240.623 280.519 233.772 287.37 225.323 287.37C216.875 287.37 210.023 280.519 210.023 272.071C210.023 263.62 216.875 256.771 225.323 256.771C233.772 256.768 240.623 263.62 240.623 272.071Z" fill="#4E60A3"/>
<path opacity="0.7" d="M223.61 256.938C223.551 256.946 223.49 256.954 223.429 256.961C223.503 257.306 223.574 257.652 223.646 257.997C223.63 257.647 223.623 257.29 223.61 256.938ZM223.643 257.994C223.822 263.023 224.115 267.503 224.962 269.122C225.408 267.348 224.648 262.926 223.643 257.994ZM224.964 269.125C224.854 269.551 224.689 269.841 224.434 269.938C224.179 270.035 223.857 269.923 223.495 269.676C223.6 270.102 223.59 270.433 223.403 270.64C223.22 270.846 222.891 270.897 222.452 270.839C222.74 271.17 222.888 271.473 222.825 271.739C222.756 272.004 222.483 272.203 222.077 272.356C222.483 272.516 222.756 272.715 222.82 272.981C222.883 273.246 222.735 273.549 222.45 273.878C222.883 273.825 223.217 273.881 223.396 274.087C223.577 274.294 223.587 274.628 223.485 275.054C223.845 274.806 224.161 274.699 224.416 274.799C224.673 274.896 224.839 275.186 224.941 275.615C225.148 275.227 225.377 274.98 225.655 274.952C225.92 274.916 226.206 275.102 226.494 275.431C226.497 274.992 226.588 274.669 226.818 274.513C227.042 274.358 227.376 274.388 227.784 274.546C227.585 274.159 227.517 273.83 227.644 273.585C227.772 273.343 228.085 273.213 228.521 273.162C228.162 272.909 227.942 272.652 227.948 272.376C227.948 272.101 228.162 271.843 228.526 271.596C228.093 271.542 227.784 271.412 227.654 271.17C227.529 270.928 227.598 270.596 227.802 270.209C227.389 270.362 227.058 270.392 226.833 270.237C226.606 270.081 226.514 269.757 226.514 269.319C226.229 269.645 225.943 269.826 225.673 269.79C225.398 269.755 225.166 269.515 224.964 269.125ZM226.512 269.316C227.733 267.952 229.115 263.683 230.515 258.851C228.338 263.382 226.514 267.485 226.512 269.316ZM230.513 258.851C230.666 258.54 230.821 258.224 230.967 257.907C230.913 257.89 230.86 257.864 230.806 257.841C230.709 258.18 230.612 258.519 230.513 258.851ZM227.802 270.209C229.516 269.566 232.726 266.427 236.21 262.801C232.178 265.8 228.654 268.587 227.802 270.209ZM236.21 262.801C236.465 262.61 236.727 262.418 236.987 262.227C236.952 262.181 236.911 262.143 236.88 262.102C236.658 262.332 236.437 262.569 236.21 262.801ZM228.521 271.596C230.339 271.82 234.641 270.533 239.415 268.941C234.448 269.727 230.036 270.555 228.521 271.596ZM239.415 268.944C239.695 268.903 239.989 268.857 240.274 268.811C240.264 268.763 240.251 268.714 240.239 268.666C239.966 268.758 239.685 268.852 239.415 268.944ZM228.519 273.159C230.023 274.21 234.43 275.064 239.387 275.87C234.631 274.256 230.339 272.942 228.519 273.159ZM239.389 275.87C239.632 275.954 239.876 276.041 240.116 276.12C240.129 276.076 240.139 276.035 240.147 275.992C239.899 275.954 239.642 275.913 239.389 275.87ZM227.784 274.544C228.634 276.168 232.14 278.976 236.153 282C232.688 278.353 229.501 275.196 227.784 274.544ZM236.156 281.995C236.306 282.153 236.462 282.316 236.612 282.477C236.638 282.446 236.661 282.423 236.689 282.395C236.51 282.263 236.327 282.127 236.156 281.995ZM226.497 275.429C226.489 277.262 228.289 281.373 230.441 285.917C229.067 281.079 227.713 276.8 226.497 275.429ZM230.441 285.919C230.495 286.11 230.551 286.307 230.602 286.503C230.64 286.488 230.666 286.478 230.702 286.467C230.617 286.284 230.528 286.095 230.441 285.919ZM224.944 275.612C224.087 277.236 223.768 281.707 223.562 286.733C224.592 281.811 225.38 277.392 224.944 275.612ZM223.562 286.733C223.518 286.924 223.483 287.118 223.442 287.314C223.477 287.322 223.505 287.322 223.541 287.327C223.546 287.13 223.556 286.926 223.562 286.733ZM223.488 275.051C221.968 276.089 219.609 279.906 217.092 284.257C220.29 280.381 223.044 276.831 223.488 275.051ZM217.092 284.257C216.957 284.417 216.817 284.588 216.679 284.749C216.712 284.769 216.74 284.784 216.776 284.81C216.878 284.626 216.988 284.44 217.092 284.257ZM222.455 273.881C220.629 274.092 216.766 276.375 212.515 279.055C217.151 277.112 221.231 275.253 222.455 273.881ZM212.512 279.06C212.293 279.152 212.069 279.243 211.842 279.34C211.857 279.373 211.88 279.409 211.9 279.442C212.107 279.317 212.311 279.187 212.512 279.06ZM222.08 272.358C220.369 271.703 215.886 271.93 210.873 272.33C215.881 272.759 220.364 273.006 222.08 272.358ZM210.873 272.33C210.6 272.305 210.319 272.279 210.049 272.256C210.049 272.305 210.044 272.353 210.049 272.399C210.327 272.374 210.605 272.351 210.873 272.33ZM222.455 270.844C221.249 269.469 217.179 267.587 212.558 265.614C216.789 268.317 220.639 270.622 222.455 270.844ZM212.558 265.614C212.293 265.443 212.025 265.272 211.755 265.101C211.732 265.149 211.707 265.198 211.681 265.241C211.977 265.366 212.273 265.489 212.558 265.614ZM223.498 269.676C223.067 267.896 220.333 264.336 217.161 260.437C219.65 264.803 221.988 268.63 223.498 269.676ZM217.161 260.437C216.99 260.144 216.824 259.845 216.654 259.547C216.605 259.58 216.554 259.613 216.511 259.647C216.725 259.909 216.949 260.174 217.161 260.437Z" fill="url(#paint6_radial)"/>
<path opacity="0.4" d="M227.583 256.989C227.521 256.982 227.463 256.972 227.404 256.964C227.386 257.316 227.363 257.67 227.343 258.02C227.419 257.678 227.504 257.331 227.583 256.989ZM227.34 258.017C226.213 262.918 225.334 267.322 225.736 269.11C226.626 267.508 227.034 263.041 227.34 258.017ZM225.734 269.11C225.52 269.492 225.285 269.729 225.012 269.757C224.742 269.783 224.461 269.594 224.178 269.26C224.168 269.696 224.071 270.017 223.839 270.168C223.61 270.318 223.276 270.283 222.87 270.114C223.064 270.509 223.128 270.841 222.995 271.078C222.86 271.318 222.546 271.44 222.115 271.481C222.465 271.739 222.676 272.001 222.669 272.277C222.664 272.549 222.442 272.804 222.08 273.047C222.511 273.108 222.819 273.248 222.939 273.49C223.061 273.735 222.985 274.064 222.776 274.447C223.186 274.301 223.52 274.281 223.742 274.442C223.964 274.602 224.048 274.926 224.038 275.367C224.336 275.048 224.622 274.867 224.897 274.911C225.165 274.946 225.392 275.199 225.586 275.594C225.701 275.168 225.874 274.883 226.137 274.791C226.394 274.699 226.711 274.816 227.062 275.074C226.971 274.648 226.988 274.312 227.175 274.11C227.361 273.909 227.697 273.865 228.133 273.926C227.85 273.59 227.705 273.286 227.781 273.021C227.853 272.756 228.128 272.562 228.544 272.417C228.136 272.254 227.873 272.047 227.81 271.779C227.751 271.512 227.904 271.211 228.202 270.889C227.764 270.93 227.435 270.874 227.259 270.665C227.08 270.456 227.075 270.119 227.187 269.699C226.825 269.938 226.504 270.04 226.252 269.936C225.989 269.831 225.831 269.538 225.734 269.11ZM227.182 269.699C228.715 268.694 231.153 264.928 233.756 260.626C230.479 264.438 227.659 267.926 227.182 269.699ZM233.756 260.623C233.983 260.363 234.215 260.098 234.44 259.83C234.391 259.797 234.348 259.759 234.299 259.723C234.118 260.026 233.937 260.33 233.756 260.623ZM228.197 270.892C230.02 270.713 233.935 268.51 238.237 265.912C233.562 267.766 229.439 269.546 228.197 270.892ZM238.234 265.909C238.532 265.792 238.833 265.675 239.137 265.557C239.111 265.504 239.083 265.455 239.065 265.407C238.79 265.575 238.514 265.746 238.234 265.909ZM228.534 272.419C230.232 273.108 234.72 272.975 239.741 272.677C234.74 272.147 230.265 271.805 228.534 272.419ZM239.741 272.674C240.027 272.708 240.317 272.738 240.605 272.769C240.605 272.718 240.608 272.669 240.611 272.621C240.32 272.639 240.027 272.657 239.741 272.674ZM228.128 273.929C229.306 275.334 233.346 277.298 237.925 279.358C233.746 276.566 229.941 274.189 228.128 273.929ZM237.923 279.358C238.135 279.503 238.349 279.649 238.56 279.786C238.583 279.748 238.604 279.71 238.624 279.672C238.395 279.572 238.155 279.465 237.923 279.358ZM227.057 275.077C227.455 276.864 230.117 280.483 233.213 284.445C230.808 280.024 228.547 276.148 227.057 275.077ZM233.213 284.438C233.32 284.629 233.425 284.828 233.532 285.022C233.562 284.999 233.593 284.981 233.626 284.96C233.488 284.787 233.348 284.608 233.213 284.438ZM225.586 275.597C225.107 277.364 225.78 281.801 226.682 286.748C226.603 281.719 226.405 277.236 225.586 275.597ZM226.68 286.748C226.682 286.947 226.688 287.151 226.688 287.355C226.723 287.35 226.756 287.345 226.792 287.345C226.756 287.148 226.718 286.944 226.68 286.748ZM224.038 275.37C222.789 276.716 221.325 280.952 219.826 285.753C222.092 281.268 224 277.203 224.038 275.37ZM219.823 285.753C219.734 285.927 219.644 286.105 219.558 286.284C219.588 286.299 219.616 286.307 219.65 286.322C219.706 286.136 219.767 285.94 219.823 285.753ZM222.773 274.452C221.039 275.061 217.77 278.139 214.213 281.689C218.311 278.771 221.886 276.056 222.773 274.452ZM214.216 281.689C214.045 281.809 213.866 281.939 213.693 282.058C213.718 282.086 213.744 282.109 213.767 282.14C213.912 281.99 214.065 281.842 214.216 281.689ZM222.08 273.052C220.262 272.787 215.942 273.99 211.138 275.479C216.123 274.801 220.542 274.062 222.08 273.052ZM211.138 275.485C210.903 275.518 210.661 275.546 210.416 275.584C210.424 275.622 210.436 275.66 210.449 275.696C210.681 275.63 210.911 275.553 211.138 275.485ZM222.113 271.489C220.629 270.41 216.24 269.469 211.296 268.559C216.023 270.27 220.287 271.67 222.113 271.489ZM211.296 268.559C211.038 268.464 210.773 268.367 210.518 268.273C210.505 268.322 210.49 268.367 210.48 268.411C210.758 268.459 211.031 268.51 211.296 268.559ZM222.87 270.119C222.059 268.48 218.617 265.608 214.662 262.505C218.048 266.215 221.172 269.438 222.87 270.119ZM214.659 262.508C214.448 262.276 214.233 262.041 214.019 261.806C213.983 261.847 213.945 261.885 213.912 261.924C214.165 262.117 214.417 262.311 214.659 262.508ZM224.178 269.263C224.222 267.432 222.506 263.285 220.445 258.7C221.72 263.561 222.99 267.863 224.178 269.263ZM220.445 258.7C220.358 258.374 220.274 258.04 220.188 257.708C220.134 257.726 220.078 257.747 220.027 257.767C220.165 258.078 220.307 258.392 220.445 258.7Z" fill="url(#paint7_radial)"/>
<path d="M231.326 272.07C231.326 275.385 228.641 278.07 225.326 278.07C222.013 278.07 219.323 275.385 219.323 272.07C219.323 268.758 222.013 266.067 225.326 266.067C228.641 266.067 231.326 268.755 231.326 272.07Z" fill="#4E60A3"/>
<path opacity="0.9" d="M231.326 272.07C231.326 275.385 228.641 278.07 225.326 278.07C222.013 278.07 219.323 275.385 219.323 272.07C219.323 268.758 222.013 266.067 225.326 266.067C228.641 266.067 231.326 268.755 231.326 272.07Z" fill="black"/>
<path opacity="0.5" d="M216.952 279.078C218.097 278.308 219.653 278.619 220.42 279.761C221.188 280.906 220.884 282.462 219.737 283.229C218.589 284.002 217.036 283.696 216.269 282.548C215.501 281.403 215.807 279.845 216.952 279.078Z" fill="url(#paint8_linear)"/>
<path opacity="0.5" d="M230.067 271.234C229.427 272.188 227.596 272.078 225.972 270.989C224.345 269.901 223.549 268.24 224.187 267.289V267.287C224.824 266.333 226.658 266.443 228.279 267.534C229.909 268.62 230.704 270.278 230.067 271.234Z" fill="url(#paint9_linear)"/>
<path opacity="0.75" d="M237.349 268.687C235.901 270.913 232.157 271.046 228.998 268.985C225.836 266.925 224.449 263.452 225.9 261.226C227.348 259.002 231.092 258.869 234.251 260.927C237.41 262.99 238.798 266.466 237.349 268.687Z" fill="url(#paint10_linear)"/>
<path d="M171.886 268.883C173.949 296.675 201.56 329.019 224.176 325.585C250.946 325.855 277.379 305.521 277.379 268.707C277.379 231.893 264.407 201.061 223.505 201.061C194.18 201.058 171.886 232.069 171.886 268.883ZM193.454 267.667C192.163 261.84 206.691 257.535 225.867 259.886C245.038 262.24 258.349 273.973 256.599 279.889C255.63 283.168 229.47 288.163 220.254 287.149C210.911 286.116 196.57 281.735 193.454 267.667Z" fill="#F0C7B1"/>
<path d="M220.254 287.148C229.47 288.163 255.631 283.168 256.6 279.888C258.351 273.972 245.038 262.24 225.867 259.886C209.394 257.866 196.381 260.763 193.849 265.312C196.139 248.992 213.484 236.25 234.616 236.156C257.339 236.061 275.793 250.63 275.855 268.706C275.908 286.781 257.533 301.505 234.812 301.607C212.084 301.701 193.632 287.133 193.571 269.058C193.571 268.791 193.612 268.528 193.62 268.26C197.011 281.844 211.046 286.131 220.254 287.148Z" fill="url(#paint11_radial)"/>
<path d="M193.454 267.666C192.163 261.839 206.691 257.535 225.867 259.886C245.038 262.24 258.349 273.972 256.599 279.888C255.63 283.167 229.47 288.163 220.254 287.148C210.911 286.115 196.57 281.734 193.454 267.666Z" fill="url(#paint12_radial)"/>
<path d="M194.464 254.646C205.194 249.602 218.306 249.138 229.751 252.083C235.881 253.514 242.412 255.36 247.761 258.81C252.721 261.704 256.75 265.185 260.516 269.495C257.094 265.157 253.445 261.544 248.728 258.606C242.924 254.995 236.567 252.756 229.95 251.17C218.255 248.299 205.159 248.952 194.464 254.646Z" fill="#C27B55"/>
<path d="M196.047 256.184C198.291 255.287 206.413 253.634 209.96 253.466C214.262 253.257 222.896 253.785 227.134 254.547C235.738 256.098 250.724 260.879 256.913 272.866C258.815 276.551 257.102 279.129 256.599 279.688C257.364 273.501 244.262 262.485 225.867 260.297C206.691 258.018 192.163 262.192 193.454 267.84C196.57 281.478 210.911 285.723 220.254 286.723C230.707 287.842 250.048 282.799 252.603 282.253C247.506 284.826 233.417 287.595 227.698 288.126C225.8 288.304 221.986 288.391 220.083 288.342C204.913 287.939 194.152 280.246 190.174 269.829C187.619 263.133 190.414 258.433 196.047 256.184Z" fill="black"/>
<path d="M387.501 267.666C388.791 261.839 374.264 257.535 355.088 259.886C335.917 262.24 322.606 273.972 324.355 279.888C325.324 283.167 351.485 288.163 360.701 287.148C370.044 286.115 384.385 281.734 387.501 267.666Z" fill="url(#paint13_radial)"/>
<path d="M371.949 272.07C371.949 280.518 365.097 287.37 356.651 287.37C348.203 287.37 341.349 280.518 341.349 272.07C341.349 263.619 348.203 256.77 356.651 256.77C365.097 256.767 371.949 263.619 371.949 272.07Z" fill="#4E60A3"/>
<path opacity="0.7" d="M354.935 256.938C354.876 256.945 354.815 256.953 354.754 256.96C354.828 257.305 354.902 257.652 354.971 257.996C354.956 257.646 354.948 257.289 354.935 256.938ZM354.968 257.993C355.144 263.022 355.44 267.502 356.289 269.121C356.733 267.347 355.973 262.925 354.968 257.993ZM356.287 269.124C356.18 269.55 356.011 269.84 355.759 269.937C355.501 270.034 355.182 269.922 354.823 269.675C354.925 270.101 354.915 270.432 354.731 270.639C354.548 270.845 354.219 270.896 353.783 270.838C354.068 271.169 354.219 271.472 354.155 271.738C354.083 272.003 353.813 272.202 353.408 272.355C353.811 272.515 354.083 272.714 354.147 272.98C354.211 273.245 354.066 273.548 353.777 273.877C354.211 273.824 354.542 273.88 354.721 274.086C354.902 274.293 354.912 274.627 354.81 275.053C355.17 274.805 355.488 274.698 355.741 274.798C356.001 274.895 356.164 275.185 356.266 275.614C356.47 275.226 356.705 274.979 356.978 274.951C357.245 274.915 357.531 275.101 357.817 275.43C357.822 274.991 357.911 274.668 358.143 274.512C358.365 274.357 358.701 274.387 359.109 274.545C358.911 274.158 358.844 273.829 358.967 273.584C359.097 273.342 359.41 273.212 359.846 273.161C359.487 272.908 359.265 272.651 359.273 272.375C359.27 272.1 359.487 271.842 359.852 271.595C359.415 271.541 359.109 271.411 358.979 271.169C358.852 270.927 358.923 270.595 359.125 270.208C358.714 270.361 358.383 270.391 358.156 270.236C357.929 270.08 357.84 269.756 357.837 269.318C357.554 269.644 357.266 269.825 356.996 269.789C356.723 269.754 356.491 269.514 356.287 269.124ZM357.837 269.315C359.058 267.951 360.441 263.682 361.838 258.85C359.663 263.381 357.842 267.484 357.837 269.315ZM361.838 258.85C361.991 258.539 362.147 258.223 362.294 257.906C362.241 257.889 362.187 257.863 362.134 257.84C362.034 258.179 361.937 258.518 361.838 258.85ZM359.127 270.208C360.843 269.565 364.054 266.426 367.537 262.8C363.503 265.799 359.982 268.586 359.127 270.208ZM367.537 262.8C367.792 262.609 368.052 262.417 368.315 262.226C368.277 262.18 368.238 262.142 368.208 262.101C367.983 262.331 367.762 262.568 367.537 262.8ZM359.849 271.595C361.667 271.819 365.966 270.532 370.74 268.94C365.773 269.726 361.361 270.554 359.849 271.595ZM370.74 268.943C371.021 268.902 371.314 268.856 371.599 268.81C371.587 268.762 371.576 268.713 371.564 268.665C371.291 268.757 371.01 268.851 370.74 268.943ZM359.844 273.158C361.351 274.209 365.755 275.063 370.715 275.869C365.956 274.255 361.665 272.941 359.844 273.158ZM370.715 275.869C370.957 275.953 371.199 276.04 371.441 276.119C371.454 276.075 371.464 276.034 371.474 275.991C371.225 275.953 370.964 275.912 370.715 275.869ZM359.109 274.543C359.956 276.167 363.465 278.975 367.479 281.999C364.016 278.352 360.826 275.195 359.109 274.543ZM367.481 281.994C367.632 282.152 367.785 282.315 367.935 282.476C367.961 282.445 367.986 282.422 368.014 282.394C367.836 282.262 367.652 282.126 367.481 281.994ZM357.824 275.428C357.817 277.261 359.614 281.372 361.769 285.916C360.392 281.078 359.038 276.799 357.824 275.428ZM361.769 285.918C361.823 286.109 361.879 286.306 361.93 286.502C361.968 286.487 361.996 286.477 362.029 286.466C361.943 286.283 361.853 286.094 361.769 285.918ZM356.269 275.611C355.412 277.235 355.093 281.706 354.887 286.732C355.917 281.81 356.705 277.391 356.269 275.611ZM354.887 286.732C354.843 286.923 354.808 287.117 354.767 287.313C354.803 287.321 354.828 287.321 354.866 287.326C354.871 287.129 354.882 286.925 354.887 286.732ZM354.81 275.05C353.29 276.088 350.932 279.905 348.415 284.256C351.615 280.38 354.366 276.83 354.81 275.05ZM348.415 284.256C348.282 284.416 348.142 284.587 348.004 284.748C348.037 284.768 348.065 284.783 348.099 284.809C348.203 284.625 348.313 284.439 348.415 284.256ZM353.777 273.88C351.952 274.091 348.091 276.374 343.84 279.054C348.476 277.111 352.556 275.252 353.777 273.88ZM343.84 279.059C343.618 279.151 343.394 279.242 343.169 279.339C343.185 279.372 343.205 279.408 343.228 279.441C343.432 279.316 343.636 279.186 343.84 279.059ZM353.408 272.357C351.694 271.702 347.211 271.929 342.198 272.329C347.209 272.758 351.689 273.005 353.408 272.357ZM342.198 272.329C341.928 272.304 341.645 272.278 341.377 272.255C341.374 272.304 341.369 272.352 341.374 272.398C341.652 272.373 341.93 272.35 342.198 272.329ZM353.783 270.843C352.574 269.468 348.507 267.586 343.883 265.613C348.114 268.316 351.964 270.621 353.783 270.843ZM343.883 265.613C343.618 265.442 343.348 265.271 343.08 265.1C343.057 265.148 343.032 265.197 343.009 265.24C343.302 265.365 343.6 265.488 343.883 265.613ZM354.823 269.675C354.392 267.895 351.658 264.335 348.486 260.436C350.975 264.802 353.313 268.629 354.823 269.675ZM348.486 260.436C348.315 260.143 348.147 259.844 347.981 259.546C347.933 259.579 347.882 259.612 347.836 259.646C348.053 259.908 348.275 260.173 348.486 260.436Z" fill="url(#paint14_radial)"/>
<path opacity="0.4" d="M358.908 256.988C358.847 256.981 358.788 256.971 358.73 256.963C358.709 257.315 358.689 257.669 358.668 258.019C358.742 257.677 358.827 257.33 358.908 256.988ZM358.666 258.016C357.536 262.917 356.659 267.321 357.059 269.109C357.952 267.507 358.36 263.04 358.666 258.016ZM357.059 269.109C356.845 269.491 356.608 269.728 356.338 269.756C356.067 269.782 355.787 269.593 355.504 269.259C355.494 269.695 355.397 270.016 355.165 270.167C354.935 270.317 354.601 270.282 354.196 270.113C354.387 270.508 354.453 270.84 354.321 271.077C354.183 271.317 353.872 271.439 353.438 271.48C353.79 271.738 353.999 272 353.992 272.276C353.987 272.548 353.765 272.803 353.405 273.046C353.839 273.107 354.142 273.247 354.265 273.489C354.387 273.734 354.311 274.063 354.101 274.446C354.515 274.3 354.849 274.28 355.07 274.441C355.292 274.601 355.376 274.925 355.364 275.366C355.662 275.047 355.948 274.866 356.223 274.91C356.491 274.945 356.718 275.198 356.912 275.593C357.029 275.167 357.2 274.882 357.462 274.79C357.72 274.698 358.039 274.815 358.388 275.073C358.299 274.647 358.317 274.311 358.503 274.109C358.686 273.908 359.023 273.864 359.459 273.925C359.178 273.589 359.031 273.285 359.107 273.02C359.176 272.755 359.454 272.561 359.87 272.416C359.464 272.253 359.199 272.046 359.135 271.778C359.079 271.511 359.232 271.21 359.528 270.888C359.089 270.929 358.758 270.873 358.584 270.664C358.406 270.455 358.401 270.118 358.515 269.698C358.151 269.937 357.83 270.039 357.577 269.935C357.317 269.83 357.154 269.537 357.059 269.109ZM358.508 269.698C360.04 268.693 362.478 264.927 365.082 260.625C361.805 264.437 358.985 267.925 358.508 269.698ZM365.082 260.622C365.309 260.362 365.541 260.097 365.768 259.829C365.717 259.796 365.673 259.758 365.625 259.722C365.444 260.025 365.263 260.329 365.082 260.622ZM359.523 270.891C361.346 270.712 365.258 268.509 369.562 265.911C364.888 267.765 360.765 269.545 359.523 270.891ZM369.56 265.908C369.855 265.791 370.156 265.674 370.462 265.556C370.437 265.503 370.409 265.454 370.391 265.406C370.115 265.574 369.84 265.745 369.56 265.908ZM359.859 272.418C361.558 273.107 366.046 272.974 371.069 272.676C366.063 272.146 361.591 271.804 359.859 272.418ZM371.067 272.673C371.35 272.707 371.643 272.737 371.931 272.768C371.934 272.717 371.934 272.668 371.936 272.62C371.648 272.638 371.352 272.656 371.067 272.673ZM359.454 273.928C360.635 275.333 364.671 277.297 369.251 279.357C365.072 276.565 361.267 274.188 359.454 273.928ZM369.248 279.357C369.458 279.502 369.674 279.648 369.886 279.785C369.909 279.747 369.932 279.709 369.947 279.671C369.72 279.571 369.48 279.464 369.248 279.357ZM358.385 275.076C358.781 276.863 361.443 280.482 364.539 284.444C362.134 280.023 359.875 276.147 358.385 275.076ZM364.541 284.437C364.646 284.628 364.75 284.827 364.857 285.021C364.888 284.998 364.916 284.98 364.952 284.959C364.814 284.786 364.671 284.607 364.541 284.437ZM356.912 275.596C356.432 277.363 357.105 281.8 358.008 286.747C357.929 281.718 357.73 277.235 356.912 275.596ZM358.005 286.747C358.008 286.946 358.013 287.15 358.013 287.354C358.051 287.349 358.079 287.344 358.115 287.344C358.082 287.147 358.044 286.943 358.005 286.747ZM355.361 275.369C354.114 276.715 352.648 280.951 351.149 285.752C353.418 281.267 355.323 277.202 355.361 275.369ZM351.149 285.752C351.059 285.926 350.973 286.104 350.883 286.283C350.914 286.298 350.939 286.306 350.973 286.321C351.031 286.135 351.092 285.939 351.149 285.752ZM354.099 274.451C352.365 275.06 349.098 278.138 345.541 281.688C349.636 278.77 353.211 276.055 354.099 274.451ZM345.541 281.688C345.37 281.808 345.189 281.938 345.018 282.057C345.044 282.085 345.069 282.108 345.092 282.139C345.238 281.989 345.393 281.841 345.541 281.688ZM353.405 273.051C351.587 272.786 347.27 273.989 342.466 275.478C347.448 274.8 351.87 274.061 353.405 273.051ZM342.466 275.484C342.229 275.517 341.986 275.545 341.744 275.583C341.754 275.621 341.765 275.659 341.777 275.695C342.007 275.629 342.236 275.552 342.466 275.484ZM353.438 271.488C351.954 270.409 347.566 269.468 342.621 268.558C347.349 270.269 351.613 271.669 353.438 271.488ZM342.621 268.558C342.364 268.463 342.099 268.366 341.844 268.272C341.828 268.321 341.816 268.366 341.805 268.41C342.081 268.458 342.356 268.509 342.621 268.558ZM354.196 270.118C353.385 268.479 349.94 265.607 345.985 262.504C349.374 266.214 352.497 269.437 354.196 270.118ZM345.985 262.507C345.773 262.275 345.559 262.04 345.345 261.805C345.306 261.846 345.273 261.884 345.235 261.923C345.488 262.116 345.745 262.31 345.985 262.507ZM355.504 269.262C355.547 267.431 353.831 263.284 351.771 258.699C353.048 263.56 354.316 267.862 355.504 269.262ZM351.771 258.699C351.684 258.373 351.6 258.039 351.511 257.707C351.457 257.725 351.401 257.746 351.35 257.766C351.49 258.077 351.633 258.391 351.771 258.699Z" fill="url(#paint15_radial)"/>
<path d="M362.651 272.069C362.651 275.384 359.964 278.069 356.651 278.069C353.336 278.069 350.648 275.384 350.648 272.069C350.648 268.757 353.339 266.066 356.651 266.066C359.969 266.066 362.651 268.754 362.651 272.069Z" fill="#4E60A3"/>
<path opacity="0.9" d="M362.651 272.069C362.651 275.384 359.964 278.069 356.651 278.069C353.336 278.069 350.648 275.384 350.648 272.069C350.648 268.757 353.339 266.066 356.651 266.066C359.969 266.066 362.651 268.754 362.651 272.069Z" fill="black"/>
<path opacity="0.5" d="M348.279 279.077C349.421 278.307 350.98 278.618 351.745 279.76C352.515 280.905 352.211 282.461 351.061 283.228C349.914 284.001 348.361 283.695 347.596 282.547C346.826 281.402 347.132 279.844 348.279 279.077Z" fill="url(#paint16_linear)"/>
<path opacity="0.5" d="M361.389 271.233C360.749 272.187 358.918 272.077 357.296 270.988C355.669 269.9 354.873 268.239 355.511 267.288L355.513 267.286C356.151 266.332 357.984 266.442 359.606 267.533C361.233 268.619 362.029 270.277 361.389 271.233Z" fill="url(#paint17_linear)"/>
<path opacity="0.75" d="M368.677 268.686C367.226 270.912 363.485 271.045 360.323 268.984C357.163 266.924 355.774 263.451 357.225 261.225C358.673 259.001 362.414 258.868 365.576 260.926C368.735 262.989 370.122 266.465 368.677 268.686Z" fill="url(#paint18_linear)"/>
<path d="M357.447 201.058C316.545 201.058 303.573 231.89 303.573 268.704C303.573 305.518 330.007 325.855 356.776 325.582C379.392 329.017 407.004 296.672 409.067 268.88C409.069 232.068 386.772 201.058 357.447 201.058ZM360.701 287.148C351.485 288.163 325.325 283.168 324.356 279.888C322.604 273.972 335.917 262.24 355.088 259.886C374.264 257.535 388.792 261.842 387.501 267.666C384.385 281.734 370.044 286.115 360.701 287.148Z" fill="#F0C7B1"/>
<path d="M360.701 287.148C351.485 288.163 325.325 283.168 324.356 279.888C322.604 273.972 335.917 262.24 355.088 259.886C371.561 257.866 384.574 260.766 387.106 265.312C384.816 248.992 367.471 236.25 346.339 236.156C323.616 236.061 305.162 250.63 305.101 268.706C305.047 286.781 323.422 301.505 346.143 301.607C368.871 301.701 387.323 287.133 387.384 269.058C387.384 268.791 387.343 268.528 387.336 268.26C383.942 281.844 369.906 286.131 360.701 287.148Z" fill="url(#paint19_radial)"/>
<path d="M387.501 267.666C388.791 261.839 374.264 257.535 355.088 259.886C335.917 262.24 322.606 273.972 324.355 279.888C325.324 283.167 351.485 288.163 360.701 287.148C370.044 286.115 384.385 281.734 387.501 267.666Z" fill="url(#paint20_radial)"/>
<path d="M386.489 254.646C375.759 249.602 362.647 249.138 351.202 252.083C345.072 253.514 338.542 255.36 333.192 258.81C328.232 261.704 324.203 265.185 320.437 269.495C323.859 265.157 327.508 261.544 332.225 258.606C338.029 254.995 344.386 252.756 351.003 251.17C362.7 248.299 375.797 248.952 386.489 254.646Z" fill="#C27B55"/>
<path d="M384.908 256.183C382.664 255.286 374.542 253.633 370.995 253.465C366.693 253.256 358.059 253.784 353.821 254.546C345.217 256.097 330.231 260.878 324.042 272.865C322.14 276.55 323.853 279.128 324.356 279.687C323.591 273.5 336.693 262.484 355.088 260.296C374.264 258.017 388.792 262.191 387.501 267.839C384.385 281.477 370.044 285.722 360.701 286.722C350.248 287.842 330.907 282.798 328.352 282.252C333.449 284.825 347.538 287.594 353.257 288.125C355.155 288.303 358.969 288.39 360.872 288.341C376.042 287.938 386.803 280.245 390.781 269.828C393.336 263.132 390.541 258.432 384.908 256.183Z" fill="black"/>
<path d="M395.536 347.867C395.625 405.553 348.892 452.402 291.144 452.481C233.407 452.575 186.523 405.885 186.434 348.186C186.344 290.505 233.078 243.473 290.823 243.381C348.563 243.292 395.452 290.173 395.536 347.867Z" fill="url(#paint21_radial)"/>
<path d="M386.611 194.931C386.611 247.744 343.799 290.556 290.989 290.556C238.176 290.556 195.361 247.744 195.361 194.931C195.361 142.118 238.176 99.3057 290.989 99.3057C343.799 99.3057 386.611 142.118 386.611 194.931Z" fill="url(#paint22_radial)"/>
<path d="M173.687 246.415C199.069 220.981 216.427 231.332 251.688 238.092C253.843 238.505 267.804 242.016 265.229 246.938C263.997 249.294 260.037 249.013 257.826 248.973C222.922 248.32 205.949 223.485 173.687 246.415Z" fill="#2A232B"/>
<path d="M408.286 246.415C382.906 220.981 365.545 231.332 330.284 238.092C328.127 238.505 314.168 242.016 316.741 246.938C317.973 249.294 321.933 249.013 324.144 248.973C359.048 248.32 376.023 223.485 408.286 246.415Z" fill="#2A232B"/>
<path d="M282.905 282.969C282.905 282.969 279.338 311.317 277.739 316.835C274.223 328.953 262.011 345.949 264.38 353.629C269.12 368.985 283.599 365.086 291.216 365.03C298.262 364.974 311.799 368.988 314.579 358.987C315.477 355.758 313.454 347.598 313.454 347.598C313.454 347.598 306.712 355.534 290.823 354.654C286.289 354.402 278.912 349.31 278.828 342.129C278.718 332.395 283.423 324.189 284.451 314.528C285.226 307.189 282.905 282.969 282.905 282.969Z" fill="#E1AC8F"/>
<path d="M304.231 360.603C306.972 360.603 307.714 361.435 307.714 362.462C307.714 363.493 306.86 365.079 304.231 364.324C301.339 363.5 296.293 363.878 296.293 363.878C296.293 363.878 301.484 360.603 304.231 360.603ZM278.037 360.603C275.291 360.606 274.554 361.44 274.554 362.473C274.551 363.5 275.377 364.979 278.037 364.332C280.97 363.612 285.973 363.885 285.973 363.885C285.973 363.885 280.783 360.614 278.037 360.603ZM313.451 347.598C313.451 347.598 317.248 352.528 316.46 357.735C315.693 362.791 308.02 365.03 308.02 365.03C308.02 365.03 313.347 361.164 313.992 356.472C314.293 354.272 313.451 347.598 313.451 347.598ZM266.575 342.534C266.575 342.534 263.806 349.429 264.606 353.632C266.062 361.221 274.051 364.25 274.051 364.25C274.051 364.25 269.066 359.051 267.294 354.453C265.353 349.429 266.575 342.534 266.575 342.534Z" fill="#C27B55"/>
<path d="M304.095 351.276C306.755 349.009 307.023 347.716 306.472 346.867C305.924 346.015 304.328 345.477 302.101 348.213C299.646 351.222 294.309 353.451 294.309 353.451C294.309 353.451 301.436 353.537 304.095 351.276Z" fill="#FFE4D6"/>
<path d="M275.228 410.867C284.612 407.093 284.535 409.923 296.01 409.133C299.912 408.852 303.737 408.98 307.103 411.555C304.553 414.794 295.398 426.014 292.185 433.103C283.617 419.486 282.47 418.083 275.228 410.867Z" fill="#2A232B"/>
<path d="M286.779 420.276C283.591 414.258 283.999 415.151 281.857 411.912C284.178 414.309 285.402 415.635 286.779 420.276ZM287.263 412.907C287.62 414.845 289.864 424.509 290.476 426.473C290.068 420.71 289.354 418.032 287.263 412.907ZM291.522 412.626C291.369 411.938 291.496 411.428 291.496 411.428C291.496 411.428 291.267 411.938 291.318 412.652C291.394 414.539 291.751 416.987 291.751 416.987C291.853 418.338 292.185 420.378 292.185 420.378C292.287 417.726 292.236 416.12 291.522 412.626ZM296.698 412.703C294.556 416.961 293.791 419.333 294.046 425.096C294.964 419.078 295.066 418.236 296.698 412.703ZM301.416 411.912C299.376 413.238 297.922 416.375 298.56 419.664C298.585 416.706 299.937 413.493 301.416 411.912Z" fill="#1B141C"/>
<path d="M295.373 408.928C286.091 409.999 285.224 406.48 274.769 410.79C282.852 418.797 283.49 419.868 292.211 433.663C295.296 426.472 305.394 414.079 307.46 411.529C303.176 408.087 297.923 408.75 295.373 408.928ZM291.828 432.057C288.233 425.733 286.116 421.219 282.444 417.292C282.215 417.063 276.146 411.096 275.814 411.096C284.739 408.367 282.368 410.841 299.402 409.872C301.85 409.999 304.502 410.382 306.644 411.657C297.234 421.398 299.198 421.143 294.939 426.574C293.613 428.283 292.415 429.889 291.828 432.057Z" fill="#0C080C"/>
<path d="M290.987 374.656L285.071 382.816C284.051 384.244 282.419 385.111 280.659 385.162L236.621 386.59C236.034 386.616 235.499 386.233 235.346 385.647C235.193 385.06 235.422 384.474 235.932 384.168L244.959 378.94C246.107 378.277 247.407 377.869 248.733 377.767L290.987 374.656ZM290.987 374.656L296.903 382.816C297.923 384.244 299.555 385.111 301.314 385.162L345.353 386.59C345.939 386.616 346.475 386.233 346.628 385.647C346.781 385.086 346.551 384.474 346.041 384.168L337.014 378.94C335.867 378.277 334.566 377.869 333.24 377.767L290.987 374.656Z" fill="#2A232B"/>
<path d="M150.67 299.215C144.491 276.736 141.164 257.055 136.543 236.523L136.755 236.474C135.005 232.167 128.692 198.071 128.633 197.704C122.194 152.391 141.365 149.805 140.975 130.899C149.046 134.941 156.892 132.937 163.973 127.419C156.532 123.596 158.881 122.992 149 116.976C155.964 115.773 160.031 117.397 165.947 118.134C160.89 113.077 150.966 102.763 144.517 104.129L144.096 103.227C153.432 95.9414 165.893 111.109 177.129 107.001C177.468 65.2497 238.5 56.5797 253.353 50.3755C273.129 42.8505 293.786 26.301 308.313 24.822C300.09 33.0865 295.053 46.3669 294.679 56.3349C306.658 44.8956 307.505 45.2296 325.664 25.0617C325.664 41.2899 321.168 43.3273 315.334 52.8516C331.172 42.4731 350.919 13.3546 381.33 8.90234L381.664 9.84584C370.704 16.3024 362.223 27.196 356.424 42.2512C362.18 35.2999 370.324 27.7596 379.339 26.3953L379.678 27.3363C374.029 30.715 362.965 41.9784 360.433 60.8382C371.604 48.361 389.375 38.0208 401.574 34.1142L402.051 34.9965C390.852 44.1076 386.361 60.0579 383.829 73.6188C391.683 61.9398 396.253 59.2776 406.134 54.3714C402.954 59.1271 403.161 58.2958 400.631 63.4647C406.741 79.0783 426.929 79.6852 430.379 106.965C434.536 103.334 436.186 102.424 440.964 99.0805L441.683 99.7741C438.093 105.351 435.132 115.227 433.161 121.837C440.25 116.423 451.197 112.435 458.906 109.653L459.444 110.489C452.939 117.101 445.042 127.181 443.731 138.116C446.281 136.606 446.403 136.78 449.724 134.378C449.724 142.234 449.991 141.232 450.047 144.845C453.253 141.977 453.745 141.576 455.851 139.284C455.385 221.807 451.146 205.359 439.743 262.872C437.744 272.978 434.207 290.624 431.937 299.1L416.512 301.749C421.281 244.645 416.275 257.094 419.743 221.159C424.874 168.173 381.993 124.739 325.33 138.955C313.865 141.831 268.108 141.829 256.648 138.955C194.053 123.239 171.501 159.814 164.782 223.814C161.49 255.225 160.684 244.624 165.462 301.749L150.67 299.215Z" fill="#2A232B"/>
<path d="M450.045 144.848C449.991 141.232 449.721 142.237 449.721 134.381C446.401 136.78 446.278 136.609 443.728 138.119C445.039 127.184 452.936 117.104 459.441 110.492L458.903 109.656C451.197 112.44 440.25 116.426 433.159 121.84C435.127 115.23 438.09 105.354 441.681 99.777L440.962 99.0834C436.183 102.426 434.533 103.337 430.377 106.968C426.926 79.6907 406.738 79.0812 400.628 63.4676C403.158 58.2987 402.951 59.13 406.131 54.3743C396.25 59.2805 391.68 61.9427 383.826 73.6217C386.359 60.0608 390.852 44.1106 402.049 34.9994L401.572 34.1171C389.373 38.0237 371.602 48.364 360.43 60.8411C362.962 41.9813 374.027 30.718 379.675 27.3392L379.336 26.3983C370.322 27.7625 362.177 35.3054 356.422 42.2542C362.22 27.199 370.704 16.3054 381.661 9.84877L381.327 8.90527C350.916 13.3576 331.169 42.476 315.331 52.8545C321.165 43.3303 325.661 41.2903 325.661 25.0646C307.502 45.2326 306.656 44.8985 294.676 56.3378C295.048 46.3699 300.087 33.0869 308.311 24.8249C293.786 26.3039 273.128 42.8509 253.351 50.3784C238.499 56.58 177.468 65.25 177.129 107.004C165.893 111.112 153.431 95.9444 144.096 103.23L144.517 104.132C150.966 102.763 160.89 113.078 165.947 118.137C160.033 117.4 155.964 115.776 149 116.979C158.881 122.995 156.532 123.599 163.973 127.422C156.892 132.94 149.045 134.944 140.975 130.902C141.365 149.811 122.191 152.396 128.633 197.707C128.691 198.074 135.005 232.17 136.754 236.477L136.543 236.526C141.163 257.058 144.491 276.742 150.67 299.218L150.736 299.225C149.051 257.298 122.635 197.694 138.137 159.516C140.159 154.531 147.982 141.383 147.982 141.383C147.982 141.383 172.531 138.16 173.686 128.633C173.686 128.633 168.586 126.083 166.036 123.533C171.136 126.083 171.136 118.433 176.236 120.983C176.236 115.883 168.586 118.433 168.586 113.333C173.686 113.333 178.786 113.333 183.886 118.433C181.336 105.683 183.886 92.9328 194.086 85.2828C219.586 64.8828 252.736 67.4328 278.236 47.0329C275.686 59.7828 273.136 72.5328 273.136 85.2828C288.436 77.6328 293.536 62.3328 306.286 52.1328C308.836 62.3328 303.736 75.0828 303.736 85.2828C311.386 67.4328 321.586 49.5828 344.536 44.4829C334.336 54.6828 334.336 69.9828 334.336 82.7328C334.336 72.5328 344.536 67.4328 347.086 59.7828C347.086 69.9828 347.086 80.1828 347.086 90.3828C352.186 75.0828 362.386 67.4328 375.136 62.3328C364.936 72.5328 367.486 82.7328 364.936 95.4828C372.586 87.8328 382.786 85.2828 390.436 77.6328C398.086 92.9328 392.986 105.683 392.986 120.983C395.536 108.233 408.286 100.583 415.936 90.3828C418.486 103.133 418.486 115.883 415.936 128.633C418.486 120.983 423.586 115.883 426.136 108.233C426.136 120.626 424.433 131.341 421.087 141.745C424.287 138.042 429.512 136.362 431.236 131.183C431.236 142.212 431.236 151.338 431.236 161.852C432.715 158.812 437.075 157.751 438.886 154.133C436.708 162.836 438.238 169.695 438.735 177.853C439.681 172.855 444.493 169.79 446.232 165.187C446.334 163.203 446.439 161.217 446.533 159.233C447.117 161.558 446.878 163.476 446.232 165.187C443.907 210.503 439.62 255.753 430.28 299.388L431.932 299.105C434.202 290.629 437.736 272.983 439.738 262.877C451.144 205.365 455.382 221.812 455.846 139.289C453.742 141.582 453.25 141.982 450.045 144.848Z" fill="#3A353A"/>
<path d="M463.823 107.455C451.203 109.582 442.388 113.672 435.645 118.293C436.627 115.73 441.237 101.284 446.202 95.2151C438.578 98.6142 434.166 102.261 431.616 104.166C431.616 101.534 430.601 98.4944 430.112 96.9236C429.63 95.6103 429.224 94.0752 426.871 90.2426C413.685 71.6378 412.861 79.4204 402.062 65.1761C404.03 60.5581 406.879 56.0675 410.451 52.3496C400.486 53.7649 395.241 57.6409 388.929 63.8501C388.827 63.9521 388.751 64.0541 388.674 64.1561C392.629 48.5348 400.379 34.9918 415.602 29.9096C396.773 29.2262 373.464 43.1492 361.746 57.0416C366.806 40.7701 373.594 33.0181 383.679 25.8041C376.422 24.7306 369.31 27.6962 363.684 32.3831C370.164 21.1708 379.793 12.2407 387.529 8.08164C386.43 8.05614 385.132 7.97964 383.704 8.08164C381.723 7.57419 369.733 9.52494 365.446 11.3711C344.207 19.6637 328.754 38.9672 322.122 45.2351C327.008 37.3352 327.247 31.7252 326.355 23.5091C324.685 24.9448 296.737 51.6994 296.392 52.0436C298.374 41.0557 302.117 34.3543 309.193 24.5291C296.579 22.1678 264.997 42.9325 245.418 48.4736C224.906 54.0301 174.008 65.6172 176.339 106.359C165.386 108.447 149.349 90.8622 140.945 105.619C147.692 101.616 156.63 111.255 162.849 116.763C160.299 116.347 151.774 114.345 147.651 117.094C152.481 118.968 156.704 124.571 162.671 127.549C162.747 127.575 162.824 127.6 162.9 127.651C157.446 130.527 150.999 132.838 145.076 131.196C144.183 130.941 143.597 130.788 143.597 130.762C142.908 130.456 142.169 130.15 141.378 129.793H141.353L141.327 129.768C140.996 129.589 140.664 129.411 140.307 129.232C142.079 143.532 120.374 155.127 122.763 185.383C123.745 204.001 135.383 260.628 150.012 299.026L151.244 299.393C145.144 277.397 141.613 256.706 137.043 236.406C136.645 236.406 129.207 198.044 129.138 197.62C122.748 152.661 141.873 149.4 141.506 131.729C149.464 135.709 158.162 132.84 164.915 127.317C156.964 123.362 158.659 122.248 150.431 117.245C155.946 116.291 162.678 118.476 167.312 118.775C161.329 112.792 151.249 102.174 144.413 103.628C153.511 96.5258 166.08 111.969 177.639 107.351C177.639 65.5739 238.133 57.2813 253.552 50.8426C272.094 43.7893 295.074 26.6788 306.947 25.4701C300.725 31.738 294.146 45.6176 294.146 57.5491C306.473 45.7222 307.686 45.7808 325.154 26.3881C325.154 41.7238 319.424 44.4625 313.855 54.3616C330.211 44.9317 350.011 14.0002 381.404 9.40509C368.262 17.1494 359.895 30.6338 354.859 45.0286C360.856 37.2281 369.649 28.3771 379.415 26.8981C374.292 29.9632 361.92 41.6422 359.729 62.4196C370.809 49.3789 389.274 38.5873 401.728 34.5991C389.985 44.1565 385.489 61.0451 382.883 75.96C387.185 69.3989 391.444 63.4727 398.107 59.2831C398.135 59.2576 398.183 59.2321 398.209 59.2321C400.833 57.4496 400.147 57.9341 404.637 55.6876C402.931 58.2376 402.773 57.9061 400.073 63.4395C406.259 79.7009 426.906 79.7927 429.982 107.988C434.717 103.788 436.206 103.031 441.253 99.4965C437.321 105.601 434.154 116.755 432.2 123.263C439.608 116.926 453.312 112.221 459.077 110.13C451.427 117.908 443.999 128.225 443.114 139.098C444.68 138.045 446.669 137.211 449.209 135.375C449.209 142.321 449.54 141.393 449.54 145.983C450.882 144.756 453.926 142.132 455.331 140.602C454.832 221.478 450.537 205.791 439.238 262.773C435.01 284.132 432.779 294.01 431.382 299.195L432.473 298.973C441.612 271.558 459.852 209.616 459.029 177.552C458.945 165.567 456.328 140.577 456.198 138.027C456.145 138.073 450.884 143.05 450.818 143.05C450.818 141.747 450.282 136.204 450.282 133.182C449.382 133.873 447.49 135.166 444.953 136.65C448.469 126.034 453.822 119.438 463.823 107.455Z" fill="black"/>
</g>
<defs>
<linearGradient id="paint0_linear" x1="300" y1="-75" x2="300" y2="675" gradientUnits="userSpaceOnUse">
<stop stop-color="#151371"/>
<stop offset="0.453125" stop-color="#FF00B8"/>
<stop offset="0.96875" stop-color="#FFC700"/>
</linearGradient>
<linearGradient id="paint1_linear" x1="439" y1="245" x2="439" y2="644" gradientUnits="userSpaceOnUse">
<stop stop-color="#FF00B8"/>
<stop offset="1" stop-color="#F0DB0A" stop-opacity="0"/>
</linearGradient>
<linearGradient id="paint2_linear" x1="194" y1="161" x2="194" y2="560" gradientUnits="userSpaceOnUse">
<stop stop-color="#FF00B8"/>
<stop offset="1" stop-color="#F0DB0A" stop-opacity="0"/>
</linearGradient>
<linearGradient id="paint3_linear" x1="290.987" y1="490.732" x2="290.987" y2="393.832" gradientUnits="userSpaceOnUse">
<stop stop-color="#E1AC8F" stop-opacity="0.8"/>
<stop offset="0.7" stop-color="#C27B55"/>
</linearGradient>
<linearGradient id="paint4_linear" x1="290.986" y1="414.233" x2="290.986" y2="409.133" gradientUnits="userSpaceOnUse">
<stop offset="0.1" stop-color="#E8B9A0"/>
<stop offset="1" stop-color="#E1AC8F"/>
</linearGradient>
<radialGradient id="paint5_radial" cx="0" cy="0" r="1" gradientUnits="userSpaceOnUse" gradientTransform="translate(222.758 272.621) rotate(174.019) scale(38.5462)">
<stop stop-color="white"/>
<stop offset="0.315" stop-color="#FCFDFD"/>
<stop offset="0.504" stop-color="#F4F7F8"/>
<stop offset="0.66" stop-color="#E5ECEF"/>
<stop offset="0.76" stop-color="#D8E2E7"/>
</radialGradient>
<radialGradient id="paint6_radial" cx="0" cy="0" r="1" gradientUnits="userSpaceOnUse" gradientTransform="translate(225.131 272.121) rotate(-14.4847) scale(15.1072 15.1105)">
<stop stop-color="white"/>
<stop offset="1" stop-color="white" stop-opacity="0"/>
</radialGradient>
<radialGradient id="paint7_radial" cx="0" cy="0" r="1" gradientUnits="userSpaceOnUse" gradientTransform="translate(225.132 272.138) rotate(0.512025) scale(15.0985 15.0988)">
<stop stop-color="white"/>
<stop offset="1" stop-color="white" stop-opacity="0"/>
</radialGradient>
<linearGradient id="paint8_linear" x1="216.832" y1="282.954" x2="219.219" y2="280.108" gradientUnits="userSpaceOnUse">
<stop stop-color="white"/>
<stop offset="1" stop-color="white" stop-opacity="0"/>
</linearGradient>
<linearGradient id="paint9_linear" x1="228.415" y1="267.725" x2="226.505" y2="270.003" gradientUnits="userSpaceOnUse">
<stop stop-color="white"/>
<stop offset="1" stop-color="white" stop-opacity="0"/>
</linearGradient>
<linearGradient id="paint10_linear" x1="234.595" y1="261.417" x2="230.194" y2="266.662" gradientUnits="userSpaceOnUse">
<stop stop-color="white"/>
<stop offset="1" stop-color="white" stop-opacity="0"/>
</linearGradient>
<radialGradient id="paint11_radial" cx="0" cy="0" r="1" gradientUnits="userSpaceOnUse" gradientTransform="translate(234.916 267.599) rotate(1.19182) scale(40.8083 32.645)">
<stop stop-color="#E1AC8F"/>
<stop offset="0.7" stop-color="#E1AC8F" stop-opacity="0.3"/>
<stop offset="1" stop-color="#F0C7B1" stop-opacity="0"/>
</radialGradient>
<radialGradient id="paint12_radial" cx="0" cy="0" r="1" gradientUnits="userSpaceOnUse" gradientTransform="translate(213.383 339.949) scale(77.8158)">
<stop offset="0.95" stop-opacity="0"/>
<stop offset="1" stop-opacity="0.2"/>
</radialGradient>
<radialGradient id="paint13_radial" cx="0" cy="0" r="1" gradientUnits="userSpaceOnUse" gradientTransform="translate(358.199 272.619) rotate(5.98141) scale(38.5436)">
<stop stop-color="white"/>
<stop offset="0.316" stop-color="#FCFDFD"/>
<stop offset="0.505" stop-color="#F4F7F8"/>
<stop offset="0.661" stop-color="#E5ECEF"/>
<stop offset="0.76" stop-color="#D8E2E7"/>
</radialGradient>
<radialGradient id="paint14_radial" cx="0" cy="0" r="1" gradientUnits="userSpaceOnUse" gradientTransform="translate(356.455 272.12) rotate(-14.4847) scale(15.1075 15.1108)">
<stop stop-color="white"/>
<stop offset="1" stop-color="white" stop-opacity="0"/>
</radialGradient>
<radialGradient id="paint15_radial" cx="0" cy="0" r="1" gradientUnits="userSpaceOnUse" gradientTransform="translate(356.457 272.136) rotate(0.512025) scale(15.099 15.0993)">
<stop stop-color="white"/>
<stop offset="1" stop-color="white" stop-opacity="0"/>
</radialGradient>
<linearGradient id="paint16_linear" x1="348.157" y1="282.953" x2="350.543" y2="280.107" gradientUnits="userSpaceOnUse">
<stop stop-color="white"/>
<stop offset="1" stop-color="white" stop-opacity="0"/>
</linearGradient>
<linearGradient id="paint17_linear" x1="359.739" y1="267.724" x2="357.829" y2="270.002" gradientUnits="userSpaceOnUse">
<stop stop-color="white"/>
<stop offset="1" stop-color="white" stop-opacity="0"/>
</linearGradient>
<linearGradient id="paint18_linear" x1="365.92" y1="261.416" x2="361.519" y2="266.661" gradientUnits="userSpaceOnUse">
<stop stop-color="white"/>
<stop offset="1" stop-color="white" stop-opacity="0"/>
</linearGradient>
<radialGradient id="paint19_radial" cx="0" cy="0" r="1" gradientUnits="userSpaceOnUse" gradientTransform="translate(346.038 267.599) rotate(178.808) scale(40.8083 32.645)">
<stop stop-color="#E1AC8F"/>
<stop offset="0.7" stop-color="#E1AC8F" stop-opacity="0.3"/>
<stop offset="1" stop-color="#F0C7B1" stop-opacity="0"/>
</radialGradient>
<radialGradient id="paint20_radial" cx="0" cy="0" r="1" gradientUnits="userSpaceOnUse" gradientTransform="translate(367.574 339.949) rotate(180) scale(77.8158)">
<stop offset="0.95" stop-opacity="0"/>
<stop offset="1" stop-opacity="0.2"/>
</radialGradient>
<radialGradient id="paint21_radial" cx="0" cy="0" r="1" gradientUnits="userSpaceOnUse" gradientTransform="translate(290.986 347.933) scale(104.55)">
<stop stop-color="#FFE4D6" stop-opacity="0.5"/>
<stop offset="0.9" stop-color="#F0C7B1" stop-opacity="0"/>
</radialGradient>
<radialGradient id="paint22_radial" cx="0" cy="0" r="1" gradientUnits="userSpaceOnUse" gradientTransform="translate(290.986 194.933) scale(94.3499)">
<stop stop-color="#FFE4D6" stop-opacity="0.5"/>
<stop offset="0.9" stop-color="#F0C7B1" stop-opacity="0"/>
</radialGradient>
<clipPath id="clip0">
<rect width="600" height="600" fill="white"/>
</clipPath>
</defs>
</svg>
