<svg width="600" height="600" viewBox="0 0 600 600" fill="none" xmlns="http://www.w3.org/2000/svg">
<g clip-path="url(#clip0)">
<path d="M675 675H-75V-75H675V675Z" fill="url(#paint0_linear)"/>
<path d="M360.996 403.874H308.184V356.576H360.996V403.874ZM414.113 320.069H340.054V380.225H414.113V320.069ZM377.082 441.95H442.881V362.639H377.082V441.95ZM400.757 434.192H334.59V491.191H400.757V434.192ZM580.44 284.416H490.23V387.501H580.44V284.416ZM478.458 331.108H456.605V356.576H478.458V331.108ZM544.531 252.277H456.605V304.426H544.531V252.277ZM442.881 270.468H395.532V335.958H442.881V270.468ZM334.59 275.32H308.184V303.213H334.59V275.32ZM299.325 320.069H258.501V382.71H299.325V320.069ZM347.338 441.95H275.708V521.511H347.338V441.95ZM308.184 576.086H388.617V528.788H308.184V576.086ZM500.311 557.894H443.791V599.129H500.313V557.894H500.311ZM637.361 516.659H585.062V578.511H637.361V516.659ZM551.302 544.718H506.381V585.953H551.302V544.718ZM594.357 463.296H528.843V537.278H594.357V463.296ZM610.791 590.639H528.843V644H610.791V590.639ZM340.054 557.894H251.187V637.937H340.052V557.894H340.054ZM630.216 356.576H569.818V403.874H630.216V356.576ZM594.357 424.49H568.208V451.477H594.357V424.49ZM251.187 474.697H300.975V404.294H251.187V474.697ZM321.764 249.852L232 252.277V320.069H321.764V249.852ZM646 252.277H587.725V326.256H646V252.277ZM371.858 245H347.338V298.361H371.858V245ZM641.143 437.983H581.281V486.494H641.143V437.983Z" fill="url(#paint1_linear)" stroke="#FFC700" stroke-width="1.5"/>
<path d="M115.996 319.874H63.1843V272.576H115.996V319.874ZM169.113 236.069H95.0537V296.225H169.113V236.069ZM132.082 357.95H197.881V278.639H132.082V357.95ZM155.757 350.192H89.5904V407.191H155.757V350.192ZM335.44 200.416H245.23V303.501H335.44V200.416ZM233.458 247.108H211.605V272.576H233.458V247.108ZM299.531 168.277H211.605V220.426H299.531V168.277ZM197.881 186.468H150.532V251.958H197.881V186.468ZM89.5904 191.32H63.1843V219.213H89.5904V191.32ZM54.3246 236.069H13.5008V298.71H54.3246V236.069ZM102.338 357.95H30.7084V437.511H102.338V357.95ZM63.1843 492.086H143.617V444.788H63.1843V492.086ZM255.311 473.894H198.791V515.129H255.313V473.894H255.311ZM392.361 432.659H340.062V494.511H392.361V432.659ZM306.302 460.718H261.381V501.953H306.302V460.718ZM349.357 379.296H283.843V453.278H349.357V379.296ZM365.791 506.639H283.843V560H365.791V506.639ZM95.0537 473.894H6.18721V553.937H95.0519V473.894H95.0537ZM385.216 272.576H324.818V319.874H385.216V272.576ZM349.357 340.49H323.208V367.477H349.357V340.49ZM6.18721 390.697H55.9745V320.294H6.18721V390.697ZM76.7643 165.852L-13 168.277V236.069H76.7643V165.852ZM401 168.277H342.725V242.256H401V168.277ZM126.858 161H102.338V214.361H126.858V161ZM396.143 353.983H336.281V402.494H396.143V353.983Z" fill="url(#paint2_linear)" stroke="#FFC700" stroke-width="1.5"/>
<rect x="504" y="328.706" width="8.86149" height="25.1423" fill="white"/>
<rect x="521.754" y="328.857" width="8.83104" height="25.1423" fill="white"/>
<rect x="512.861" y="320" width="8.89195" height="8.85765" fill="white"/>
<rect x="539.415" y="328.857" width="8.89195" height="25.1423" fill="white"/>
<rect x="530.585" y="320" width="8.83105" height="8.85765" fill="white"/>
<rect x="548.308" y="320" width="8.86149" height="8.85765" fill="white"/>
<rect x="557.169" y="327.792" width="8.83104" height="8.85766" fill="white"/>
<rect x="548.308" y="336.65" width="8.86149" height="8.82721" fill="white"/>
<rect x="40" y="390.425" width="7.57515" height="21.4449" fill="white"/>
<rect x="55.1768" y="390.555" width="7.54912" height="21.4449" fill="white"/>
<rect x="47.5752" y="383" width="7.60118" height="7.55506" fill="white"/>
<rect x="70.2744" y="390.555" width="7.60118" height="21.4449" fill="white"/>
<rect x="62.7256" y="383" width="7.54912" height="7.55506" fill="white"/>
<rect x="77.876" y="383" width="7.57515" height="7.55506" fill="white"/>
<rect x="85.4512" y="389.646" width="7.54912" height="7.55506" fill="white"/>
<rect x="77.876" y="397.202" width="7.57515" height="7.52909" fill="white"/>
<path d="M302.21 248.174H299.21V245.174H302.21V248.174Z" fill="#2A232B"/>
<path d="M586.961 546.008C580.373 531.77 562.376 510.671 542.381 504.842C517.664 497.633 461.87 488.918 441.182 484.073C424.598 480.185 391.196 450.191 379.49 440.123C377.39 438.323 375.671 434.606 375.629 431.843C375.212 399.251 388.214 312.671 388.214 312.671H300.71H213.209C213.209 312.671 226.211 399.248 225.788 431.843C225.755 434.606 224.027 438.323 221.933 440.123C210.227 450.191 176.825 480.185 160.241 484.073C139.55 488.918 83.756 497.93 59.042 505.139C39.041 510.965 21.05 531.767 14.462 546.005C3.33796 570.029 0.709961 613.505 0.709961 651.005H300.71H600.71C600.71 613.508 598.079 570.032 586.961 546.008Z" fill="#F0C7B1"/>
<path d="M478.178 498.848C551.204 509.474 581.936 524.972 591.56 651.011H600.71C600.71 613.511 598.079 570.035 586.961 546.011C580.373 531.773 562.376 510.674 542.381 504.845C517.664 497.636 461.87 488.921 441.182 484.076C424.598 480.188 386.456 447.869 376.253 435.026C386.333 449.138 414.626 481.841 439.415 490.406C451.274 494.504 461.15 496.37 478.178 498.848ZM162.008 490.406C186.797 481.844 215.087 449.138 225.17 435.026C214.97 447.866 176.828 480.188 160.241 484.076C139.553 488.921 83.7589 497.933 59.0419 505.142C39.0469 510.968 21.0499 531.77 14.4619 546.008C3.34389 570.032 0.712891 613.508 0.712891 651.008H9.86289C19.4269 525.776 50.2879 509.459 123.245 498.845C140.27 496.37 150.149 494.504 162.008 490.406Z" fill="#FFE4D6"/>
<path d="M287.648 539.534C287.648 539.534 272.426 534.707 266.399 532.397C235.052 520.37 133.214 512.576 133.214 512.576C133.214 512.576 240.476 516.833 264.146 520.913C262.772 506.612 255.095 460.901 255.095 460.901C255.095 460.901 270.542 511.346 274.322 524.072C276.344 530.876 287.648 539.534 287.648 539.534ZM320.045 535.508C319.778 535.727 319.472 536.012 319.139 536.312C319.478 536.057 319.784 535.79 320.045 535.508ZM287.648 539.534C287.648 539.534 296.327 548.51 300.689 548.624C306.419 548.777 315.173 539.927 319.142 536.312C315.347 539.183 306.665 540.485 303.212 540.62C299.222 540.773 287.648 539.534 287.648 539.534ZM350.702 516.977C346.067 517.721 337.544 519.344 337.544 519.344L344.405 474.674C342.467 483.887 330.983 523.307 320.045 535.508C325.775 530.66 338.519 528.335 345.017 527.396C375.725 522.944 375.713 522.947 468.203 512.576C468.203 512.576 380.99 512.111 350.702 516.977Z" fill="#E1AC8F"/>
<path d="M586.961 546.008C580.373 531.77 562.376 510.671 542.381 504.842C517.664 497.633 461.87 488.918 441.182 484.073C424.598 480.185 391.196 450.191 379.49 440.123C377.39 438.323 375.671 434.606 375.629 431.843C375.212 399.251 388.214 312.671 388.214 312.671H300.71H213.209C213.209 312.671 226.211 399.248 225.788 431.843C225.755 434.606 224.027 438.323 221.933 440.123C210.227 450.191 176.825 480.185 160.241 484.073C139.55 488.918 83.756 497.93 59.042 505.139C39.041 510.965 21.05 531.767 14.462 546.005C3.33796 570.029 0.709961 613.505 0.709961 651.005H300.71H600.71C600.71 613.508 598.079 570.032 586.961 546.008Z" stroke="#C27B55" stroke-width="4.5"/>
<path d="M227.26 435.83C248.197 449.45 276.181 462.272 300.715 462.272C324.199 462.272 352.75 449.345 374.089 435.665C373.654 434.381 373.39 433.079 373.372 431.873C372.994 402.242 383.407 329.81 385.6 314.924H215.818C218.008 329.813 228.424 402.242 228.04 431.87C228.025 433.112 227.737 434.483 227.26 435.83Z" fill="url(#paint3_linear)"/>
<path d="M336.128 654.339C278.723 654.339 211.763 654.117 131.429 653.652L60.3918 653.268C17.4978 653.034 14.9688 652.986 9.73077 652.986L-4.96623 653.007C-18.6792 527.382 38.2638 494.397 126.32 482.883C149.687 479.592 172.667 473.592 190.697 461.967C239.678 528.696 385.13 514.653 410.006 460.08C414.176 461.67 417.623 463.725 421.937 465.282C435.935 475.581 455.153 482.79 474.821 483.879C552.845 488.202 608.078 522.867 606.992 647.799C607.001 648.294 607.004 651.324 606.953 652.269C569.414 652.269 555.335 652.632 525.851 653.055C485.858 653.625 436.082 654.336 336.164 654.336C336.149 654.339 336.14 654.339 336.128 654.339Z" fill="#386E77"/>
<path d="M603.875 650.594C602.645 628.439 591.683 566.42 572.795 537.971C535.349 481.556 446.015 501.353 425.399 478.892C410.441 509.369 350.474 528.677 330.617 531.512C388.16 512.432 412.328 498.635 421.877 465.902C441.092 490.892 545.099 471.815 586.028 538.895C598.013 558.536 609.41 621.053 603.875 650.594ZM168.143 479.558C172.214 478.613 174.245 475.811 178.286 474.716L174.008 469.043C146.861 490.199 45.281 476.978 10.451 541.151C-0.525954 561.374 -7.92995 609.515 -2.12495 650.468C-0.513954 625.316 0.272047 571.526 19.16 543.074C53.132 491.894 115.082 505.415 162.017 483.749C182.966 509.549 215.681 522.233 248.969 527.48C207.206 516.587 183.26 498.194 168.143 479.558Z" fill="#4D7E86"/>
<path d="M406.64 466.406C390.044 500.948 264.59 541.175 193.85 469.043C189.452 470.909 176.294 475.379 176.294 475.379C227.822 545.537 378.827 545.981 419.021 475.037C418.844 474.968 410.726 468.482 406.64 466.406Z" fill="#265E68"/>
<path d="M409.85 459.681C381.611 516.147 234.659 524.136 190.814 461.577C174.803 466.311 159.406 476.4 143.906 478.923C51.1455 492.738 -17.4285 499.68 -5.29049 653.331C24.5295 653.331 -25.1235 653.136 131.423 653.976C502.193 656.106 490.109 652.593 607.24 652.593C607.328 652.173 607.286 648.237 607.303 647.805C613.591 478.497 514.747 488.493 447.944 476.82C438.512 474.666 429.745 468.501 422.038 464.985C417.781 463.038 414.164 461.289 409.85 459.681ZM189.751 463.47C228.674 533.646 382.409 519.567 412.091 463.773C415.69 465.285 416.611 465.885 420.784 467.364C390.04 531.831 237.958 552.375 175.754 470.853C176.191 470.73 185.366 465.114 189.751 463.47ZM-1.82549 651.009C-9.08849 571.716 3.56551 506.88 96.5145 490.974C127.343 485.286 146.186 485.088 172.667 473.592C222.956 555.807 388.961 543.066 423.461 469.677C428.417 473.904 436.145 478.767 445.676 481.032C499.97 493.929 610.19 478.35 604.37 651.006C442.199 648.9 307.775 643.974 -1.82549 651.009Z" fill="#0C4049"/>
<path d="M137.722 199.706C133.267 192.32 118.741 172.109 107.629 174.944C98.5935 177.26 98.7105 189.857 98.0115 197.309C96.9915 208.241 96.6195 227.285 99.5865 235.013C102.439 242.432 111.466 256.769 117.07 262.238C123.967 268.943 134.98 290.312 136.336 292.529C138.469 296.033 142.747 301.049 149.311 300.653C158.524 300.098 166.483 291.392 167.206 287.198C171.109 264.428 149.317 218.924 137.722 199.706Z" fill="#F0C7B1" stroke="#C27B55" stroke-width="4.5"/>
<path d="M133.31 244.697C132.881 243.008 133.331 240.158 133.772 237.41C134.171 234.905 134.546 232.538 134.318 230.864C133.451 224.594 128.573 212.684 125.39 206.228C121.721 198.8 115.793 189.443 108.353 187.031C105.281 186.032 103.256 187.226 102.086 188.435C101.222 189.323 101.027 190.37 101.309 190.496C101.594 190.619 102.23 189.752 103.16 188.939C103.922 188.273 101.636 188.819 103.16 188.939C102.545 192.059 100.565 207.845 101.93 219.368C103.004 228.434 105.08 235.205 105.719 236.219C105.812 237.287 105.968 238.334 106.199 239.348C109.205 252.578 128.753 269.879 133.301 274.808C134.141 275.717 135.023 276.257 135.239 276.035C135.455 275.813 134.936 274.916 134.102 274.001C129.608 269.105 110.189 251.858 107.285 239.096C104.204 225.554 119.021 205.475 121.382 201.227C122.585 203.222 123.608 205.136 124.394 206.732C125.015 207.983 125.696 209.45 126.404 211.037C125.015 213.251 111.05 229.418 114.602 242.36C115.916 247.133 126.068 253.286 129.995 254.969C132.155 255.899 132.965 257.285 133.907 258.887C134.999 260.759 134.006 265.574 137.597 267.104C138.329 267.416 138.989 267.542 139.574 267.542C140.588 267.542 141.356 267.152 141.923 266.69C141.983 267.503 141.98 268.547 141.95 269.513C141.914 270.767 142.091 271.34 142.394 271.364C142.703 271.391 143.024 270.842 143.063 269.603C143.114 268.073 143.105 266.18 142.832 265.271C142.025 262.604 139.568 259.589 136.961 256.4C134.399 253.265 133.976 247.313 133.31 244.697ZM105.617 232.97C98.573 212.201 109.466 193.283 111.047 190.433C114.083 191.63 118.733 197.012 120.71 200.138C119.27 202.637 105.911 218.999 105.617 232.97ZM138.026 266.066C134.774 264.68 135.908 260.114 134.858 258.314C133.904 256.688 132.92 255.008 130.421 253.934C129.881 253.7 129.284 253.346 128.672 252.938C120.626 234.713 129.551 226.748 131.789 225.119C132.476 227.345 132.986 229.388 133.217 231.029C133.421 232.529 133.04 234.923 132.674 237.233C132.215 240.098 131.744 243.065 132.233 244.985C132.965 247.844 133.466 253.895 136.106 257.129C138.449 259.997 140.855 262.955 141.677 265.367C141.323 265.847 140.21 266.999 138.026 266.066Z" fill="#C27B55"/>
<path d="M462.908 199.706C467.366 192.32 481.892 172.109 493.001 174.944C502.037 177.26 501.92 189.857 502.622 197.309C503.642 208.241 504.011 227.285 501.047 235.013C498.194 242.432 489.164 256.769 483.563 262.238C476.666 268.943 465.65 290.312 464.297 292.529C462.164 296.033 457.886 301.049 451.319 300.653C442.109 300.098 434.15 291.392 433.424 287.198C429.524 264.428 451.319 218.924 462.908 199.706Z" fill="#F0C7B1" stroke="#C27B55" stroke-width="4.5"/>
<path d="M463.676 256.403C461.069 259.592 458.612 262.607 457.805 265.274C457.529 266.186 457.523 268.079 457.571 269.606C457.613 270.845 457.934 271.394 458.246 271.367C458.552 271.343 458.726 270.77 458.69 269.516C458.66 268.55 458.654 267.506 458.714 266.693C459.281 267.155 460.049 267.545 461.063 267.545C461.648 267.545 462.311 267.419 463.043 267.107C466.628 265.574 465.638 260.759 466.73 258.89C467.672 257.288 468.482 255.899 470.645 254.972C474.572 253.289 484.724 247.139 486.038 242.363C489.59 229.421 475.625 213.251 474.236 211.04C474.938 209.453 475.625 207.986 476.24 206.735C477.032 205.139 478.052 203.222 479.258 201.23C481.619 205.478 496.433 225.554 493.355 239.099C490.448 251.861 471.032 269.108 466.538 274.004C465.701 274.919 465.179 275.816 465.395 276.038C465.617 276.26 466.496 275.72 467.333 274.811C471.881 269.882 491.426 252.581 494.432 239.351C494.666 238.337 494.825 237.29 494.918 236.222C495.551 235.211 497.63 228.44 498.704 219.371C500.069 207.848 498.089 192.062 497.474 188.942C498.998 188.822 496.712 188.276 497.474 188.942C498.407 189.755 499.043 190.622 499.325 190.499C499.607 190.373 499.412 189.329 498.551 188.438C497.378 187.229 495.353 186.035 492.281 187.034C484.841 189.446 478.91 198.803 475.241 206.231C472.058 212.687 467.183 224.597 466.316 230.867C466.088 232.541 466.463 234.908 466.862 237.413C467.3 240.161 467.753 243.011 467.324 244.7C466.658 247.313 466.238 253.265 463.676 256.403ZM479.924 200.138C481.904 197.012 486.551 191.633 489.587 190.433C491.168 193.283 502.061 212.201 495.02 232.97C494.726 218.999 481.367 202.637 479.924 200.138ZM458.96 265.361C459.779 262.949 462.188 259.991 464.531 257.123C467.168 253.889 467.672 247.838 468.404 244.979C468.89 243.059 468.422 240.092 467.966 237.227C467.597 234.917 467.216 232.523 467.42 231.023C467.648 229.382 468.158 227.339 468.845 225.113C471.083 226.742 480.008 234.71 471.962 252.932C471.353 253.34 470.756 253.694 470.21 253.928C467.714 255.002 466.73 256.682 465.773 258.308C464.723 260.108 465.86 264.677 462.608 266.06C460.424 266.999 459.311 265.847 458.96 265.361Z" fill="#C27B55"/>
<path d="M300.716 -50.7246C199.862 -50.5656 117.956 32.2824 118.112 134.354C118.139 150.563 120.224 166.28 124.118 181.256H124.121C124.157 181.418 154.988 275.558 162.965 313.421C170.105 347.315 201.842 374.807 216.125 389.789C232.535 407.015 253.046 432.5 300.716 432.275C348.383 432.5 368.897 407.015 385.307 389.789C399.59 374.807 431.327 347.315 438.467 313.421C446.444 275.558 477.278 181.421 477.308 181.256H477.314C481.208 166.28 483.296 150.563 483.32 134.354C483.479 32.2824 401.57 -50.5656 300.716 -50.7246Z" fill="#F0C7B1"/>
<path d="M401.119 -20.1367C444.931 13.4543 473.512 68.3243 473.419 130.328C473.395 146.537 471.427 162.257 467.743 177.23H467.737C467.704 177.392 438.547 271.526 430.999 309.386C424.246 343.286 394.231 370.772 380.719 385.76C365.2 402.986 345.799 428.471 300.718 428.246C255.634 428.471 236.233 402.986 220.714 385.76C207.208 370.772 177.19 343.286 170.437 309.386C162.889 271.526 133.732 177.392 133.696 177.23H133.693C130.009 162.254 128.038 146.537 128.014 130.328C127.924 68.3243 156.505 13.4543 200.317 -20.1337C150.751 12.9893 118.018 69.8123 118.117 134.354C118.144 150.563 120.229 166.28 124.123 181.256H124.126C124.162 181.418 154.993 275.558 162.97 313.421C170.11 347.315 201.847 374.807 216.13 389.789C232.54 407.015 253.051 432.5 300.721 432.275C348.388 432.5 368.902 407.015 385.312 389.789C399.595 374.807 431.332 347.315 438.472 313.421C446.449 275.558 477.283 181.421 477.313 181.256H477.319C481.213 166.28 483.301 150.563 483.325 134.354C483.418 69.8123 450.685 12.9863 401.119 -20.1367Z" fill="#E8B9A0"/>
<path d="M300.716 -50.7246C199.862 -50.5656 117.956 32.2824 118.112 134.354C118.139 150.563 120.224 166.28 124.118 181.256H124.121C124.157 181.418 154.988 275.558 162.965 313.421C170.105 347.315 201.842 374.807 216.125 389.789C232.535 407.015 253.046 432.5 300.716 432.275C348.383 432.5 368.897 407.015 385.307 389.789C399.59 374.807 431.327 347.315 438.467 313.421C446.444 275.558 477.278 181.421 477.308 181.256H477.314C481.208 166.28 483.296 150.563 483.32 134.354C483.479 32.2824 401.57 -50.5656 300.716 -50.7246Z" stroke="#C27B55" stroke-width="4.5"/>
<path d="M289.391 364.385L314.282 363.764C311.399 377.174 291.362 375.248 289.391 364.385Z" fill="url(#paint4_linear)"/>
<path d="M289.739 365.234C288.626 365.084 288.794 363.497 289.979 363.608C290.108 363.626 302.903 365.246 313.613 362.963C314.771 362.738 315.113 364.328 314.003 364.565C305.612 366.359 294.755 365.939 289.739 365.234ZM300.959 354.524C296.45 354.524 292.079 352.961 287.687 352.196C282.767 351.335 277.865 352.073 272.942 352.508C267.914 352.955 256.943 352.469 253.847 350.51C252.113 349.409 252.437 346.847 254.39 346.163C256.232 345.503 259.103 346.871 260.963 347.204C269.579 348.749 274.115 347.102 281.669 346.85C293.222 346.502 294.449 351.353 308.861 348.44C324.356 345.308 331.334 347.678 342.452 344.33C343.976 343.868 345.788 342.65 347.387 343.472C349.232 344.426 349.142 347.027 347.24 347.864C337.022 352.37 325.718 350.549 314.375 352.442C309.929 353.18 305.498 354.524 300.959 354.524Z" fill="#C27B55"/>
<path d="M185.966 194.243C184.448 187.388 201.539 182.324 224.099 185.09C246.653 187.859 262.313 201.662 260.255 208.622C259.115 212.48 228.338 218.357 217.496 217.163C206.504 215.948 189.632 210.794 185.966 194.243Z" fill="url(#paint5_radial)"/>
<path d="M240.825 204.188C238.218 213.764 228.345 219.407 218.751 216.776C209.166 214.148 203.502 204.242 206.115 194.663C208.719 185.078 218.616 179.435 228.201 182.069C237.78 184.694 243.435 194.6 240.825 204.188Z" fill="#4E60A3" stroke="#152975" stroke-width="1.5"/>
<path d="M221.255 188.663L220.787 187.826C219.143 188.48 217.559 189.161 216.062 189.887L217.172 192.569L217.031 194.12L212.753 191.603C211.355 192.38 210.059 193.19 208.799 194.015L208.811 194.042L207.344 195.692L209.687 198.089L206.531 199.811L207.725 201.782L213.296 202.337L208.073 205.88L213.662 205.571L210.716 210.65L217.607 206.48L215.753 213.572L219.74 207.02L220.508 214.049L221.66 207.833L222.719 207.704L224.219 214.754L224.675 212.639C225.278 212.483 226.829 214.751 227.42 214.592L225.668 206.924L229.514 214.592L227.954 206.639L232.688 212.789C232.859 212.735 233.276 210.239 233.444 210.188L230.498 205.781L235.853 207.398L232.64 203.918L230.06 201.782L240.818 204.191L234.827 200.54L239.06 198.809L229.895 197.882L238.958 193.076L230.756 195.17L228.548 193.973L228.005 192.911L228.161 190.373L228.344 186.206L224.6 192.8L224.27 187.973L223.799 186.71C223.049 186.971 222.314 187.226 221.591 187.505L221.255 188.663Z" fill="#6777B2"/>
<path opacity="0.9" d="M241.028 195.689C225.302 196.406 217.307 199.769 205.907 203.582C203.711 193.895 209.801 184.268 219.497 182.09C229.193 179.912 238.835 185.999 241.028 195.689Z" fill="#384B94"/>
<path opacity="0.8" d="M226.067 193.418C222.11 192.284 218.069 194.543 217.052 198.488C216.026 202.412 218.408 206.522 222.365 207.656C226.325 208.793 230.366 206.531 231.392 202.604C232.421 198.659 230.03 194.552 226.067 193.418Z" fill="black"/>
<path d="M226.067 193.418C222.11 192.284 218.069 194.543 217.052 198.488C216.026 202.412 218.408 206.522 222.365 207.656C226.325 208.793 230.366 206.531 231.392 202.604C232.421 198.659 230.03 194.552 226.067 193.418Z" stroke="#152975" stroke-width="2.25"/>
<path opacity="0.4" d="M210.353 210.104C212.192 213.023 214.631 215.222 218.087 215.954C222.065 216.797 222.518 211.505 219.671 210.899C217.511 210.443 216.143 209.384 215.015 207.593C212.951 204.314 208.697 207.476 210.353 210.104Z" fill="white"/>
<path d="M226.559 191.903C229.346 192.464 230.966 194.207 232.373 196.823C234.959 201.635 242.27 197.357 239.684 192.548C237.413 188.324 233.627 184.709 228.809 183.734C222.638 182.489 221.774 190.937 226.559 191.903Z" fill="url(#paint6_linear)"/>
<path d="M160.592 195.674C163.019 228.371 195.503 266.423 222.11 262.382C253.604 262.7 284.702 238.778 284.702 195.467C284.702 152.156 269.441 115.883 221.321 115.883C186.821 115.88 160.592 152.363 160.592 195.674ZM185.966 194.243C184.448 187.388 201.539 182.324 224.099 185.09C246.653 187.859 262.313 201.662 260.255 208.622C259.115 212.48 228.338 218.357 217.496 217.163C206.504 215.948 189.632 210.794 185.966 194.243Z" fill="#F0C7B1"/>
<path d="M217.496 217.163C228.338 218.357 259.115 212.48 260.255 208.622C262.316 201.662 246.653 187.859 224.099 185.09C204.719 182.714 189.41 186.122 186.431 191.474C189.125 172.274 209.531 157.283 234.392 157.172C261.125 157.061 282.836 174.2 282.908 195.467C282.971 216.731 261.353 234.053 234.623 234.173C207.884 234.284 186.176 217.145 186.104 195.881C186.104 195.566 186.152 195.257 186.161 194.942C190.151 210.923 206.663 215.966 217.496 217.163Z" fill="url(#paint7_radial)"/>
<path d="M185.966 194.243C184.448 187.388 201.539 182.324 224.099 185.09C246.653 187.859 262.313 201.662 260.255 208.622C259.115 212.48 228.338 218.357 217.496 217.163C206.504 215.948 189.632 210.794 185.966 194.243Z" fill="url(#paint8_radial)"/>
<path d="M187.154 178.925C199.778 172.991 215.204 172.445 228.668 175.91C235.88 177.593 243.563 179.765 249.857 183.824C255.692 187.229 260.432 191.324 264.863 196.394C260.837 191.291 256.544 187.04 250.994 183.584C244.166 179.336 236.687 176.702 228.902 174.836C215.144 171.458 199.736 172.226 187.154 178.925Z" fill="#C27B55"/>
<path d="M189.017 180.734C191.657 179.678 201.212 177.734 205.385 177.536C210.446 177.29 220.604 177.911 225.59 178.808C235.712 180.632 253.343 186.257 260.624 200.36C262.862 204.695 260.846 207.728 260.255 208.385C261.155 201.107 245.741 188.147 224.099 185.573C201.539 182.891 184.448 187.802 185.966 194.447C189.632 210.491 206.504 215.486 217.496 216.662C229.793 217.979 252.548 212.045 255.554 211.403C249.557 214.43 232.982 217.688 226.253 218.312C224.021 218.522 219.533 218.624 217.295 218.567C199.448 218.093 186.788 209.042 182.108 196.787C179.102 188.909 182.39 183.38 189.017 180.734Z" fill="black"/>
<path d="M414.257 194.243C415.775 187.388 398.684 182.324 376.124 185.09C353.57 187.859 337.91 201.662 339.968 208.622C341.108 212.48 371.885 218.357 382.727 217.163C393.719 215.948 410.591 210.794 414.257 194.243Z" fill="url(#paint9_radial)"/>
<path d="M395.323 204.185C392.716 213.764 382.843 219.407 373.249 216.773C363.664 214.145 358.003 204.239 360.613 194.66C363.214 185.075 373.114 179.432 382.696 182.066C392.281 184.697 397.933 194.603 395.323 204.185Z" fill="#4E60A3" stroke="#152975" stroke-width="1.5"/>
<path d="M375.757 188.663L375.292 187.829C373.648 188.48 372.064 189.164 370.564 189.887L371.674 192.569L371.533 194.12L367.255 191.603C365.854 192.38 364.561 193.19 363.304 194.015L363.316 194.042L361.846 195.695L364.192 198.092L361.036 199.811L362.227 201.782L367.798 202.337L362.575 205.88L368.164 205.571L365.218 210.647L372.106 206.477L370.258 213.569L374.242 207.017L375.013 214.046L376.165 207.827L377.224 207.698L378.727 214.748L379.18 212.636C379.783 212.48 381.337 214.745 381.925 214.589L380.17 206.921L384.019 214.589L382.456 206.636L387.187 212.786C387.358 212.732 387.778 210.236 387.946 210.185L385 205.778L390.358 207.392L387.145 203.912L384.568 201.776L395.326 204.182L389.335 200.534L393.568 198.803L384.406 197.879L393.469 193.07L385.267 195.164L383.059 193.967L382.519 192.905L382.675 190.364L382.858 186.2L379.117 192.794L378.787 187.967L378.319 186.701C377.569 186.962 376.834 187.22 376.114 187.496L375.757 188.663Z" fill="#6777B2"/>
<path opacity="0.9" d="M395.524 195.689C379.804 196.406 371.806 199.769 360.406 203.582C358.213 193.895 364.3 184.268 373.996 182.09C383.692 179.909 393.337 185.999 395.524 195.689Z" fill="#384B94"/>
<path opacity="0.8" d="M380.569 193.419C376.612 192.285 372.571 194.547 371.554 198.489C370.525 202.413 372.907 206.523 376.864 207.657C380.83 208.794 384.868 206.532 385.891 202.605C386.92 198.66 384.526 194.553 380.569 193.419Z" fill="black"/>
<path d="M380.569 193.419C376.612 192.285 372.571 194.547 371.554 198.489C370.525 202.413 372.907 206.523 376.864 207.657C380.83 208.794 384.868 206.532 385.891 202.605C386.92 198.66 384.526 194.553 380.569 193.419Z" stroke="#152975" stroke-width="2.25"/>
<path opacity="0.4" d="M364.855 210.104C366.691 213.023 369.133 215.222 372.586 215.954C376.564 216.797 377.02 211.508 374.17 210.899C372.01 210.443 370.639 209.387 369.514 207.593C367.453 204.314 363.196 207.476 364.855 210.104Z" fill="white"/>
<path d="M381.061 191.903C383.848 192.464 385.468 194.204 386.875 196.82C389.461 201.632 396.775 197.354 394.186 192.545C391.915 188.321 388.132 184.706 383.311 183.731C377.14 182.489 376.273 190.937 381.061 191.903Z" fill="url(#paint10_linear)"/>
<path d="M378.899 115.88C330.779 115.88 315.518 152.153 315.518 195.464C315.518 238.775 346.616 262.7 378.11 262.379C404.717 266.42 437.201 228.368 439.628 195.671C439.631 152.363 413.399 115.88 378.899 115.88ZM382.727 217.163C371.885 218.357 341.108 212.48 339.968 208.622C337.907 201.662 353.57 187.859 376.124 185.09C398.684 182.324 415.775 187.391 414.257 194.243C410.591 210.794 393.719 215.948 382.727 217.163Z" fill="#F0C7B1"/>
<path d="M382.727 217.163C371.885 218.357 341.108 212.48 339.968 208.622C337.907 201.662 353.57 187.859 376.124 185.09C395.504 182.714 410.813 186.125 413.792 191.474C411.098 172.274 390.692 157.283 365.831 157.172C339.098 157.061 317.387 174.2 317.315 195.467C317.252 216.731 338.87 234.053 365.6 234.173C392.339 234.284 414.047 217.145 414.119 195.881C414.119 195.566 414.071 195.257 414.062 194.942C410.069 210.923 393.557 215.966 382.727 217.163Z" fill="url(#paint11_radial)"/>
<path d="M414.257 194.243C415.775 187.388 398.684 182.324 376.124 185.09C353.57 187.859 337.91 201.662 339.968 208.622C341.108 212.48 371.885 218.357 382.727 217.163C393.719 215.948 410.591 210.794 414.257 194.243Z" fill="url(#paint12_radial)"/>
<path d="M413.065 178.925C400.441 172.991 385.015 172.445 371.551 175.91C364.339 177.593 356.656 179.765 350.362 183.824C344.527 187.229 339.787 191.324 335.356 196.394C339.382 191.291 343.675 187.04 349.225 183.584C356.053 179.336 363.532 176.702 371.317 174.836C385.078 171.458 400.486 172.226 413.065 178.925Z" fill="#C27B55"/>
<path d="M411.206 180.735C408.566 179.679 399.011 177.735 394.838 177.537C389.777 177.291 379.619 177.912 374.633 178.809C364.511 180.633 346.88 186.258 339.599 200.361C337.361 204.696 339.377 207.729 339.968 208.386C339.068 201.108 354.482 188.148 376.124 185.574C398.684 182.892 415.775 187.803 414.257 194.448C410.591 210.492 393.719 215.487 382.727 216.663C370.43 217.98 347.675 212.046 344.669 211.404C350.666 214.431 367.241 217.689 373.97 218.313C376.202 218.523 380.69 218.625 382.928 218.568C400.775 218.094 413.435 209.043 418.115 196.788C421.121 188.91 417.833 183.381 411.206 180.735Z" fill="black"/>
<path d="M423.709 288.597C423.814 356.463 368.833 411.579 300.895 411.672C232.969 411.783 177.811 356.853 177.706 288.972C177.601 221.112 232.582 165.78 300.517 165.672C368.446 165.567 423.61 220.722 423.709 288.597Z" fill="url(#paint13_radial)"/>
<path d="M413.209 108.671C413.209 170.804 362.842 221.171 300.712 221.171C238.579 221.171 188.209 170.804 188.209 108.671C188.209 46.5384 238.579 -3.82861 300.712 -3.82861C362.842 -3.82861 413.209 46.5384 413.209 108.671Z" fill="url(#paint14_radial)"/>
<path d="M162.709 169.241C192.571 139.319 212.992 151.496 254.476 159.449C257.011 159.935 273.436 164.066 270.406 169.856C268.957 172.628 264.298 172.298 261.697 172.25C220.633 171.482 200.665 142.265 162.709 169.241Z" fill="#2A232B"/>
<path d="M438.71 169.241C408.851 139.319 388.427 151.496 346.943 159.449C344.405 159.935 327.983 164.066 331.01 169.856C332.459 172.628 337.118 172.298 339.719 172.25C380.783 171.482 400.754 142.265 438.71 169.241Z" fill="#2A232B"/>
<path d="M274.055 293.171C271.421 299.363 291.857 306.047 299.612 306.458C308.012 306.899 331.55 297.758 327.56 291.482C323.363 284.897 307.631 290.624 300.842 290.624C294.086 290.621 277.583 284.909 274.055 293.171Z" fill="#E1AC8F"/>
<path d="M306.281 297.848C305.591 295.571 311.909 293.096 314.252 292.766C317.555 292.286 324.332 295.172 323.726 297.542C323.174 299.636 317.282 295.943 315.146 296.255C312.944 296.576 306.935 299.981 306.281 297.848ZM285.632 297.107C288.536 297.107 292.844 298.976 293.636 297.329C294.581 295.364 287.219 292.946 285.056 293.213C283.268 293.423 276.857 297.158 277.739 298.73C278.561 300.173 281.804 297.107 285.632 297.107Z" fill="#C27B55"/>
<path opacity="0.2" d="M300.977 282.671C302.798 282.671 306.203 280.451 306.353 275.981C306.956 257.957 303.485 204.482 300.977 204.671C298.637 204.848 294.176 257.582 295.133 275.981C295.37 280.487 298.922 282.671 300.977 282.671Z" fill="#FFF5EF"/>
<path d="M476 70.6494C420.71 -67.6206 300.71 -52.1106 300.71 -52.1106C300.71 -52.1106 180.71 -67.6176 125.42 70.6494C97.6845 140.009 131.894 221.621 131.894 221.621H149.372C134.09 156.365 151.76 168.635 152.9 156.455C153.254 152.69 152 146.354 151.637 142.589C149.861 124.253 157.583 88.5024 167.372 73.0704C172.181 65.4924 183.479 53.0934 191.894 49.9734C221.804 38.8914 252.026 52.1184 260.456 54.2364C273.839 57.5964 327.575 57.5964 340.964 54.2364C350.993 51.7194 380.51 39.5214 409.526 50.2734C417.944 53.3934 430.139 65.1894 434.948 72.7704C444.737 88.2024 451.559 121.25 449.783 139.586C449.42 143.351 448.166 152.687 448.517 156.455C448.838 159.896 456.368 167.522 457.211 170.876C460.691 184.712 452.045 221.621 452.045 221.621H469.52C469.523 221.621 503.738 140.009 476 70.6494Z" fill="#2A232B"/>
<path d="M465.523 40.1633C409.243 -62.6677 306.646 -55.2187 300.709 -54.6907C294.772 -55.2187 192.178 -62.6677 135.895 40.1633C92.4193 119.597 125.419 211.085 129.43 221.51C129.658 222.101 134.158 221.624 134.158 221.624C134.14 221.579 133.846 220.448 133.66 219.974C130.033 210.614 97.0933 120.434 139.843 42.3263C196.042 -60.3517 299.494 -50.3047 300.529 -50.1877L300.709 -51.8137L300.889 -50.1877C301.924 -50.3047 405.376 -60.3517 461.578 42.3233C505.267 122.153 469.897 214.592 467.566 220.472C467.503 220.637 467.245 221.597 467.233 221.621C467.233 221.621 471.751 222.128 471.958 221.588C475.831 211.556 509.11 119.801 465.523 40.1633Z" fill="black"/>
</g>
<defs>
<linearGradient id="paint0_linear" x1="300" y1="-75" x2="300" y2="675" gradientUnits="userSpaceOnUse">
<stop stop-color="#151371"/>
<stop offset="0.453125" stop-color="#FF00B8"/>
<stop offset="0.96875" stop-color="#FFC700"/>
</linearGradient>
<linearGradient id="paint1_linear" x1="439" y1="245" x2="439" y2="644" gradientUnits="userSpaceOnUse">
<stop stop-color="#FF00B8"/>
<stop offset="1" stop-color="#F0DB0A" stop-opacity="0"/>
</linearGradient>
<linearGradient id="paint2_linear" x1="194" y1="161" x2="194" y2="560" gradientUnits="userSpaceOnUse">
<stop stop-color="#FF00B8"/>
<stop offset="1" stop-color="#F0DB0A" stop-opacity="0"/>
</linearGradient>
<linearGradient id="paint3_linear" x1="300.709" y1="462.674" x2="300.709" y2="315.674" gradientUnits="userSpaceOnUse">
<stop stop-color="#E1AC8F" stop-opacity="0.8"/>
<stop offset="0.7" stop-color="#C27B55"/>
</linearGradient>
<linearGradient id="paint4_linear" x1="300.71" y1="372.674" x2="300.71" y2="363.674" gradientUnits="userSpaceOnUse">
<stop offset="0.1" stop-color="#E8B9A0"/>
<stop offset="1" stop-color="#E1AC8F"/>
</linearGradient>
<radialGradient id="paint5_radial" cx="0" cy="0" r="1" gradientUnits="userSpaceOnUse" gradientTransform="translate(220.442 200.073) rotate(174.019) scale(45.3485)">
<stop stop-color="white"/>
<stop offset="0.315" stop-color="#FCFDFD"/>
<stop offset="0.504" stop-color="#F4F7F8"/>
<stop offset="0.66" stop-color="#E5ECEF"/>
<stop offset="0.76" stop-color="#D8E2E7"/>
</radialGradient>
<linearGradient id="paint6_linear" x1="247.46" y1="181.424" x2="229.46" y2="199.424" gradientUnits="userSpaceOnUse">
<stop stop-color="white"/>
<stop offset="1" stop-color="white" stop-opacity="0"/>
</linearGradient>
<radialGradient id="paint7_radial" cx="0" cy="0" r="1" gradientUnits="userSpaceOnUse" gradientTransform="translate(234.744 194.164) rotate(1.19182) scale(48.0098 38.4059)">
<stop stop-color="#E1AC8F"/>
<stop offset="0.7" stop-color="#E1AC8F" stop-opacity="0.3"/>
<stop offset="1" stop-color="#F0C7B1" stop-opacity="0"/>
</radialGradient>
<radialGradient id="paint8_radial" cx="0" cy="0" r="1" gradientUnits="userSpaceOnUse" gradientTransform="translate(209.412 279.282) scale(91.548)">
<stop offset="0.95" stop-opacity="0"/>
<stop offset="1" stop-opacity="0.2"/>
</radialGradient>
<radialGradient id="paint9_radial" cx="0" cy="0" r="1" gradientUnits="userSpaceOnUse" gradientTransform="translate(379.783 200.071) rotate(5.98141) scale(45.3455)">
<stop stop-color="white"/>
<stop offset="0.316" stop-color="#FCFDFD"/>
<stop offset="0.505" stop-color="#F4F7F8"/>
<stop offset="0.661" stop-color="#E5ECEF"/>
<stop offset="0.76" stop-color="#D8E2E7"/>
</radialGradient>
<linearGradient id="paint10_linear" x1="395.959" y1="181.424" x2="377.959" y2="199.424" gradientUnits="userSpaceOnUse">
<stop stop-color="white"/>
<stop offset="1" stop-color="white" stop-opacity="0"/>
</linearGradient>
<radialGradient id="paint11_radial" cx="0" cy="0" r="1" gradientUnits="userSpaceOnUse" gradientTransform="translate(365.476 194.164) rotate(178.808) scale(48.0098 38.4059)">
<stop stop-color="#E1AC8F"/>
<stop offset="0.7" stop-color="#E1AC8F" stop-opacity="0.3"/>
<stop offset="1" stop-color="#F0C7B1" stop-opacity="0"/>
</radialGradient>
<radialGradient id="paint12_radial" cx="0" cy="0" r="1" gradientUnits="userSpaceOnUse" gradientTransform="translate(390.813 279.282) rotate(180) scale(91.548)">
<stop offset="0.95" stop-opacity="0"/>
<stop offset="1" stop-opacity="0.2"/>
</radialGradient>
<radialGradient id="paint13_radial" cx="0" cy="0" r="1" gradientUnits="userSpaceOnUse" gradientTransform="translate(300.709 288.675) scale(123)">
<stop stop-color="#FFE4D6" stop-opacity="0.5"/>
<stop offset="0.9" stop-color="#F0C7B1" stop-opacity="0"/>
</radialGradient>
<radialGradient id="paint14_radial" cx="0" cy="0" r="1" gradientUnits="userSpaceOnUse" gradientTransform="translate(300.709 108.674) scale(111)">
<stop stop-color="#FFE4D6" stop-opacity="0.5"/>
<stop offset="0.9" stop-color="#F0C7B1" stop-opacity="0"/>
</radialGradient>
<clipPath id="clip0">
<rect width="600" height="600" fill="white"/>
</clipPath>
</defs>
</svg>
