<svg width="600" height="600" viewBox="0 0 600 600" fill="none" xmlns="http://www.w3.org/2000/svg">
<g clip-path="url(#clip0)">
<path d="M675 675H-75V-75H675V675Z" fill="url(#paint0_linear)"/>
<path d="M360.996 403.874H308.184V356.576H360.996V403.874ZM414.113 320.069H340.054V380.225H414.113V320.069ZM377.082 441.95H442.881V362.639H377.082V441.95ZM400.757 434.192H334.59V491.191H400.757V434.192ZM580.44 284.416H490.23V387.501H580.44V284.416ZM478.458 331.108H456.605V356.576H478.458V331.108ZM544.531 252.277H456.605V304.426H544.531V252.277ZM442.881 270.468H395.532V335.958H442.881V270.468ZM334.59 275.32H308.184V303.213H334.59V275.32ZM299.325 320.069H258.501V382.71H299.325V320.069ZM347.338 441.95H275.708V521.511H347.338V441.95ZM308.184 576.086H388.617V528.788H308.184V576.086ZM500.311 557.894H443.791V599.129H500.313V557.894H500.311ZM637.361 516.659H585.062V578.511H637.361V516.659ZM551.302 544.718H506.381V585.953H551.302V544.718ZM594.357 463.296H528.843V537.278H594.357V463.296ZM610.791 590.639H528.843V644H610.791V590.639ZM340.054 557.894H251.187V637.937H340.052V557.894H340.054ZM630.216 356.576H569.818V403.874H630.216V356.576ZM594.357 424.49H568.208V451.477H594.357V424.49ZM251.187 474.697H300.975V404.294H251.187V474.697ZM321.764 249.852L232 252.277V320.069H321.764V249.852ZM646 252.277H587.725V326.256H646V252.277ZM371.858 245H347.338V298.361H371.858V245ZM641.143 437.983H581.281V486.494H641.143V437.983Z" fill="url(#paint1_linear)" stroke="#FFC700" stroke-width="1.5"/>
<path d="M115.996 319.874H63.1843V272.576H115.996V319.874ZM169.113 236.069H95.0537V296.225H169.113V236.069ZM132.082 357.95H197.881V278.639H132.082V357.95ZM155.757 350.192H89.5904V407.191H155.757V350.192ZM335.44 200.416H245.23V303.501H335.44V200.416ZM233.458 247.108H211.605V272.576H233.458V247.108ZM299.531 168.277H211.605V220.426H299.531V168.277ZM197.881 186.468H150.532V251.958H197.881V186.468ZM89.5904 191.32H63.1843V219.213H89.5904V191.32ZM54.3246 236.069H13.5008V298.71H54.3246V236.069ZM102.338 357.95H30.7084V437.511H102.338V357.95ZM63.1843 492.086H143.617V444.788H63.1843V492.086ZM255.311 473.894H198.791V515.129H255.313V473.894H255.311ZM392.361 432.659H340.062V494.511H392.361V432.659ZM306.302 460.718H261.381V501.953H306.302V460.718ZM349.357 379.296H283.843V453.278H349.357V379.296ZM365.791 506.639H283.843V560H365.791V506.639ZM95.0537 473.894H6.18721V553.937H95.0519V473.894H95.0537ZM385.216 272.576H324.818V319.874H385.216V272.576ZM349.357 340.49H323.208V367.477H349.357V340.49ZM6.18721 390.697H55.9745V320.294H6.18721V390.697ZM76.7643 165.852L-13 168.277V236.069H76.7643V165.852ZM401 168.277H342.725V242.256H401V168.277ZM126.858 161H102.338V214.361H126.858V161ZM396.143 353.983H336.281V402.494H396.143V353.983Z" fill="url(#paint2_linear)" stroke="#FFC700" stroke-width="1.5"/>
<rect x="504" y="328.705" width="8.86149" height="25.1423" fill="white"/>
<rect x="521.754" y="328.857" width="8.83104" height="25.1423" fill="white"/>
<rect x="512.861" y="320" width="8.89195" height="8.85765" fill="white"/>
<rect x="539.415" y="328.857" width="8.89195" height="25.1423" fill="white"/>
<rect x="530.585" y="320" width="8.83105" height="8.85765" fill="white"/>
<rect x="548.308" y="320" width="8.86149" height="8.85765" fill="white"/>
<rect x="557.169" y="327.792" width="8.83104" height="8.85766" fill="white"/>
<rect x="548.308" y="336.65" width="8.86149" height="8.82721" fill="white"/>
<rect x="40" y="390.425" width="7.57515" height="21.4449" fill="white"/>
<rect x="55.1768" y="390.555" width="7.54912" height="21.4449" fill="white"/>
<rect x="47.5752" y="383" width="7.60118" height="7.55506" fill="white"/>
<rect x="70.2744" y="390.555" width="7.60118" height="21.4449" fill="white"/>
<rect x="62.7256" y="383" width="7.54912" height="7.55506" fill="white"/>
<rect x="77.876" y="383" width="7.57515" height="7.55506" fill="white"/>
<rect x="85.4512" y="389.646" width="7.54912" height="7.55506" fill="white"/>
<rect x="77.876" y="397.201" width="7.57515" height="7.52909" fill="white"/>
<path d="M442.067 128.474H154.732C154.732 128.474 152.338 600.682 152.338 614.646H446.856L442.067 128.474Z" fill="#B6B16E"/>
<path d="M520.37 555.707C505.691 530.887 487.449 526.453 472.413 521.656C456.963 516.731 425.144 513.892 407.789 510.417C391.028 507.062 351.219 496.273 350.764 477.462C350.295 457.754 361.249 379.509 361.249 379.509H234.86C234.86 379.509 245.824 457.751 245.352 477.462C244.903 496.273 205.086 507.062 188.322 510.417C170.965 513.892 139.151 516.731 123.701 521.656C108.66 526.453 90.4137 530.885 75.7342 555.707C66.8307 570.757 61.0547 595.125 61.0547 622.001H535.059C535.057 595.125 529.291 570.757 520.37 555.707Z" fill="#F3D4CF"/>
<path d="M350.764 477.464C356.861 504.167 395.147 510.932 415.007 514.908C468.537 525.607 497.523 527.452 518.352 562.648C525.445 574.659 531.69 601.409 532.919 621.661C537.403 622.372 534.216 579.069 520.37 555.706C496.567 515.46 449.296 518.727 407.789 510.419C391.028 507.065 351.219 496.275 350.764 477.464ZM245.985 477.464C245.531 496.275 205.721 507.065 188.96 510.419C147.453 518.727 100.182 515.46 76.3793 555.706C62.533 579.072 59.3469 622.372 63.8304 621.661C65.0594 601.409 71.3045 574.659 78.3975 562.648C99.2244 527.452 128.212 525.607 181.743 514.908C201.602 510.932 239.889 504.165 245.985 477.464Z" fill="#FFF4F3"/>
<path d="M179.155 530.41C179.155 530.41 249.134 531.14 260.941 535.015C266.594 536.867 281.396 548.778 281.396 548.778C281.396 548.778 265.378 541.033 260.242 539.596C248.311 536.264 179.155 530.41 179.155 530.41ZM297.874 556.03C302.89 555.93 317.144 546.748 317.144 546.748C317.144 546.748 303.525 551.779 299.205 552.026C295.562 552.236 283.651 549.001 283.651 549.001C283.651 549.001 293.762 556.111 297.874 556.03ZM339.931 538.336C356.423 533.894 412.708 530.444 412.708 530.444C412.708 530.444 354.579 529.183 338.162 534.658C332.659 536.496 319.685 547.266 319.685 547.266C319.685 547.266 334.502 539.794 339.931 538.336Z" fill="#E4B3AB"/>
<path d="M520.37 555.707C496.57 515.463 449.216 518.71 407.789 510.42C391.028 507.065 351.219 496.276 350.764 477.465C350.295 457.757 361.249 379.512 361.249 379.512H234.86C234.86 379.512 245.824 457.754 245.352 477.465C244.903 496.276 205.086 507.065 188.322 510.42C170.965 513.894 139.151 516.734 123.701 521.659C108.66 526.456 90.4137 530.888 75.7342 555.71C66.8307 570.76 61.0547 595.128 61.0547 622.004H535.059C535.057 595.125 529.291 570.758 520.37 555.707Z" stroke="#C5796D" stroke-width="4.275"/>
<path d="M298.427 485.838C312.127 485.816 331.485 476.976 349.656 465.123C350.841 448.411 353.947 422.753 356.395 403.8C322.257 399.341 273.742 399.439 239.748 404.047C242.179 422.866 245.243 448.186 246.44 464.83C264.848 476.853 284.556 485.86 298.427 485.838Z" fill="url(#paint3_linear)"/>
<path d="M323.147 626.62C279.5 626.62 228.591 626.451 167.51 626.099L113.501 625.806C80.8871 625.63 74.405 625.594 70.4223 625.594L59.249 625.608C59.3272 526.597 108.152 519.729 159.841 512.451C177.606 509.951 195.975 507.364 212.577 500.886C233.407 530.145 266.145 534.094 295.435 534.094C297.065 534.094 298.712 534.079 300.361 534.052C331.313 533.356 367.679 522.388 379.322 499.452C380.822 500.024 382.22 500.684 383.568 501.324C385.086 502.04 386.654 502.782 388.391 503.41C399.753 507.525 413.88 509.47 428.833 511.532C477.727 518.276 538.578 526.663 537.752 621.65C537.759 622.026 537.762 624.33 537.723 625.051C509.18 625.051 489.816 625.327 467.399 625.647C436.992 626.082 399.145 626.62 323.177 626.62C323.162 626.62 323.155 626.62 323.147 626.62Z" fill="#253E1E"/>
<path d="M537.501 622.001C532.548 608.6 535.155 584.279 520.796 562.648C492.324 519.753 439.379 523.682 390.745 509.777C380.473 530.704 360.839 542.857 338.387 549.823L338.348 549.708C360.377 541.895 379.11 530.001 389.665 509.455C388.441 509.098 387.219 508.741 386.002 508.36L388.338 503.874C447.435 522.05 495.133 508.912 522.811 555.707C531.734 570.758 537.501 595.125 537.501 622.001ZM193.882 512.895C196.977 512.176 200.063 511.412 203.137 510.579L199.882 506.266C142.848 520.992 99.9822 511.666 73.9339 555.707C65.0158 570.758 59.2471 595.125 59.2471 622.001C64.1997 608.6 61.5927 584.279 75.9521 562.648C101.78 523.736 147.749 523.347 192.367 513.232C208.295 532.847 231.562 546.706 256.875 550.695C225.124 542.413 205.377 527.064 193.882 512.895Z" fill="#344D2D"/>
<path d="M376.757 504.263C364.55 523.081 331.452 535.916 293.911 535.916C256.816 535.916 226.216 523.196 212.06 501.89L211.952 501.731L214.97 506.266C211.625 507.686 203.2 510.537 203.2 510.537L199.667 505.993L199.884 506.278C200.547 507.143 201.236 508.077 201.964 509.064C212.614 523.489 230.443 547.632 290.647 547.632C295.929 547.632 301.502 547.439 307.212 547.058C347.046 544.204 372.872 531.52 385.995 508.358C385.86 508.302 379.865 505.839 376.757 504.263Z" fill="#182F12"/>
<path d="M379.197 499.146C366.881 523.777 327.814 533.191 300.351 533.809C264.593 534.366 233.006 529.311 212.661 500.587C148.235 525.861 59 491.823 59 625.854C81.674 625.854 48.4839 625.702 167.508 626.342C449.406 627.962 448.881 625.292 537.94 625.292C538.006 624.972 537.996 621.979 537.992 621.651C539.067 498.009 437.764 521.021 388.472 503.179C385.123 501.965 382.479 500.37 379.197 499.146ZM211.854 502.026C245.594 552.789 358.94 542.368 379.075 500.656C381.812 501.806 384.793 502.952 387.969 504.076C378.43 524.077 357.977 543.172 307.193 546.81C228.972 552.024 210.901 520.314 200.077 506.129C200.41 506.036 208.522 503.275 211.854 502.026ZM59.3421 625.436C65.4504 569.54 70.9625 529.611 139.214 517.764C162.653 513.439 174.664 513.026 199.882 506.204C219.118 532.573 238.337 551.45 309.099 548.474C361.312 542.666 378.902 524.971 388.411 504.25C453.208 524.644 533.264 503.829 537.161 624.901C413.858 623.296 294.734 620.088 59.3421 625.436Z" fill="#061003"/>
<path d="M172.547 272.545C169.185 266.893 158.772 253.005 148.163 256.411C141.446 258.566 140.117 265.611 139.037 271.831C137.6 280.104 140.188 296.467 142.431 302.38C144.583 308.061 151.063 319.034 155.293 323.214C160.497 328.345 166.959 344.698 167.983 346.394C169.596 349.074 171.736 353.101 178.055 352.595C185.025 352.036 189.255 348.339 192.363 347.711C200.04 346.174 181.297 287.256 172.547 272.545Z" fill="#F3D4CF" stroke="#C5796D" stroke-width="4.275"/>
<path d="M165.695 306.807C165.373 305.468 165.712 303.216 166.042 301.036C166.345 299.052 166.629 297.178 166.455 295.854C165.803 290.889 162.123 281.455 159.719 276.344C156.953 270.463 152.479 263.055 146.862 261.144C144.541 260.352 143.014 261.298 142.127 262.258C141.477 262.964 141.333 263.79 141.545 263.888C141.756 263.986 142.242 263.302 142.943 262.657C143.517 262.129 144.358 261.674 145.511 261.77C145.047 264.24 142.66 277.627 143.693 286.753C144.507 293.931 147.585 299.289 148.067 300.093C148.138 300.938 148.255 301.767 148.428 302.571C150.698 313.045 160.574 324.959 164.012 328.856C164.645 329.577 165.309 330.004 165.473 329.828C165.634 329.652 165.243 328.939 164.61 328.216C161.219 324.343 151.439 312.476 149.244 302.368C146.918 291.644 154.908 275.745 156.692 272.383C157.598 273.962 158.37 275.479 158.964 276.745C159.428 277.737 159.946 278.897 160.476 280.153C159.428 281.907 152.086 294.71 154.764 304.96C155.756 308.738 160.225 313.61 163.186 314.944C164.816 315.679 165.431 316.776 166.14 318.049C166.961 319.525 167.894 321.196 170.606 322.408C171.156 322.657 171.655 322.755 172.097 322.755C172.862 322.755 173.443 322.447 173.868 322.081C173.912 322.73 173.91 323.556 173.89 324.321C173.861 325.308 173.993 326.122 174.225 326.141C174.455 326.161 174.704 325.377 174.731 324.39C174.77 323.178 174.762 321.677 174.555 320.962C173.949 318.848 172.092 316.463 170.125 313.937C168.197 311.447 166.199 308.877 165.695 306.807ZM147.989 297.52C142.669 281.074 149.591 266.881 150.784 264.623C152.861 266.517 154.693 269.048 156.183 271.523C155.099 273.5 148.211 286.459 147.989 297.52ZM170.934 321.577C168.481 320.485 167.662 319.009 166.863 317.587C166.147 316.3 165.402 314.968 163.518 314.118C163.108 313.935 162.658 313.651 162.194 313.329C156.12 298.898 162.859 292.59 164.547 291.297C165.062 293.061 165.449 294.679 165.62 295.976C165.773 297.168 165.493 299.062 165.212 300.892C164.865 303.162 164.513 305.51 164.877 307.03C165.429 309.292 167.489 311.938 169.48 314.499C171.247 316.769 173.062 319.112 173.685 321.023C173.421 321.406 172.585 322.318 170.934 321.577Z" fill="#C5796D"/>
<path d="M423.561 272.545C426.926 266.893 437.339 253.005 447.946 256.411C454.665 258.566 455.992 265.611 457.074 271.831C458.511 280.104 455.923 296.467 453.68 302.38C451.528 308.061 445.048 319.034 440.814 323.214C435.612 328.345 429.147 344.698 428.126 346.394C426.518 349.074 424.375 353.101 418.057 352.595C411.083 352.036 406.857 348.339 403.746 347.711C396.069 346.174 414.814 287.256 423.561 272.545Z" fill="#F3D4CF" stroke="#C5796D" stroke-width="4.275"/>
<path d="M425.983 313.932C424.016 316.456 422.162 318.841 421.553 320.957C421.343 321.672 421.338 323.173 421.377 324.385C421.407 325.372 421.653 326.156 421.883 326.136C422.113 326.117 422.245 325.303 422.218 324.316C422.198 323.551 422.198 322.726 422.242 322.076C422.667 322.442 423.249 322.75 424.014 322.75C424.458 322.75 424.954 322.652 425.502 322.403C428.211 321.191 429.147 319.52 429.968 318.044C430.674 316.774 431.295 315.677 432.922 314.939C435.886 313.605 440.352 308.733 441.344 304.955C444.022 294.708 436.682 281.902 435.632 280.148C436.162 278.895 436.682 277.734 437.144 276.74C437.74 275.474 438.51 273.957 439.416 272.378C441.2 275.743 449.19 291.639 446.866 302.363C444.677 312.471 434.894 324.338 431.5 328.211C430.87 328.934 430.479 329.647 430.64 329.823C430.801 329.997 431.466 329.569 432.101 328.851C435.536 324.951 445.415 313.04 447.687 302.566C447.858 301.762 447.973 300.934 448.044 300.088C448.525 299.284 451.609 293.924 452.42 286.748C453.451 277.622 451.064 264.235 450.602 261.765C451.758 261.669 452.591 262.121 453.17 262.652C453.871 263.297 454.357 263.981 454.567 263.883C454.778 263.785 454.633 262.959 453.986 262.253C453.099 261.293 451.572 260.35 449.251 261.139C443.634 263.05 439.157 270.458 436.394 276.339C433.99 281.453 430.31 290.884 429.655 295.849C429.479 297.173 429.765 299.047 430.071 301.031C430.401 303.211 430.738 305.463 430.415 306.802C429.914 308.877 427.916 311.447 425.983 313.932ZM439.927 271.521C441.42 269.046 443.252 266.514 445.329 264.621C446.522 266.881 453.441 281.072 448.127 297.518C447.9 286.459 441.014 273.5 439.927 271.521ZM422.423 321.025C423.044 319.114 424.862 316.771 426.628 314.501C428.622 311.941 430.679 309.295 431.234 307.032C431.595 305.512 431.244 303.164 430.899 300.894C430.618 299.064 430.337 297.171 430.493 295.978C430.66 294.681 431.048 293.064 431.564 291.3C433.252 292.592 439.991 298.901 433.921 313.331C433.455 313.653 433.005 313.937 432.595 314.12C430.711 314.97 429.971 316.302 429.25 317.59C428.453 319.012 427.632 320.487 425.179 321.58C423.525 322.318 422.689 321.406 422.423 321.025Z" fill="#C5796D"/>
<path d="M439.127 254.924H439.115C439.086 255.054 413.453 363.331 393.814 394.058C378.365 418.232 326.372 456.454 298.419 456.498C270.473 456.547 218.356 418.486 202.837 394.363C183.102 363.698 157.137 255.506 157.108 255.374H157.105C153.997 243.376 152.331 230.782 152.312 217.795C152.185 136.015 217.328 69.6341 297.825 69.507C378.329 69.38 443.679 135.551 443.801 217.33C443.822 230.318 442.199 242.914 439.127 254.924Z" fill="#F3D4CF"/>
<path d="M360.064 83.5664C405.807 108.603 436.866 157.726 436.78 214.212C436.758 227.2 435.094 239.794 431.984 251.792H431.981C431.953 251.921 405.987 360.116 386.25 390.781C372.012 412.918 327.454 452.154 298.055 452.154C268.653 452.154 224.099 412.915 209.86 390.781C190.124 360.116 164.159 251.924 164.13 251.792H164.128C161.02 239.794 159.353 227.2 159.334 214.212C159.246 157.726 190.306 108.603 236.045 83.5664C186.492 107.269 152.218 158.466 152.309 217.794C152.328 230.781 153.994 243.375 157.102 255.373H157.105C157.134 255.503 183.099 363.697 202.834 394.363C213.408 410.8 240.959 433.684 266.287 446.601C265.021 446.048 263.744 445.462 262.459 444.849C275.408 451.873 287.993 456.485 297.688 456.497C297.806 456.497 297.935 456.485 298.052 456.485C298.169 456.485 298.299 456.497 298.416 456.497C308.111 456.485 320.697 451.873 333.648 444.849C332.36 445.467 331.084 446.048 329.815 446.603C355.141 433.686 382.696 410.8 393.27 394.363C413.005 363.697 438.973 255.505 438.999 255.373H439.004C442.112 243.375 443.779 230.781 443.798 217.794C443.891 158.466 409.619 107.269 360.064 83.5664Z" fill="#EBC3BD"/>
<path d="M439.127 254.924H439.115C439.086 255.054 413.453 363.331 393.814 394.058C378.365 418.232 326.372 456.454 298.419 456.498C270.473 456.547 218.356 418.486 202.837 394.363C183.102 363.698 157.137 255.506 157.108 255.374H157.105C153.997 243.376 152.331 230.782 152.312 217.795C152.185 136.015 217.328 69.6341 297.825 69.507C378.329 69.38 443.679 135.551 443.801 217.33C443.822 230.318 442.199 242.914 439.127 254.924Z" stroke="#C5796D" stroke-width="4.23182"/>
<path d="M298.38 413.368C287.712 413.368 285.211 404.635 285.211 404.635C299.321 410.074 311.551 404.261 311.551 404.261C311.551 404.261 307.762 413.368 298.38 413.368Z" fill="url(#paint4_linear)"/>
<path d="M264.517 389.49C271.587 387.05 282.406 382.583 288.032 382.335C290.939 382.201 294.063 384.566 297.201 385.323C299.384 385.852 305.575 382.358 307.796 382.335C313.625 382.273 325.909 387.05 332.174 389.49C332.52 389.628 332.174 389.49 332.174 389.49C332.174 389.49 317.322 407.328 298.348 407.328C276.869 407.33 264.517 389.49 264.517 389.49C264.517 389.49 264.165 389.615 264.517 389.49Z" fill="#BF3F59"/>
<path d="M264.517 389.49C271.587 387.05 282.406 382.583 288.032 382.335C290.939 382.201 294.063 384.566 297.201 385.323C299.384 385.852 305.575 382.358 307.796 382.335C313.625 382.273 325.909 387.05 332.174 389.49C332.52 389.628 332.174 389.49 332.174 389.49C332.174 389.49 317.322 407.328 298.348 407.328C276.869 407.33 264.517 389.49 264.517 389.49ZM264.517 389.49C264.517 389.49 264.165 389.615 264.517 389.49Z" stroke="#B02844" stroke-width="2.24437"/>
<path d="M333.113 388.966C332.99 388.545 331.877 388.024 331.438 388.045C330.64 388.088 329.714 389.061 328.069 389.097C326.166 389.143 316.066 390.662 313.354 390.482C307.892 390.118 303.543 392.191 298.351 392.191C293.156 392.191 288.428 389.928 282.968 390.295C280.256 390.479 270.533 389.145 268.625 389.097C266.975 389.058 266.336 388.042 265.633 387.906C265.141 387.814 263.932 388.332 263.691 388.773C263.478 389.156 263.927 390.492 264.227 390.81C264.958 391.572 267.142 391.431 268.584 391.467C270.577 391.511 280.326 392.847 283.079 392.663C288.417 392.301 293.176 394.772 298.348 394.772C303.52 394.772 307.905 392.491 313.244 392.853C315.991 393.035 326.109 391.508 328.105 391.467C329.55 391.431 331.61 391.311 332.349 390.718C332.698 390.441 333.239 389.397 333.113 388.966Z" fill="#910421"/>
<path d="M298.346 403.374C289.701 403.374 281.299 400.416 274.639 394.895C277.992 394.711 281.442 394.185 284.801 394.331C288.939 394.511 292.866 396.145 297.002 396.417C301.471 396.714 305.617 395.167 309.994 394.636C313.642 394.2 319.394 392.907 323.055 393.041C316.507 398.059 306.697 403.374 298.346 403.374ZM310.078 388.974C313.449 388.879 318.837 387.609 322.198 387.853C318.593 385.906 312.816 385.439 308.747 384.654C305.242 383.972 301.723 386.683 298.277 387.137C294.393 387.648 291.479 383.959 287.71 383.833C283.623 383.877 279.416 386.375 275.821 388.066C279.115 387.979 282.51 387.615 285.791 388.035C289.808 388.546 293.664 390.131 297.733 390.267C301.897 390.411 305.915 389.085 310.078 388.974Z" fill="#CE5971"/>
<path d="M298.223 400.932C293.018 400.932 287.943 399.131 283.582 395.796C284.557 395.698 285.542 395.624 286.489 395.624C286.789 395.624 287.089 395.634 287.389 395.652C288.952 395.734 290.491 396.183 292.125 396.66C293.711 397.117 295.347 397.592 297.059 397.738C297.397 397.764 297.736 397.776 298.072 397.776C300.173 397.776 302.166 397.253 304.096 396.75C305.319 396.43 306.476 396.127 307.667 395.947C308.316 395.845 309.019 395.796 309.814 395.796C310.502 395.796 311.21 395.834 311.913 395.888C308.283 398.585 303.583 400.932 298.223 400.932Z" fill="#DE758B"/>
<path d="M207.857 273.885C206.62 268.302 220.54 264.178 238.914 266.431C257.283 268.686 270.037 279.928 268.361 285.596C267.432 288.738 242.366 293.525 233.536 292.552C224.584 291.563 210.842 287.365 207.857 273.885Z" fill="url(#paint5_radial)"/>
<path d="M255.557 278.718C255.557 288.464 247.653 296.367 237.904 296.367C228.155 296.367 220.251 288.464 220.251 278.718C220.251 268.963 228.155 261.061 237.904 261.061C247.653 261.061 255.557 268.963 255.557 278.718Z" fill="#377CAA" stroke="#034C7C" stroke-width="1.21125"/>
<path d="M227.64 286.968C230.217 286.754 227.935 286.067 227.935 286.067C226.661 285.379 224.263 284.324 224.263 283.355C224.263 280.32 228.421 279.535 224.163 278.337C219.739 274.277 227.596 274.362 227.538 274.225C224.67 267.234 228.416 271.072 229.995 269.008C235.843 261.361 231.625 269.793 234.801 269.008C235.951 268.725 232.506 264.503 234.9 265.095C236.485 265.483 236.846 266.8 236.846 266.8C238.003 266.574 239.812 264.794 239.812 264.794C242.015 265.459 243.563 268.588 242.881 268.003C243.966 267.872 245.482 267.353 246.665 267C246.665 267 246.873 266.298 247.072 266.902C249.772 274.732 256.734 274.171 248.717 276.432C248.717 276.432 248.2 276.432 249.843 277.735C257.816 284.102 243.658 282.131 251.168 285.06C251.473 284.756 246.668 287.901 246.668 288.771C246.668 290.245 243.6 294.121 240.942 292.594C239.459 291.747 239.232 294.36 238.36 293.153C236.651 290.79 233.237 293.051 234.499 290.879C236.364 289.348 232.576 291.479 231.841 291.479C229.407 291.479 235.027 283.292 243.297 289.375C245.716 291.147 240.755 285.159 245.137 285.159C245.575 285.303 245.444 283.625 245.444 283.153C243.164 282.707 249.534 283.143 249.534 279.44C249.934 279.521 251.031 278.412 244.724 279.44C244.724 279.44 244.522 277.232 244.624 276.831C244.948 275.544 248.196 275.955 247.282 274.624C247.28 274.621 244.931 269.905 244.931 269.905C237.361 268.688 241.687 267.928 236.954 268.902C236.73 270.013 226.817 274.74 227.133 276.931C227.428 278.997 233.357 279.689 227.746 283.35C236.153 299.46 221.534 282.993 227.64 286.968Z" fill="#4E8FB9"/>
<path d="M237.903 263.269L238.408 276.193L243.814 264.446L239.332 276.575L248.828 267.792L240.045 277.283L252.177 272.803L240.433 278.211L253.355 278.714L240.433 279.216L252.177 284.625L240.045 280.145L248.828 289.636L239.332 280.853L243.814 292.982L238.408 281.235L237.903 294.161L237.399 281.237L231.991 292.984L236.468 280.855L226.977 289.638L235.76 280.147L223.627 284.627L235.372 279.219L222.456 278.716L235.372 278.213L223.627 272.805L235.76 277.285L226.977 267.794L236.468 276.577L231.991 264.448L237.399 276.195L237.903 263.269Z" fill="#377CAA" stroke="#236B9B" stroke-width="1.21125"/>
<path d="M240.246 267.144L238.659 276.899L244.491 268.921L239.296 277.326L247.739 272.184L239.724 277.964L249.489 276.448L239.87 278.716L249.477 281.052L239.718 279.47L247.697 285.301L239.286 280.109L244.428 288.55L238.648 280.533L240.165 290.298L237.897 280.678L235.558 290.284L237.145 280.529L231.307 288.506L236.507 280.099L228.067 285.241L236.084 279.461L226.318 280.977L235.936 278.707L226.331 276.371L236.086 277.951L228.107 272.12L236.518 277.312L231.378 268.872L237.155 276.888L235.639 267.125L237.913 276.745L240.246 267.144Z" fill="#377CAA" stroke="#115B8B" stroke-width="1.21125"/>
<path opacity="0.9" d="M244.526 278.717C244.526 282.374 241.56 285.335 237.905 285.335C234.25 285.335 231.286 282.372 231.286 278.717C231.286 275.061 234.252 272.096 237.907 272.096C241.562 272.096 244.526 275.059 244.526 278.717Z" fill="black"/>
<path opacity="0.7" d="M230.953 291.401C229.979 292.375 228.053 292.032 226.656 290.633C225.256 289.235 224.911 287.31 225.887 286.336C226.861 285.362 228.786 285.704 230.184 287.104C231.582 288.504 231.929 290.425 230.953 291.401Z" fill="white"/>
<path opacity="0.9" d="M252.046 275.239C250.588 276.699 247.053 275.534 244.154 272.633C241.254 269.734 240.087 266.201 241.547 264.741C243.007 263.281 246.54 264.446 249.439 267.347C252.338 270.247 253.503 273.781 252.046 275.239Z" fill="white"/>
<path d="M192.092 282.38C192.092 316.115 211.785 343.461 236.072 343.461C260.358 343.461 280.051 316.115 280.051 282.38C280.051 248.643 260.358 221.297 236.072 221.297C211.785 221.297 192.092 248.643 192.092 282.38ZM207.856 273.885C206.62 268.302 220.539 264.177 238.913 266.43C257.282 268.685 270.036 279.927 268.36 285.595C267.432 288.737 242.366 293.524 233.535 292.551C224.583 291.562 210.842 287.364 207.856 273.885Z" fill="#F3D4CF"/>
<path d="M233.536 292.552C242.366 293.524 267.432 288.738 268.36 285.596C270.039 279.927 257.282 268.686 238.913 266.43C223.13 264.495 210.661 267.273 208.235 271.63C210.429 255.993 227.049 243.783 247.296 243.693C269.069 243.602 286.751 257.561 286.81 274.882C286.861 292.2 269.255 306.308 247.485 306.406C225.707 306.496 208.027 292.537 207.969 275.219C207.969 274.962 208.008 274.711 208.015 274.454C211.267 287.47 224.715 291.577 233.536 292.552Z" fill="url(#paint6_radial)"/>
<path d="M207.857 273.885C206.62 268.302 220.54 264.178 238.914 266.431C257.283 268.686 270.037 279.928 268.361 285.596C267.432 288.738 242.366 293.525 233.536 292.552C224.584 291.563 210.842 287.365 207.857 273.885Z" fill="url(#paint7_radial)"/>
<path d="M208.826 261.41C219.108 256.577 231.671 256.132 242.637 258.954C248.511 260.325 254.768 262.094 259.894 265.399C264.646 268.173 268.507 271.508 272.116 275.637C268.837 271.481 265.34 268.019 260.82 265.204C255.259 261.744 249.168 259.599 242.827 258.079C231.62 255.328 219.071 255.954 208.826 261.41Z" fill="#C5796D"/>
<path d="M196.534 265.207C196.534 265.207 202.222 267.36 205.318 266.722C204.365 265.601 202.64 262.803 202.64 262.803C202.64 262.803 207.167 264.149 210.339 262.881C212.489 262.021 220.271 260.438 223.669 260.277C227.791 260.076 236.064 260.582 240.125 261.313C248.369 262.798 262.078 267.738 268.658 278.865C269.281 280.263 272.096 281.116 272.096 281.116C272.096 281.116 269.604 280.59 269.289 281.218C268.6 282.589 272.46 286.144 272.944 286.586C272.55 286.232 269.794 283.813 268.736 284.224C268.587 284.277 268.402 285.172 268.358 285.401C269.091 279.474 256.537 268.919 238.911 266.822C220.537 264.638 206.617 268.638 207.854 274.05C210.839 287.116 224.581 291.185 233.533 292.142C239.705 292.805 253.808 290.733 262.059 288.387L264.529 287.612C259.645 290.078 246.145 292.976 240.665 293.484C238.847 293.655 235.192 293.738 233.369 293.691C218.834 293.305 208.545 285.924 204.712 275.953C204.406 275.151 203.505 274.44 202.664 274.252C198.745 273.37 190.213 269.827 190.213 269.827C195.881 270.71 198.723 271.474 203.175 269.972C198.828 268.344 196.534 265.207 196.534 265.207Z" fill="black"/>
<path d="M388.894 273.885C390.13 268.302 376.211 264.178 357.837 266.431C339.468 268.686 326.714 279.928 328.39 285.596C329.318 288.738 354.384 293.525 363.215 292.552C372.167 291.563 385.908 287.365 388.894 273.885Z" fill="url(#paint8_radial)"/>
<path d="M376.499 278.717C376.499 288.461 368.595 296.366 358.846 296.366C349.098 296.366 341.193 288.461 341.193 278.717C341.193 268.962 349.098 261.06 358.846 261.06C368.595 261.06 376.499 268.962 376.499 278.717Z" fill="#377CAA" stroke="#034C7C" stroke-width="1.21125"/>
<path d="M348.584 286.967C351.159 286.753 348.879 286.066 348.879 286.066C347.606 285.381 345.207 284.325 345.207 283.356C345.207 280.321 349.365 279.534 345.107 278.338C340.682 274.276 348.538 274.361 348.482 274.224C345.612 267.233 349.361 271.071 350.937 269.007C356.785 261.36 352.567 269.792 355.743 269.007C356.896 268.724 353.45 264.502 355.843 265.094C357.427 265.48 357.791 266.799 357.791 266.799C358.947 266.573 360.756 264.793 360.756 264.793C362.96 265.458 364.507 268.589 363.826 268.004C364.908 267.873 366.426 267.354 367.608 267.001C367.608 267.001 367.815 266.299 368.015 266.905C370.715 274.735 377.676 274.172 369.658 276.436C369.658 276.436 369.14 276.436 370.783 277.738C378.758 284.103 364.598 282.134 372.108 285.063C372.416 284.757 367.608 287.902 367.608 288.772C367.608 290.249 364.54 294.122 361.882 292.597C360.399 291.748 360.175 294.363 359.3 293.156C357.591 290.793 354.175 293.054 355.44 290.882C357.305 289.351 353.517 291.48 352.781 291.48C350.347 291.48 355.967 283.293 364.237 289.376C366.657 291.15 361.693 285.162 366.077 285.162C366.517 285.306 366.385 283.628 366.385 283.154C364.106 282.71 370.476 283.146 370.476 279.443C370.877 279.522 371.973 278.413 365.666 279.443C365.666 279.443 365.464 277.233 365.566 276.834C365.89 275.549 369.14 275.958 368.225 274.627C368.223 274.625 365.872 269.91 365.872 269.91C358.302 268.691 362.628 267.931 357.897 268.907C357.672 270.018 347.76 274.745 348.075 276.936C348.37 279.001 354.297 279.694 348.688 283.358C357.095 299.459 342.476 282.992 348.584 286.967Z" fill="#4E8FB9"/>
<path d="M358.846 263.268L359.348 276.19L364.756 264.443L360.275 276.572L369.768 267.791L360.985 277.282L373.118 272.802L361.373 278.21L374.295 278.713L361.373 279.215L373.118 284.624L360.985 280.144L369.768 289.635L360.275 280.854L364.756 292.983L359.348 281.236L358.846 294.16L358.343 281.238L352.933 292.985L357.413 280.856L347.922 289.637L356.705 280.146L344.572 284.626L356.314 279.218L343.398 278.715L356.314 278.212L344.572 272.804L356.705 277.284L347.922 267.793L357.413 276.574L352.933 264.445L358.343 276.192L358.846 263.268Z" fill="#377CAA" stroke="#236B9B" stroke-width="1.21125"/>
<path d="M361.188 267.141L359.601 276.896L365.433 268.919L360.239 277.324L368.679 272.184L360.665 277.962L370.43 276.446L360.81 278.716L370.417 281.052L360.658 279.47L368.64 285.301L360.229 280.109L365.371 288.547L359.591 280.531L361.107 290.296L358.839 280.676L356.501 290.281L358.087 280.527L352.247 288.504L357.45 280.099L349.007 285.239L357.024 279.461L347.259 280.977L356.877 278.705L347.273 276.371L357.026 277.951L349.047 272.12L357.458 277.314L352.316 268.876L358.094 276.892L356.577 267.127L358.852 276.747L361.188 267.141Z" fill="#377CAA" stroke="#115B8B" stroke-width="1.21125"/>
<path opacity="0.9" d="M365.466 278.716C365.466 282.373 362.501 285.334 358.846 285.334C355.19 285.334 352.225 282.373 352.225 278.716C352.225 275.06 355.19 272.095 358.846 272.095C362.501 272.095 365.466 275.058 365.466 278.716Z" fill="black"/>
<path opacity="0.7" d="M351.895 291.4C350.918 292.374 348.995 292.031 347.598 290.634C346.198 289.236 345.853 287.309 346.831 286.335C347.805 285.359 349.728 285.703 351.126 287.101C352.524 288.501 352.869 290.426 351.895 291.4Z" fill="white"/>
<path opacity="0.9" d="M372.986 275.238C371.528 276.698 367.995 275.533 365.094 272.634C362.195 269.735 361.03 266.2 362.485 264.742C363.945 263.282 367.48 264.447 370.377 267.346C373.277 270.246 374.446 273.78 372.986 275.238Z" fill="white"/>
<path d="M360.678 221.297C336.391 221.297 316.698 248.643 316.698 282.38C316.698 316.115 336.391 343.461 360.678 343.461C384.965 343.461 404.658 316.115 404.658 282.38C404.658 248.643 384.965 221.297 360.678 221.297ZM363.214 292.551C354.384 293.524 329.318 288.737 328.39 285.595C326.711 279.927 339.468 268.685 357.836 266.43C376.21 264.177 390.13 268.304 388.894 273.885C385.908 287.364 372.167 291.562 363.214 292.551Z" fill="#F3D4CF"/>
<path d="M363.215 292.552C354.385 293.524 329.319 288.738 328.39 285.596C326.712 279.927 339.468 268.686 357.837 266.43C373.621 264.495 386.089 267.273 388.515 271.63C386.321 255.993 369.702 243.783 349.454 243.693C327.682 243.602 309.999 257.561 309.941 274.882C309.889 292.2 327.496 306.308 349.266 306.406C371.043 306.496 388.723 292.537 388.782 275.219C388.782 274.962 388.743 274.711 388.735 274.454C385.483 287.47 372.035 291.577 363.215 292.552Z" fill="url(#paint9_radial)"/>
<path d="M388.894 273.885C390.13 268.302 376.211 264.178 357.837 266.431C339.468 268.686 326.714 279.928 328.39 285.596C329.318 288.738 354.384 293.525 363.215 292.552C372.167 291.563 385.908 287.365 388.894 273.885Z" fill="url(#paint10_radial)"/>
<path d="M387.924 261.41C377.643 256.577 365.079 256.132 354.113 258.954C348.24 260.325 341.982 262.094 336.856 265.399C332.104 268.173 328.244 271.508 324.635 275.637C327.914 271.481 331.41 268.019 335.93 265.204C341.491 261.744 347.582 259.599 353.923 258.079C365.13 255.328 377.679 255.954 387.924 261.41Z" fill="#C5796D"/>
<path d="M400.217 265.207C400.217 265.207 394.529 267.36 391.433 266.722C392.386 265.601 394.111 262.803 394.111 262.803C394.111 262.803 389.583 264.149 386.412 262.881C384.262 262.021 376.48 260.438 373.081 260.277C368.959 260.076 360.686 260.582 356.625 261.313C348.382 262.798 334.672 267.738 328.092 278.865C327.469 280.263 324.654 281.116 324.654 281.116C324.654 281.116 327.147 280.59 327.462 281.218C328.151 282.589 324.29 286.144 323.807 286.586C324.2 286.232 326.956 283.813 328.014 284.224C328.163 284.277 328.349 285.172 328.393 285.401C327.66 279.474 340.214 268.919 357.84 266.822C376.213 264.638 390.133 268.638 388.897 274.05C385.911 287.116 372.17 291.185 363.217 292.142C357.046 292.805 342.943 290.733 334.692 288.387L332.221 287.612C337.106 290.078 350.605 292.976 356.085 293.484C357.903 293.655 361.558 293.738 363.381 293.691C377.916 293.305 388.205 285.924 392.039 275.953C392.344 275.151 393.246 274.44 394.086 274.252C398.005 273.37 406.538 269.827 406.538 269.827C400.869 270.71 398.027 271.474 393.576 269.972C397.922 268.344 400.217 265.207 400.217 265.207Z" fill="black"/>
<path d="M396.607 343.481C396.693 397.906 352.64 442.105 298.207 442.181C243.785 442.269 199.592 398.218 199.507 343.784C199.424 289.361 243.475 245.169 297.907 245.083C352.332 245 396.527 289.051 396.607 343.481Z" fill="url(#paint11_radial)"/>
<path d="M383.892 204.192C383.892 251.419 345.603 289.708 298.376 289.708C251.149 289.708 212.859 251.419 212.859 204.192C212.859 156.965 251.149 118.676 298.376 118.676C345.603 118.676 383.892 156.965 383.892 204.192Z" fill="url(#paint12_radial)"/>
<path d="M193.937 249.507C215.361 216.269 274.18 260.827 277.538 246.888C278.195 244.093 276.643 242.457 274.098 241.408C244.146 229.3 204.503 219.126 193.937 249.507Z" fill="#543C32"/>
<path d="M402.815 249.507C381.39 216.269 322.571 260.827 319.213 246.888C318.556 244.093 320.108 242.457 322.653 241.408C352.605 229.3 392.249 219.126 402.815 249.507Z" fill="#543C32"/>
<path d="M279.515 351.368C277.694 356.409 291.8 361.848 297.15 362.182C302.951 362.542 319.199 355.099 316.443 349.988C313.548 344.62 302.687 349.289 298.003 349.289C293.341 349.289 281.946 344.634 279.515 351.368Z" fill="#E4B3AB"/>
<path d="M303.767 353.777C303.173 352.501 306.684 350.52 308.038 350.129C309.936 349.577 314.158 350.71 313.995 352.159C313.848 353.432 310.078 351.746 308.851 352.105C307.578 352.472 304.324 354.976 303.767 353.777ZM286.681 352.606C288.406 352.606 290.964 353.723 291.433 352.746C291.992 351.575 287.621 350.143 286.336 350.302C285.276 350.429 281.472 352.643 281.994 353.571C282.483 354.434 284.408 352.606 286.681 352.606Z" fill="#C5796D"/>
<path opacity="0.2" d="M298.024 344.634C299.659 344.634 302.439 343.078 302.857 339.992C304.699 326.37 301.584 290.524 298.024 290.524C294.689 290.524 291.896 327.233 292.759 339.992C292.971 343.122 296.172 344.634 298.024 344.634Z" fill="white"/>
<path opacity="0.1" d="M165.219 113.293V584.074H260.118C257.76 564.788 254.503 547.149 250.955 537.91C232.436 489.94 167.939 477.453 179.171 414.31L179.617 414.222C191.974 441.76 197.812 457.674 226.601 462.531C186.623 429.198 194.34 398.193 199.91 358.805C203.159 335.823 196.05 317.84 191.328 299.38C196.924 282.312 199.886 266.208 202.9 247.821C229.836 83.5754 350.349 90.9926 384.879 196.793C406.719 263.711 388.44 284.956 415.387 327.023C416.665 356.369 422.659 387.971 388.143 429.449C380.557 438.564 369.327 448.107 359.412 454.484C395.443 451.224 415.217 416.073 427.172 381.242L427.61 381.384C411.805 516.875 351.495 455.556 345.368 584.074H443.902V113.293H165.219Z" fill="#D5D2AB"/>
<path d="M260.413 127.282C260.413 127.282 292.755 133.986 297.386 147.789C273.832 146.695 263.516 138.808 230.291 152.006C237.996 138.425 260.413 127.282 260.413 127.282ZM337.311 125.628C337.311 125.628 301.667 124.172 297.388 147.787C320.943 146.692 335.353 135.977 368.815 151.368C364.215 137.836 337.311 125.628 337.311 125.628Z" fill="#B6B16E"/>
<path d="M468.936 319.413C498.805 112.196 400.864 31.4229 309.537 54.3805C208.805 29.3463 131.921 81.8456 120.122 224.707C117.993 274.89 123.359 312.748 124.214 321.768C117.454 335.965 113.194 351.371 111.442 367.288C105.982 372.147 100.987 375.98 95.418 379.999C98.3296 379.588 102.683 379.063 110.865 376.618C108.944 432.281 136.021 442.219 134.318 488.315C132.731 519.438 132.625 522.071 138.554 542.486C154.238 596.495 130.08 591.907 136.521 658.725C210.998 655.456 247.866 668.612 422.735 657.572C426.605 657.325 452.532 655.62 462.323 656.206C423.42 519.914 489.318 531.814 468.501 462.338C449.841 400.069 500.9 379.315 468.936 319.413ZM346.877 635.379C347.626 644.787 348.924 656.299 349.364 658.974C315.78 659.118 315.981 657.921 262.13 658.439C263.08 626.52 265.767 559.282 257.891 538.789C238.582 488.767 177.177 472.618 173.88 416.977L174.346 416.889C187.229 445.613 197.527 457.198 227.544 462.265C185.861 427.509 194.429 400.577 195.499 359.103C196.134 334.909 191.479 316.393 186.553 297.142C192.389 279.351 195.504 262.563 198.624 243.387C211.312 165.255 254.429 105.336 296.868 147.525C296.871 147.523 297.407 146.753 297.407 146.753C297.637 147.081 297.608 147.032 297.891 147.491C334.212 106.157 369.226 140.812 388.356 190.181C414.87 258.566 392.067 282.107 420.157 325.973C421.497 356.575 423.008 387.941 387.022 431.194C379.111 440.695 369.411 448.302 359.079 454.957C396.643 451.549 419.984 418.827 432.442 382.51L432.9 382.654C396.547 524.155 328.832 419.347 346.877 635.379Z" fill="#D5D2AB"/>
<path d="M462.325 656.209C452.534 655.622 426.607 657.328 422.737 657.574C404.556 658.722 387.895 659.604 372.504 660.271C374.005 614.823 357.558 567.207 378.607 524.253C389.164 500.741 422.66 477.835 429.844 448.518C431.182 443.057 434.484 429.058 435.66 416.894C443.899 469.86 394.734 518.978 406.211 572.47C416.425 536.974 435.94 477.451 448.238 452.524C446.89 491.848 443.899 502.769 445.152 527.449C455.041 505.229 463.172 486.698 458.522 433.395C458.522 433.395 464.743 449.8 468.502 462.341C489.322 531.817 423.422 519.917 462.325 656.209ZM445.994 439.319C479.943 356.03 434.058 348.359 420.733 294.491C406.404 236.561 406.378 134.545 355.618 123.588C329.823 118.02 309.328 126.129 295.934 146.636C296.245 146.934 296.556 147.22 296.868 147.53C296.87 147.528 297.406 146.758 297.406 146.758C297.636 147.086 297.608 147.037 297.89 147.496C334.212 106.162 369.226 140.817 388.355 190.186C414.869 258.571 392.066 282.112 420.156 325.978C426.539 383.744 403.217 426.532 359.078 454.962C395.625 437.695 426.599 409.741 431.328 340.751L432.281 341.237C445.341 358.656 453.676 411.214 445.994 439.319ZM428.405 177.336C432.794 229.982 438.045 282.2 469.075 319.689C469.024 319.596 468.984 319.508 468.933 319.416C469.36 316.467 470.38 308.541 470.753 305.641C456.925 288.931 443.514 259.807 439.424 228.641C434.298 189.595 439.592 144.428 401.352 116.259C419.907 132.647 428.405 155.348 428.405 177.336ZM223.923 111.373C164.062 148.019 178.778 217.581 164.411 272.616C156.778 301.86 136.753 328.289 114.975 347.726C113.517 353.55 112.416 359.484 111.678 365.504C203.089 305.532 167.031 185.833 205.244 142.317C232.943 110.774 266.022 98.9057 297.404 146.756C289.567 108.211 247.868 99.1573 223.923 111.373ZM255.669 129.452C238.589 133.009 220.324 152.004 210.358 169.376C194.873 196.367 192.436 238.442 180.061 283.51C169.526 321.883 146.544 358.197 99.416 379.398C163.489 365.504 184.235 304.268 186.553 297.147C192.388 279.356 195.503 262.568 198.623 243.392C211.218 165.834 253.796 106.24 295.934 146.636C282.384 132.168 274.511 125.525 255.669 129.452ZM223.284 461.456C224.67 461.737 226.064 462.016 227.543 462.267C185.861 427.512 193.71 400.579 194.78 359.106C195.391 335.743 190.829 316.696 186.098 298.149C184.845 301.554 183.452 304.852 181.989 308.099C203.735 364.424 158.607 416.313 223.284 461.456ZM409.977 462.267C431.937 439.434 441.505 389.051 437.2 356.032C435.243 365.824 433.67 375.755 431.391 385.486C431.747 384.499 432.099 383.507 432.439 382.513L432.897 382.657C396.542 524.158 328.826 419.35 346.871 635.381C347.621 644.79 348.918 656.301 349.359 658.977C315.774 659.121 315.975 657.924 262.124 658.442C263.075 626.523 265.761 559.284 257.886 538.792C239.329 490.717 152.405 462.267 177.964 385.777C154.764 417.767 166.973 444.728 181.982 462.267C266.075 569.885 241.489 581.985 245.325 660.271C272.087 661.085 317.381 661.554 360.888 660.015C349.718 506.504 363.587 510.501 409.977 462.267ZM152.53 414.341C149.214 402.502 173.084 376.005 165.378 339.253C163.789 364.06 151.222 383.055 144.906 404.542C135.33 487.323 210.241 500.741 178.428 585.33C178.428 553.57 172.042 537.844 160.07 508.527C160.07 547.616 176.034 573.115 156.878 612.204C156.878 612.204 163.489 583.461 157.501 569.65C137.433 507.816 153.14 483.395 137.723 443.631C130.927 424.844 117.978 409.062 111.676 375.406C113.297 423.63 137.033 447.294 135.52 488.315C133.932 519.438 132.63 522.071 138.556 542.486C154.239 596.495 130.082 591.907 136.523 658.725C165.786 657.442 189.261 658.691 217.568 660.012C222.982 600.387 229.612 561.205 199.222 513.008C182.772 486.923 148.385 460.007 152.53 414.341ZM166.456 160.234C156.521 210.914 153.152 264.937 122.211 302.805C123.088 312.106 123.918 318.656 124.215 321.768C124.057 322.1 123.918 322.44 123.765 322.772C181.29 232.476 157.094 184.037 178.428 135.804C183.217 123.588 193.348 114.876 204.767 101.6C185.408 118.282 171.245 133.36 166.456 160.234ZM457.677 318.634C430.234 272.802 431.503 217.974 413.085 160.234C402.293 126.407 354.55 63.3687 296.94 145.165C323.659 109.995 353.568 108.505 371.903 119.682C386.724 128.719 397.15 144.467 404.333 161.568C421.257 205.881 418.109 246.556 437.264 290.531C449.237 319.848 466.113 344.635 466.994 370.732C466.199 381.909 459.336 409.062 455.745 417.769C456.892 414.407 470.758 388.049 470.758 372.816C470.755 356.032 466.879 334.003 457.677 318.634ZM229.962 90.9999C237.878 84.2863 291.03 77.7535 301.199 118.015C294.054 79.2682 247.693 79.7911 229.962 90.9999ZM382.984 88.3614C391.341 94.816 387.967 91.8965 381.756 87.1056C348.966 66.3028 315.884 83.4483 302.001 117.317C321.255 75.6867 362.246 72.3323 382.984 88.3614ZM412.53 105.908C369.647 44.6523 313.253 66.1049 299.621 100.223C317.474 62.1545 374.745 54.3146 412.53 105.908ZM171.527 120.937C166.549 131.917 182.853 83.0135 238.793 71.7509C258.817 67.6172 285.202 69.623 298.046 86.9493C277.441 56.3912 202.323 57.3563 171.527 120.937ZM381.277 98.8129C384.246 100.924 386.377 102.785 386.253 102.68C385.829 102.394 383.707 100.073 379.982 97.5547C352.342 78.8065 308.747 100.301 298.812 134.401C310.368 100.982 354.768 80.8636 381.277 98.8129ZM215.279 105.426C207.035 112.47 225.774 99.8634 231.398 98.4904C251.153 93.2964 288.899 97.2151 300.407 127.761C289.601 94.1002 243.387 84.8165 215.279 105.426Z" fill="#C6C28B"/>
<path d="M188.694 87.9071C174.176 102.065 168.951 107.747 158.205 126.742C130.465 171.582 129.258 300.67 130.827 252.209C132.941 181.619 138.264 133.18 188.694 87.9071ZM154.881 180.468C152.032 206.878 159.989 156.853 164.409 145.991C181.003 106.01 230.429 62.5577 276.661 84.0055C285.765 88.2466 292.156 93.1206 295.079 95.1337C230.92 44.9333 163.07 104.173 154.881 180.468ZM393.989 95.1312C405.028 106.247 413.847 116.44 413.739 116.315C404.48 107.669 362.869 32.3905 301.01 108.446C330.153 75.7283 362.359 64.9152 393.989 95.1312ZM277.243 111.651C291.49 121.793 304.681 140.167 302.885 137.724C302.284 137.013 299.035 132.369 293.942 126.012C239.628 58.573 178.429 137.863 173.036 196.885C181.877 137.367 234.167 81.3547 277.243 111.651ZM414.153 153.154C416.342 159.079 417.481 162.761 417.28 162.023C417.012 161.309 415.846 156.821 413.646 150.526C395.014 96.1573 343.907 84.2107 298.022 140.211C344.846 88.0219 392.4 97.3715 414.153 153.154ZM467.509 285.264C467.49 284.309 468.028 278.536 468.155 270.161C469.257 216.171 457.308 127.834 414.953 94.4936C469.99 143.851 467.267 288.335 467.509 285.264ZM443.241 335.247C445.973 338.745 447.642 340.854 447.316 340.431C430.596 311.129 436.436 344.061 411.419 233.524C420.767 282.462 419.821 305.397 443.241 335.247ZM155.02 336.617C146.137 345.847 150.138 342.087 156.675 335.308C190.983 292.378 183.672 275.423 192.884 223.068C185.466 257.65 184.491 305.522 155.02 336.617ZM250.782 128.335C254.232 127.285 256.332 126.645 255.916 126.762C246.275 130.209 207.231 136.72 198.018 193.211C206.13 157.144 226.696 136.08 250.782 128.335ZM402.193 182.325C408.854 203.032 397.813 161.908 390.999 149.104C378.217 123.967 361.097 119.694 335.56 120.654C377.226 118.763 388.798 142.449 402.193 182.325ZM140.773 439.481C145.732 467.083 168.092 502.119 176.884 532.489C181.168 546.996 181.374 547.621 176.616 529.298C149.721 442.781 124.62 432.772 152.116 359.812C152.116 359.812 130.992 401.01 140.773 439.481ZM414.962 529.833C414.041 536.227 413.509 540.101 413.634 539.337C435.196 443.7 447.125 474.356 441.788 378.25C441.84 485.692 429.837 438.704 414.962 529.833ZM168.949 393.539C147.868 444.152 181.788 464.266 222.841 523.054C232.16 538.75 229.031 533.427 226.787 529.134C199.253 476.703 152.334 445.581 169.536 397.997C175.242 382.296 179.063 375.206 177.155 343.441C177.497 365.37 176.585 375.191 168.949 393.539ZM184.242 359.57C184.022 390.705 168.561 412.695 200.659 445.833C210.414 453.594 193.641 437.641 190.947 432.74C185.71 423.266 181.802 411.801 182.877 400.836C184.513 366.855 185.981 397.443 185.061 327.546C184.206 352.729 184.961 336.212 184.242 359.57ZM400.323 427.258C396.322 432.506 389.057 437.795 386.904 442.281C386.392 443.226 388.202 440.197 391.08 437.446C433.12 396.294 423.932 369.54 431.776 352.522C423.796 369.816 429.703 387.719 400.323 427.258ZM361.674 525.577C355.06 553.062 359.129 562.68 359.129 562.68C358.686 560.237 358.358 558.815 358.358 554.447C363.283 477.896 418.81 490.961 434.015 407.506C420.645 475.58 374.503 475.479 361.674 525.577Z" fill="#E4E3CE"/>
<path d="M469.186 319.367C498.085 109.663 399.867 31.1937 309.598 54.144C157.241 16.997 105.585 153.563 124.004 321.661C117.17 336.014 112.92 351.545 111.289 367.105C104.893 372.795 96.8505 378.817 94.4561 380.371C99.9178 379.745 105.212 378.57 110.619 376.95C109.532 408.679 118.75 428.077 127.236 448.581C142.307 484.952 127.605 500.563 135.353 531.817C138.322 543.666 142.8 555.344 143.854 567.584C146.119 593.886 130.576 607.714 136.311 658.979C136.503 658.979 136.67 658.955 136.862 658.955C195.986 656.592 168.069 658.552 208.025 660.027C356.728 665.923 420.885 656.461 462.652 656.461C433.298 559.307 461.912 535.692 471.296 502.424C479.3 473.948 462.822 458.713 463.849 435.411C466.432 387.737 495.077 370.943 469.186 319.367ZM225.311 461.383C197.564 456.304 186.085 440.935 174.021 414.816C173.341 400.59 178.621 385.245 181.109 371.158C183.609 357.11 182.069 344.538 179.457 315.629C182.139 309.888 184.461 303.976 186.497 297.941C190.256 313.919 193.704 330.068 193.776 346.387C193.905 382.108 178.619 428.807 225.311 461.383ZM110.664 375.778C106.57 377.07 102.379 378.123 98.1411 378.88C198.318 312.407 174.115 214.979 191.693 169.338C209.036 124.302 257.851 86.2851 297.288 146.983C297.144 147.179 297.027 147.35 296.905 147.545C255.349 102.776 210.446 169.362 199.381 224.16C188.63 277.607 182.826 349.876 115.288 374.19C115.285 374.187 110.664 375.726 110.664 375.778ZM136.812 658.268C135.511 635.162 134.786 630.588 138.56 612.729C141.624 598.166 147.156 583.119 146.294 568.092C145.36 552.432 138.847 537.822 136.979 522.309C135.183 507.308 138.176 492.234 138.248 477.209C138.445 447.372 113.892 426.064 115.238 375.504C134.642 368.937 152.012 356.898 165.377 339.249C167.573 391.162 152.033 387.934 149.861 417.036C146.243 466.025 202.956 504.179 216.284 554.069C220.926 571.322 221.144 640.097 221.049 658.049C160.452 656.966 198.356 654.43 136.812 658.268ZM221.527 658.051C225.746 541.738 221.025 538.03 181.923 485.567C127.806 413.267 163.85 400.785 166.263 362.778C166.766 354.789 166.263 346.751 165.761 338.738C170.909 331.849 175.267 324.422 178.954 316.628C180.858 349.048 181.176 349.427 180.941 355.522C179.44 397.436 145.563 424.593 210.369 487.104C262.906 537.822 260.595 532.694 261.874 658.193C248.417 658.293 234.96 658.293 221.527 658.051ZM262.377 658.195C263.215 630.456 266.151 559.612 258.115 538.704C238.789 488.641 177.412 472.502 174.117 416.966C174.891 419.409 182.263 436.048 190.711 444.939C201.419 456.233 213.329 460.362 228.423 462.651C185.486 430.686 194.834 393.969 195.739 359.113C196.369 335.066 191.824 316.763 186.784 297.084C197.049 266.758 198.502 237.473 204.503 214.41C218.178 161.742 257.985 107.21 296.903 147.909C296.917 147.868 297.381 147.211 297.405 147.176C297.425 147.203 297.856 147.887 297.86 147.909C329.956 106.775 367.642 137.392 388.131 190.272C414.54 258.39 391.922 282.337 419.954 326.107C421.129 354.911 423.311 387.197 386.838 431.038C378.779 440.712 366.73 450.179 358.105 455.273C395.602 453.206 420.215 418.888 432.668 382.591C395.521 524.087 328.655 420.015 346.635 635.399C347.457 645.672 348.776 656.878 349.08 658.73C321.597 658.909 326.364 657.936 262.377 658.195ZM449.935 427.693C468.441 340.854 415.284 351.406 408.487 282.11C406.102 256.675 406.978 211.258 377.694 163.254C356.733 128.787 325.892 113.249 298.03 147.374C297.935 147.179 297.815 146.983 297.693 146.788C335.451 94.5012 399.254 99.082 415.838 210.968C426.328 281.9 428.859 277.327 452.162 326.721C462.601 348.677 476.86 377.424 449.935 427.693ZM421.057 327.82C425.985 335.362 431.416 342.466 436.672 349.93C436.672 389.874 405.019 447.443 363.042 453.687C369.076 449.925 374.919 445.799 380.019 440.861C417.882 404.135 424.338 371.837 421.057 327.82ZM460.829 450.216C463.942 463.653 469.687 476.039 469.758 490.087C466.33 530.207 427.614 547.814 461.833 655.41C438.293 654.132 414.772 656.712 372.9 658.217C371.801 596.727 367.688 580.371 370.628 554.166C377.454 492.936 428.133 497.709 435.659 416.892C426.04 502.063 367.41 491.106 366.15 566.186C366.071 571.075 371.897 657.443 371.969 658.244C365.334 658.471 356.168 658.73 349.533 658.73C330.413 458.979 382.342 497.722 416.316 436.144C428.145 414.779 437.151 381.047 437.292 350.831C456.95 379.305 455.693 393.661 448.714 431.011C461.605 410.267 472.158 375.968 464.301 350.682C461.682 339.948 452.815 321.685 449.336 314.329C423.38 259.509 427.87 256.575 418.208 203.585C400.48 105.148 338.559 88.3666 297.551 146.588C255.524 78.2938 188.972 126.562 180.032 208.642C176.789 238.804 179.421 302.622 116.219 362.605C120.783 325.983 137.12 307.948 149.143 279.002C179.431 206.358 153.487 155.647 193.8 114.51C149.988 158.998 180.824 212.536 140.355 290.881C135.71 299.847 130.538 308.569 125.989 317.606C111.972 160.811 165.219 21.9662 306.986 56.1229C404.639 30.8883 460.662 118.28 468.851 221.739C472.373 266.233 468.257 306.245 467.558 316.457C460.686 304.511 452.449 293.321 447.588 280.275C419.152 203.717 443.862 153.089 401.327 115.905C444.712 155.837 416.855 218.27 448.714 290.854C454.97 302.818 462.609 313.797 468.252 325.936C491.217 375.338 450.057 403.609 460.829 450.216Z" fill="#A7A154"/>
<path opacity="0.2" d="M417.462 284.774C417.291 297.406 411.696 310.722 404.512 321.375C397.524 331.735 379.322 335.424 365.859 335.424C354.864 335.424 345.066 333.177 338.934 329.243C327.377 321.815 314.965 303.319 312.228 285.678C337.077 270.75 388.313 270.75 417.462 284.774ZM179.287 283.064C178.945 296.209 184.735 310.258 192.236 321.375C199.224 331.735 217.427 335.424 230.89 335.424C241.885 335.424 251.683 333.177 257.815 329.243C269.03 322.035 281.027 304.419 284.228 287.267C257.815 271.776 206.994 270.09 179.287 283.064Z" fill="white"/>
<path opacity="0.4" d="M417.462 284.774C388.313 270.774 337.077 270.749 312.253 285.654C311.837 282.966 311.642 280.303 311.691 277.688C312.228 257.531 341.06 250.372 365.59 250.372C382.889 250.372 403.315 253.964 409.912 261.953C415.434 268.673 417.584 276.564 417.462 284.774ZM231.159 250.372C213.86 250.372 193.434 253.964 186.837 261.953C181.706 268.184 179.483 275.465 179.287 283.064C207.019 270.09 257.815 271.776 284.203 287.242C284.814 284.017 285.132 280.816 285.034 277.688C284.497 257.531 255.665 250.372 231.159 250.372Z" fill="white"/>
<path d="M431.486 257.604C430.021 251.716 363.049 239.817 328.281 251.765C319.876 254.648 314.06 257.213 310.591 260.854V260.805C309.369 262.955 306.315 263.688 304.141 262.882C300.231 261.391 296.273 261.465 292.608 262.882C290.458 263.713 287.379 262.955 286.158 260.805V260.854C282.688 257.213 276.897 254.672 268.468 251.765C233.7 239.817 166.728 251.74 165.262 257.604C164.7 259.925 163.943 272.411 163.992 276.882C164.04 281.353 166.826 281.011 171.004 282.966C172.616 283.723 175.988 289.49 176.306 291.86C177.845 302.952 182.268 313.239 189.158 323.452C200.935 340.897 242.202 343.658 259.794 332.345C271.962 324.527 284.569 306.129 287.917 287.828C288.577 284.188 289.187 281.353 289.652 278.91L289.676 279.032C290.556 276.027 294.489 274.561 298.399 274.488C302.308 274.561 306.242 276.027 307.121 279.032L307.146 278.91C307.586 281.353 308.221 284.188 308.881 287.828C312.228 306.129 324.835 324.527 337.003 332.345C354.595 343.658 395.863 340.897 407.64 323.452C414.53 313.239 418.952 302.952 420.492 291.86C420.809 289.465 424.181 283.699 425.794 282.966C429.972 281.011 432.781 281.378 432.806 276.882C432.806 272.411 432.048 259.901 431.486 257.604ZM257.131 328.192C241.543 338.209 203.329 335.62 193.238 320.691C181.754 303.636 174.131 279.301 187.765 262.735C200.91 246.78 282.908 244.85 283.812 277.713C284.35 297.015 270.178 319.811 257.131 328.192ZM403.51 320.691C393.42 335.644 355.206 338.209 339.618 328.192C326.57 319.811 312.399 297.015 312.936 277.713C313.84 244.85 395.838 246.78 408.984 262.735C422.617 279.276 414.994 303.636 403.51 320.691Z" fill="black"/>
<path d="M164.895 260.243C165.017 259.021 165.139 258.068 165.261 257.58C166.727 251.691 233.699 239.792 268.467 251.74C276.872 254.623 282.687 257.189 286.157 260.829V260.781C286.157 260.756 232.404 232.389 164.895 260.243ZM430.117 281.158C431.754 280.425 432.732 279.448 432.756 276.833C432.805 272.386 432.047 259.877 431.485 257.555C430.019 251.667 363.048 239.768 328.279 251.716C320.265 254.477 314.621 256.945 311.103 260.316C329.477 245.779 404.365 242.871 424.449 262.809C428.602 266.962 429.922 274.83 430.117 281.158Z" fill="#0F0F0F"/>
</g>
<defs>
<linearGradient id="paint0_linear" x1="300" y1="-75" x2="300" y2="675" gradientUnits="userSpaceOnUse">
<stop stop-color="#151371"/>
<stop offset="0.453125" stop-color="#FF00B8"/>
<stop offset="0.96875" stop-color="#FFC700"/>
</linearGradient>
<linearGradient id="paint1_linear" x1="439" y1="245" x2="439" y2="644" gradientUnits="userSpaceOnUse">
<stop stop-color="#FF00B8"/>
<stop offset="1" stop-color="#F0DB0A" stop-opacity="0"/>
</linearGradient>
<linearGradient id="paint2_linear" x1="194" y1="161" x2="194" y2="560" gradientUnits="userSpaceOnUse">
<stop stop-color="#FF00B8"/>
<stop offset="1" stop-color="#F0DB0A" stop-opacity="0"/>
</linearGradient>
<linearGradient id="paint3_linear" x1="298.327" y1="485.838" x2="298.327" y2="400.519" gradientUnits="userSpaceOnUse">
<stop stop-color="#E4B3AB" stop-opacity="0.8"/>
<stop offset="0.7" stop-color="#C5796D"/>
</linearGradient>
<linearGradient id="paint4_linear" x1="298.374" y1="412.732" x2="298.374" y2="405.036" gradientUnits="userSpaceOnUse">
<stop offset="0.1" stop-color="#EBC3BD"/>
<stop offset="1" stop-color="#E4B3AB"/>
</linearGradient>
<radialGradient id="paint5_radial" cx="0" cy="0" r="1" gradientUnits="userSpaceOnUse" gradientTransform="translate(235.935 278.634) rotate(174.019) scale(36.9336)">
<stop stop-color="white"/>
<stop offset="0.316" stop-color="#FCFDFD"/>
<stop offset="0.505" stop-color="#F4F7F8"/>
<stop offset="0.661" stop-color="#E5ECEF"/>
<stop offset="0.76" stop-color="#D8E2E7"/>
</radialGradient>
<radialGradient id="paint6_radial" cx="0" cy="0" r="1" gradientUnits="userSpaceOnUse" gradientTransform="translate(247.584 273.82) rotate(1.19182) scale(39.1011 31.2793)">
<stop stop-color="#E4B3AB"/>
<stop offset="0.7" stop-color="#E4B3AB" stop-opacity="0.3"/>
<stop offset="1" stop-color="#F3D4CF" stop-opacity="0"/>
</radialGradient>
<radialGradient id="paint7_radial" cx="0" cy="0" r="1" gradientUnits="userSpaceOnUse" gradientTransform="translate(226.952 343.147) scale(74.563)">
<stop offset="0.95" stop-opacity="0"/>
<stop offset="1" stop-opacity="0.3"/>
</radialGradient>
<radialGradient id="paint8_radial" cx="0" cy="0" r="1" gradientUnits="userSpaceOnUse" gradientTransform="translate(360.816 278.634) rotate(5.98141) scale(36.9336)">
<stop stop-color="white"/>
<stop offset="0.316" stop-color="#FCFDFD"/>
<stop offset="0.505" stop-color="#F4F7F8"/>
<stop offset="0.661" stop-color="#E5ECEF"/>
<stop offset="0.76" stop-color="#D8E2E7"/>
</radialGradient>
<radialGradient id="paint9_radial" cx="0" cy="0" r="1" gradientUnits="userSpaceOnUse" gradientTransform="translate(349.166 273.82) rotate(178.808) scale(39.1011 31.2793)">
<stop stop-color="#E4B3AB"/>
<stop offset="0.7" stop-color="#E4B3AB" stop-opacity="0.3"/>
<stop offset="1" stop-color="#F3D4CF" stop-opacity="0"/>
</radialGradient>
<radialGradient id="paint10_radial" cx="0" cy="0" r="1" gradientUnits="userSpaceOnUse" gradientTransform="translate(369.799 343.147) rotate(180) scale(74.563)">
<stop offset="0.95" stop-opacity="0"/>
<stop offset="1" stop-opacity="0.3"/>
</radialGradient>
<radialGradient id="paint11_radial" cx="0" cy="0" r="1" gradientUnits="userSpaceOnUse" gradientTransform="translate(298.376 343.464) scale(97.7329)">
<stop stop-color="#FFF4F3" stop-opacity="0.5"/>
<stop offset="0.9" stop-color="#F3D4CF" stop-opacity="0"/>
</radialGradient>
<radialGradient id="paint12_radial" cx="0" cy="0" r="1" gradientUnits="userSpaceOnUse" gradientTransform="translate(298.376 206.638) scale(87.9596)">
<stop stop-color="#FFF4F3" stop-opacity="0.5"/>
<stop offset="0.9" stop-color="#F3D4CF" stop-opacity="0"/>
</radialGradient>
<clipPath id="clip0">
<rect width="600" height="600" fill="white"/>
</clipPath>
</defs>
</svg>
